<svg width="25" height="24" viewBox="0 0 25 24" fill="none" xmlns="http://www.w3.org/2000/svg">
<path d="M17.46 14.85L17.4029 14.9887C17.5606 15.0537 17.7308 15.1477 17.9235 15.2826C17.9237 15.2827 17.9238 15.2828 17.924 15.2829L21.2431 17.6423L21.2431 17.6423L21.2453 17.6438C21.4063 17.7539 21.4526 17.8408 21.4743 17.884C21.5447 18.0435 21.57 18.1819 21.57 18.32C21.57 18.5565 21.5155 18.7944 21.4048 19.0251L21.4042 19.0263C21.2604 19.333 21.0888 19.5902 20.8696 19.8284L20.868 19.8302C20.4721 20.2744 20.0406 20.5805 19.5529 20.7813L19.5523 20.7815C18.284 21.31 16.7289 21.1535 15.0389 20.432L15.0379 20.4316C13.9502 19.9768 12.8504 19.343 11.7786 18.5589L11.7784 18.5588C10.6748 17.7535 9.60066 16.8385 8.60606 15.8539C7.61148 14.8493 6.7066 13.7853 5.91131 12.6918C5.11716 11.5998 4.49314 10.5097 4.04815 9.46155C3.61456 8.43673 3.4 7.44661 3.4 6.54C3.4 5.96749 3.49693 5.43675 3.69909 4.93617L3.69909 4.93617L3.69965 4.93476C3.89085 4.44719 4.19746 3.99553 4.64243 3.57958L4.64246 3.57961L4.64497 3.57715C5.11487 3.11685 5.58911 2.9 6.09 2.9C6.23596 2.9 6.38495 2.93426 6.52819 2.99669C6.65335 3.0554 6.75282 3.13809 6.83778 3.25696C6.83783 3.25703 6.83789 3.25711 6.83794 3.25719L9.15754 6.53662L9.15751 6.53664L9.15924 6.53898C9.29497 6.72319 9.39799 6.89287 9.46204 7.0389C9.50826 7.15014 9.53 7.24854 9.53 7.3C9.53 7.36712 9.51064 7.45025 9.44225 7.56139L9.44223 7.56137L9.44071 7.56395C9.3487 7.72037 9.20741 7.90046 9.01393 8.09393L9.01391 8.09391L9.01188 8.09603L8.26289 8.87498C7.98463 9.15377 7.84 9.51187 7.84 9.91C7.84 10.0681 7.86333 10.212 7.92486 10.4479L7.92723 10.457L7.93073 10.4657L8.05073 10.7657L8.05389 10.7736L8.05793 10.7811C8.27515 11.1845 8.6228 11.6637 9.09596 12.2174L9.09652 12.2181C9.60859 12.8105 10.1007 13.3428 10.5929 13.845L10.5929 13.845L10.5948 13.8469C11.2266 14.4687 11.7492 14.9512 12.2326 15.3641L12.2329 15.3643C12.7677 15.8184 13.2566 16.1655 13.6791 16.3922L13.6789 16.3925L13.6891 16.3971L13.9591 16.5171L13.959 16.5174L13.968 16.5207C14.4775 16.709 15.1397 16.6113 15.5747 16.1874L15.5754 16.1868L16.3354 15.4368L16.3361 15.4361C16.5318 15.2404 16.6984 15.1035 16.8771 15.0142L16.8774 15.0147L16.8888 15.0076C17.0482 14.9092 17.1224 14.8983 17.1679 14.902C17.193 14.904 17.2197 14.9113 17.2579 14.9265C17.2773 14.9343 17.2977 14.9432 17.3223 14.9541L17.3243 14.955C17.3478 14.9653 17.3744 14.977 17.4032 14.9888L17.46 14.85ZM17.46 14.85C17.433 14.839 17.408 14.8279 17.3842 14.8174C17.2142 14.7424 17.1083 14.6958 16.81 14.88L18.01 15.16C17.81 15.02 17.63 14.92 17.46 14.85ZM14.3413 22.098L14.3416 22.0982C15.5861 22.6243 16.7961 22.9 17.95 22.9C18.7592 22.9 19.5284 22.7463 20.2364 22.459C20.9799 22.1595 21.618 21.6952 22.201 21.0509C22.5413 20.6795 22.8097 20.2769 23.0259 19.8134C23.2447 19.3446 23.36 18.843 23.36 18.34C23.36 17.9688 23.2855 17.6001 23.1295 17.2049L23.1296 17.2049L23.1282 17.2018C22.9562 16.7931 22.6666 16.4514 22.2755 16.1867L18.9569 13.8277L18.956 13.8271C18.6474 13.6111 18.3582 13.456 18.0884 13.3419L18.0874 13.3414C17.3483 13.0352 16.5994 13.0948 16.006 13.4594C15.7003 13.6184 15.3899 13.858 15.0744 14.1735C15.0742 14.1736 15.0741 14.1738 15.0739 14.1739L14.4628 14.7767C14.2495 14.6588 13.9095 14.4287 13.4066 14.0053L13.4055 14.0044C12.9509 13.6288 12.4649 13.1727 11.8762 12.594C11.4196 12.1274 10.9622 11.6204 10.4735 11.062C10.0428 10.5563 9.81024 10.2138 9.68974 10.0092L10.2972 9.3749C10.5924 9.07957 10.8313 8.77977 10.9899 8.49503C11.2115 8.12496 11.33 7.7293 11.33 7.32C11.33 7.00664 11.2546 6.68715 11.1187 6.37275C11.0031 6.07938 10.8367 5.78926 10.6219 5.49259C10.6218 5.4924 10.6216 5.49221 10.6215 5.49202L8.30358 2.22495C8.04723 1.8412 7.6956 1.55441 7.28337 1.36404C6.92327 1.19468 6.50163 1.1 6.09 1.1C5.10624 1.1 4.19012 1.49871 3.39609 2.2818C2.77141 2.86591 2.30881 3.5438 2.02046 4.27497L2.02031 4.27534C1.74334 4.98317 1.6 5.74174 1.6 6.54C1.6 7.69308 1.86529 8.9128 2.39167 10.168L2.39182 10.1684C2.88689 11.3404 3.58282 12.55 4.44808 13.7574L4.44807 13.7574L4.44901 13.7587C5.30336 14.9246 6.26817 16.0603 7.33344 17.1356L7.33494 17.1371C8.40998 18.192 9.5454 19.1566 10.7212 20.0209L10.7223 20.0217C11.9099 20.8771 13.1295 21.583 14.3413 22.098Z" fill="#1A1A1A" stroke="#1A1A1A" stroke-width="0.3"/>
</svg>
