<svg width="141" height="140" viewBox="0 0 141 140" fill="none" xmlns="http://www.w3.org/2000/svg">
<path d="M62.9666 113.742C62.4973 113.742 62.0362 113.619 61.6289 113.386C61.2216 113.153 60.8824 112.817 60.6448 112.412C51.6991 97.1719 27.8498 64.7207 27.6102 64.3946C27.227 63.8738 27.0442 63.2325 27.0949 62.5879C27.1457 61.9433 27.4267 61.3385 27.8867 60.8841L35.2202 53.637C35.6681 53.1944 36.257 52.9228 36.8844 52.8694C37.5118 52.8161 38.1381 52.9843 38.6543 53.3448L62.4064 69.9295C78.3001 49.5487 93.0637 35.4679 102.776 27.1592C113.712 17.8067 120.672 13.5962 120.964 13.4228C121.382 13.1717 121.861 13.0391 122.349 13.0391H134.213C134.759 13.0391 135.292 13.2049 135.742 13.5147C136.191 13.8245 136.536 14.2635 136.73 14.7736C136.924 15.2837 136.959 15.8408 136.829 16.3709C136.699 16.9011 136.411 17.3794 136.004 17.7423C102.311 47.7518 65.6721 111.739 65.306 112.382C65.0722 112.792 64.7346 113.134 64.3271 113.372C63.9195 113.611 63.4564 113.738 62.9841 113.741L62.9666 113.742Z" fill="#5C032C"/>
<path d="M62.45 124.959C35.7283 124.959 13.9885 103.219 13.9885 76.4971C13.9885 49.7751 35.7283 28.0355 62.45 28.0355C67.8079 28.0296 73.1296 28.914 78.1976 30.6525C78.8729 30.8845 79.4284 31.3754 79.7419 32.017C80.0553 32.6586 80.101 33.3985 79.869 34.0738C79.6369 34.7492 79.1461 35.3047 78.5044 35.6181C77.8628 35.9316 77.1229 35.9773 76.4476 35.7452C71.9419 34.2001 67.2108 33.4144 62.4476 33.4202C38.6947 33.4202 19.3707 52.7445 19.3707 76.4971C19.3707 100.25 38.6947 119.574 62.4476 119.574C86.2005 119.574 105.525 100.25 105.525 76.4971C105.525 73.5825 105.232 70.6754 104.651 67.8195C104.58 67.473 104.578 67.116 104.645 66.7688C104.712 66.4216 104.847 66.091 105.042 65.7959C105.237 65.5009 105.488 65.2471 105.781 65.0491C106.074 64.8511 106.403 64.7127 106.75 64.6419C107.096 64.5711 107.453 64.5692 107.801 64.6364C108.148 64.7036 108.478 64.8385 108.773 65.0335C109.069 65.2284 109.322 65.4796 109.52 65.7726C109.718 66.0656 109.857 66.3947 109.928 66.7412C110.582 69.952 110.911 73.2204 110.91 76.4971C110.912 103.219 89.1717 124.959 62.45 124.959Z" fill="#5C032C"/>
</svg>
