<svg width="19" height="18" viewBox="0 0 19 18" fill="none" xmlns="http://www.w3.org/2000/svg">
<path d="M11.7793 17.0625H7.2793C3.2068 17.0625 1.4668 15.3225 1.4668 11.25V6.75C1.4668 2.6775 3.2068 0.9375 7.2793 0.9375H8.7793C9.0868 0.9375 9.3418 1.1925 9.3418 1.5C9.3418 1.8075 9.0868 2.0625 8.7793 2.0625H7.2793C3.8218 2.0625 2.5918 3.2925 2.5918 6.75V11.25C2.5918 14.7075 3.8218 15.9375 7.2793 15.9375H11.7793C15.2368 15.9375 16.4668 14.7075 16.4668 11.25V9.75C16.4668 9.4425 16.7218 9.1875 17.0293 9.1875C17.3368 9.1875 17.5918 9.4425 17.5918 9.75V11.25C17.5918 15.3225 15.8518 17.0625 11.7793 17.0625Z" fill="#666666"/>
<path d="M6.90478 13.2675C6.44728 13.2675 6.02728 13.1025 5.71978 12.8025C5.35228 12.435 5.19478 11.9025 5.27728 11.34L5.59978 9.0825C5.65978 8.6475 5.94478 8.085 6.25228 7.7775L12.1623 1.8675C13.6548 0.374998 15.1698 0.374998 16.6623 1.8675C17.4798 2.685 17.8473 3.5175 17.7723 4.35C17.7048 5.025 17.3448 5.685 16.6623 6.36L10.7523 12.27C10.4448 12.5775 9.88228 12.8625 9.44728 12.9225L7.18978 13.245C7.09228 13.2675 6.99478 13.2675 6.90478 13.2675ZM12.9573 2.6625L7.04728 8.5725C6.90478 8.715 6.73978 9.045 6.70978 9.24L6.38728 11.4975C6.35728 11.715 6.40228 11.895 6.51478 12.0075C6.62728 12.12 6.80728 12.165 7.02478 12.135L9.28228 11.8125C9.47728 11.7825 9.81478 11.6175 9.94978 11.475L15.8598 5.565C16.3473 5.0775 16.6023 4.6425 16.6398 4.2375C16.6848 3.75 16.4298 3.2325 15.8598 2.655C14.6598 1.455 13.8348 1.7925 12.9573 2.6625Z" fill="#666666"/>
<path d="M15.416 7.3725C15.3635 7.3725 15.311 7.36501 15.266 7.35001C13.2935 6.795 11.726 5.2275 11.171 3.255C11.0885 2.955 11.261 2.6475 11.561 2.5575C11.861 2.475 12.1685 2.6475 12.251 2.9475C12.701 4.545 13.9685 5.81251 15.566 6.26251C15.866 6.34501 16.0385 6.66 15.956 6.96C15.8885 7.215 15.6635 7.3725 15.416 7.3725Z" fill="#666666"/>
</svg>
