<svg width="214" height="214" viewBox="0 0 214 214" fill="none" xmlns="http://www.w3.org/2000/svg">
<path d="M161.8 177.599C161.714 180.077 160.389 182.124 158.829 182.124C157.913 182.124 157.076 181.418 156.526 180.333C156.204 180.492 155.88 180.653 155.55 180.813C156.28 182.266 157.465 183.195 158.829 183.195C160.439 183.195 161.818 183.104 163.135 181.857C164.627 180.445 165.143 178.064 164.831 175.917C163.874 176.462 162.864 177.024 161.8 177.6V177.599Z" fill="#310218"/>
<path d="M67.014 174.102C65.5364 172.487 62.4698 172.91 61.7518 173.343C57.7864 174.814 58.0239 183.232 62.1092 184.174C63.3889 184.469 65.5043 184.223 66.8225 182.976C69.1134 180.809 68.9754 176.246 67.014 174.102ZM59.9713 178.704C59.9713 176.28 61.2414 174.233 62.7437 174.233C64.246 174.233 65.516 176.281 65.516 178.704C65.516 181.126 64.246 183.175 62.7437 183.175C61.2414 183.175 59.9713 181.127 59.9713 178.704Z" fill="#310218"/>
<path d="M108.705 197.76C107.349 196.278 105.636 196.426 104.125 196.556C101.13 196.819 99.5967 199.944 99.5967 202.951C99.5967 206.388 101.527 209.185 103.898 209.185C105.666 209.185 107.097 209.078 108.492 207.76C111.048 205.342 110.93 200.192 108.705 197.76ZM100.666 202.951C100.666 200.15 102.145 197.786 103.897 197.786C105.649 197.786 107.128 200.15 107.128 202.951C107.128 205.751 105.649 208.115 103.897 208.115C102.145 208.115 100.666 205.751 100.666 202.951Z" fill="#310218"/>
<path d="M202.695 112.841C174.061 98.2282 144.616 87.5881 115.285 80.9948C111.129 76.2622 106.083 70.6275 101.866 66.0009C97.1131 60.7868 93.0257 56.113 88.2129 53.4583C88.1209 51.7923 86.9642 50.5704 84.9965 50.0803C83.1903 49.632 81.3339 50.0161 79.6957 50.3575C71.5829 52.0427 21.8194 62.2858 14.0202 65.4081C12.4184 66.049 11.4939 66.5947 11.0424 68.2115C10.4613 70.2991 10.5662 73.9317 12.6206 75.4725C13.6307 76.2311 15.0003 76.0867 16.1099 75.4554C17.3222 75.1076 18.9133 74.6668 20.8061 74.1511C22.593 75.8812 21.6953 74.914 43.3542 99.0607C43.5297 117.921 47.3014 139.255 54.3602 156.088C54.418 156.229 54.3602 156.18 56.2466 157.816C56.8191 160.353 57.5285 164.092 59.3839 169.462C60.3875 172.365 62.9299 173.969 65.3876 175.524C77.9655 183.478 90.5316 190.705 103.36 197.307C103.536 197.268 103.716 197.248 103.899 197.248C104.95 197.248 105.9 197.9 106.583 198.949C107.585 199.455 108.589 199.957 109.594 200.456C111.687 201.493 114.028 202.604 116.411 202.604C125.068 202.604 157.176 187.425 163.515 184.113C165.361 183.148 169.446 181.499 170.225 179.401C170.939 177.483 169.066 176.163 167.318 175.125C170.773 173.133 174.142 171.023 177.419 168.798C178.051 168.366 193.693 141.481 202.959 113.484C203.043 113.229 202.925 112.958 202.694 112.839L202.695 112.841ZM16.8097 73.2961C16.1816 74.502 14.3315 75.419 13.2626 74.6165C11.7839 73.5069 11.4939 70.5773 12.0728 68.4993C12.3659 67.4496 13.0518 66.7541 14.1593 66.7541C14.9767 66.7541 15.7557 67.1607 16.1463 67.623C17.2772 68.9648 17.3875 72.1876 16.8097 73.2961ZM115.327 82.1012C144.15 88.6057 173.045 99.1002 201.241 113.305C187.444 119.9 173.47 125.86 159.153 130.092C158.374 130.322 147.763 133.877 133.729 137.143C127.304 135.502 120.69 133.714 114.01 131.698C114.982 115.475 115.4 99.0179 115.326 82.1022L115.327 82.1012ZM84.0089 159.643C77.3695 156.362 70.8393 152.607 64.5734 148.247C63.9538 142.066 63.5419 135.86 63.3365 129.651C70.0924 133.856 77.117 137.494 84.2496 140.684C83.9767 146.998 83.8954 153.323 84.0089 159.643ZM84.0324 160.848C84.149 166.22 84.4058 171.585 84.8028 176.931C78.6203 173.332 72.5738 169.316 66.7572 164.935C65.9355 159.864 65.256 154.765 64.7168 149.647C70.9549 153.927 77.4444 157.618 84.0324 160.848ZM84.301 139.532C77.1277 136.306 70.0721 132.624 63.2958 128.362C63.1364 122.746 63.146 117.129 63.3268 111.524C70.4755 115.775 77.9473 119.455 85.5571 122.683C84.9847 128.279 84.5663 133.9 84.301 139.532ZM131.032 156.253C138.819 154.371 146.517 152.187 154.102 149.711C152.1 156.028 150.029 162.351 147.899 168.645C140.909 171.083 133.804 173.244 126.606 175.115C128.243 169.032 129.72 162.738 131.032 156.253ZM125.484 175.162C118.93 173.244 112.143 171.113 105.293 168.633C106.523 162.439 107.675 156.22 108.745 149.997C115.941 152.332 123.063 154.355 129.955 156.188C128.63 162.715 127.138 169.046 125.484 175.162ZM131.264 155.095C132.361 149.573 133.34 143.914 134.197 138.129C142.402 136.213 150.593 133.948 158.742 131.345C158.543 136.163 156.808 141.134 154.499 148.455C146.862 150.969 139.107 153.185 131.264 155.095ZM130.165 155.136C123.265 153.3 116.131 151.273 108.928 148.931C109.886 143.311 110.777 137.69 111.598 132.079C118.889 134.328 126.117 136.295 133.122 138.09C132.258 143.903 131.272 149.589 130.165 155.136ZM107.9 148.594C100.389 146.122 92.8117 143.305 85.3496 140C85.6074 134.357 86.0204 128.724 86.5875 123.117C94.5077 126.431 102.569 129.266 110.562 131.758C109.743 137.362 108.854 142.98 107.899 148.594H107.9ZM85.2993 141.148C92.7219 144.417 100.254 147.209 107.717 149.661C106.65 155.873 105.502 162.08 104.276 168.263C97.8814 165.916 91.4389 163.257 85.0863 160.171C84.9622 153.833 85.0339 147.484 85.2993 141.148ZM104.065 169.324C103.007 174.618 101.892 179.892 100.722 185.133C95.7393 182.892 90.7905 180.364 85.9231 177.578C85.5111 172.192 85.2404 166.786 85.1131 161.373C91.3918 164.399 97.7519 167.013 104.064 169.324H104.065ZM105.082 169.694C111.91 172.163 118.673 174.284 125.204 176.195C123.673 181.773 122.006 187.169 120.207 192.366C114.053 190.57 107.862 188.291 101.721 185.578C102.898 180.311 104.019 175.012 105.084 169.693L105.082 169.694ZM126.283 176.304C133.442 174.459 140.509 172.332 147.463 169.929C145.64 175.289 143.775 180.629 141.874 185.923C135.267 188.406 128.427 190.524 121.372 192.268C123.138 187.133 124.778 181.806 126.283 176.304ZM148.745 169.482C155.706 167.037 162.551 164.317 169.258 161.329C167.332 166.342 165.302 171.309 163.171 176.218C156.788 179.684 150.12 182.755 143.191 185.422C145.08 180.143 146.933 174.823 148.745 169.482ZM149.18 168.193C151.301 161.911 153.363 155.603 155.355 149.299C162.425 146.958 169.396 144.362 176.247 141.519C174.256 147.704 172.104 153.842 169.798 159.915C163.06 162.948 156.179 165.711 149.18 168.193ZM155.752 148.04C157.965 141.003 159.703 136.007 159.824 130.997C167.149 128.628 174.44 125.985 181.673 123.076C180.145 128.804 178.477 134.512 176.674 140.183C169.814 143.054 162.834 145.675 155.752 148.04ZM112.917 131.365C89.1448 124.11 64.6279 113.922 44.9239 97.1454C62.1702 90.8826 80.9551 86.2517 100.769 83.3509C105.221 82.6993 109.816 81.977 114.255 81.9642C114.332 98.928 113.894 115.094 112.917 131.365ZM23.9647 73.2972C43.7758 67.9697 84.576 57.4794 85.6235 56.8845C86.182 56.5677 86.8486 56.189 87.3654 55.6657C91.6818 58.7933 94.3493 62.2323 110.979 81.0151C107.522 81.2516 104.076 81.7866 100.616 82.2916C80.7914 85.1849 61.9925 89.8223 44.7249 96.0796C40.4716 91.2336 28.6096 77.7698 23.9647 73.2972ZM44.4167 98.118C50.031 102.879 56.0262 107.11 62.2782 110.895C62.0867 116.479 62.0632 122.076 62.2076 127.671C56.3408 123.909 50.6933 119.704 45.3733 114.974C44.7613 109.333 44.4328 103.665 44.4167 98.118ZM45.552 116.557C50.841 121.172 56.4392 125.282 62.244 128.964C62.4312 135.13 62.8239 141.293 63.4178 147.434C58.3535 143.829 53.47 139.82 48.854 135.335C47.4181 129.268 46.3042 122.938 45.552 116.557ZM55.2986 155.563C52.966 149.983 50.9576 143.793 49.3248 137.267C53.8541 141.546 58.6242 145.383 63.559 148.844C64.0758 153.916 64.7317 158.972 65.5246 164C62.0225 161.316 58.6071 158.5 55.2986 155.563ZM169.223 179.029C168.614 180.667 164.523 182.379 163.02 183.165C154.613 187.557 123.555 201.883 116.155 201.53C114.126 201.436 112.276 200.592 110.069 199.498C95.1454 192.106 80.465 183.811 66.3999 174.9C63.9635 173.357 61.3302 171.822 60.395 169.113C59.2533 165.809 58.3139 162.402 57.5959 158.976C75.6907 174.348 97.7316 187.017 120.398 193.538C120.49 193.564 120.58 193.565 120.672 193.544C137.089 189.573 152.371 183.598 166.262 175.729C167.507 176.538 169.748 177.619 169.223 179.029ZM176.72 167.98C172.84 170.611 168.831 173.079 164.701 175.378C166.78 170.54 168.761 165.647 170.642 160.71C175.333 158.588 179.956 156.336 184.502 153.954C181.986 158.81 179.374 163.527 176.721 167.98H176.72ZM185.355 152.294C180.709 154.763 175.981 157.095 171.179 159.291C173.454 153.244 175.579 147.133 177.545 140.979C183.194 138.605 188.759 136.061 194.231 133.355C191.515 139.7 188.518 146.099 185.355 152.295V152.294ZM194.875 131.839C189.334 134.609 183.696 137.209 177.972 139.637C179.756 133.98 181.406 128.289 182.916 122.574C189.173 120.029 195.386 117.285 201.544 114.345C199.645 119.97 197.388 125.872 194.875 131.839Z" fill="#310218"/>
<path d="M124.265 127.343C138.217 121.466 148.53 108.939 152.205 94.8729C154.524 85.9984 154.383 75.8023 161.104 63.0533C163.464 58.5785 166.706 53.3912 171.267 50.9922C172.745 50.2154 174.331 49.9276 175.942 49.5745C176.323 49.491 176.35 48.8394 175.942 48.7763C173.105 48.3397 170.225 49.9832 168.098 51.7252C165.737 53.6598 163.869 56.1689 162.299 58.7669C152.019 75.752 154.472 87.4086 149.944 99.5649C145.396 111.777 135.824 121.854 124.233 127.262C124.188 127.282 124.222 127.361 124.268 127.342L124.265 127.343Z" fill="#310218"/>
<path d="M192.524 42.4928C191.761 42.3804 190.978 42.4318 190.235 42.6426C190.161 42.236 189.991 41.8486 189.722 41.5351C189.819 41.1585 189.857 40.5925 190.453 39.8724C190.642 39.6444 190.61 39.3074 190.383 39.1191C190.156 38.9308 189.818 38.9629 189.63 39.1897C189.209 39.699 188.911 40.295 188.753 40.9317C187.308 40.5935 186.441 41.3875 186.168 42.3911C184.583 40.8985 182.899 39.4979 181.144 38.2171C180.391 37.6671 179.69 37.6414 178.952 38.6611C177.995 39.9783 176.992 41.6946 177.727 43.2953C178.127 44.1663 178.9 44.6916 179.804 44.9891C179.055 46.746 179.908 48.748 182.094 49.1065C181.911 49.3643 181.743 49.6126 181.593 49.849C181.429 50.109 181.124 50.5938 181.194 51.1502C181.301 51.9912 182.387 53.0451 184.008 53.0451C186.429 53.0451 187.979 50.8452 188.159 48.3714C188.236 47.326 188.097 46.3041 187.9 45.3069C188.821 45.3326 189.861 44.6959 190.162 43.7875C190.181 43.7832 190.198 43.7779 190.215 43.7714C190.902 43.52 191.645 43.4429 192.369 43.551C192.659 43.5938 192.933 43.3927 192.975 43.0995C193.018 42.8063 192.817 42.5356 192.524 42.4928ZM178.698 42.8491C178.196 41.7534 179.032 40.372 179.817 39.2903C180.065 38.9468 180.173 38.9094 180.208 38.9094C180.43 38.8719 183.967 41.7513 185.873 43.5885C184.12 44.453 179.58 44.7697 178.697 42.8502L178.698 42.8491ZM180.721 46.9108C180.522 46.4165 180.568 45.8098 180.877 45.2363C181.317 45.3005 181.765 45.3272 182.198 45.3272C183.309 45.3272 184.707 45.1785 185.826 44.7687C184.656 45.9724 183.657 47.0927 182.859 48.0964C181.979 48.1146 181.045 47.7165 180.722 46.9119L180.721 46.9108ZM187.094 48.2933C186.991 49.6907 186.416 50.8591 185.515 51.499C184.643 52.1185 183.199 52.1998 182.437 51.3342C182.179 51.041 182.192 50.9062 182.498 50.4204C183.11 49.451 184.347 47.7946 186.806 45.293C187.011 46.2902 187.165 47.3014 187.093 48.2943L187.094 48.2933ZM188.861 43.8667C187.949 44.5408 187.357 44.2551 187.182 43.3991C187.036 42.68 187.314 41.9278 188.121 41.9278C188.653 41.9278 189.033 42.1493 189.172 42.7721C189.249 43.1145 189.213 43.6056 188.861 43.8656V43.8667Z" fill="#310218"/>
<path d="M127.092 54.5395C126.291 51.9705 125.281 49.0237 123.356 47.1202C123.423 46.1251 123.314 45.1043 123.139 44.1541C120.786 31.4693 109.09 19.7057 96.3021 17.3207C95.4878 17.1687 95.1283 18.3907 95.9554 18.5779C103.334 20.2546 109.914 24.0959 114.872 29.8407C119.705 35.4422 122.311 42.5256 122.406 46.3273C121.592 45.7687 120.657 45.4199 119.647 45.4873C117.985 45.5986 116.205 46.6996 115.755 48.3795C115.329 49.9685 116.4 51.5189 117.972 51.8517C119.99 52.2797 122.351 51.2225 123.111 48.5679C124.612 50.4457 125.583 53.3711 126.249 55.6299C128.866 64.5023 128.45 74.097 125.803 82.9095C123.224 91.492 118.605 99.2334 113.088 106.238C112.436 107.066 111.777 107.888 111.133 108.722C110.961 108.945 111.327 109.21 111.517 109.019C117.125 103.396 123.295 93.8192 126.424 84.2631C129.545 74.7251 130.101 64.1802 127.093 54.5385L127.092 54.5395ZM120.746 50.4093C119.608 51.108 117.53 51.2857 116.897 49.8112C116.208 48.2041 118.165 46.8141 119.557 46.6633C120.612 46.5488 121.549 47.0249 122.322 47.7236C122.151 48.815 121.699 49.824 120.746 50.4093Z" fill="#310218"/>
<path d="M91.7386 13.0749C92.9616 11.6593 93.4121 9.57385 92.6813 7.13639C92.3635 6.07495 91.9119 5.30669 91.3042 4.78774C91.0805 4.59621 90.7456 4.62189 90.553 4.84338C88.2632 7.47558 86.6047 10.1142 84.851 12.985C84.0956 12.2061 82.543 11.9514 81.6217 12.6672C81.2954 12.5485 80.5346 12.4329 79.6562 11.6379C79.4368 11.4389 79.0987 11.456 78.9007 11.6753C78.7028 11.8947 78.7188 12.2328 78.9382 12.4318C79.5106 12.9497 80.1901 13.3424 80.923 13.5799C80.7433 14.0026 80.6876 14.406 80.7336 14.7858C80.7197 14.7987 80.7058 14.8115 80.693 14.8254C80.2896 15.2663 79.7739 15.5905 79.2003 15.7617C78.9168 15.8462 78.7563 16.1437 78.8408 16.4272C78.9232 16.7043 79.2175 16.8723 79.5064 16.7867C80.1387 16.5984 80.7187 16.2689 81.2034 15.8259C81.7555 16.4283 82.5976 16.7899 83.444 16.6252C83.644 16.5856 83.8345 16.5171 84.0111 16.4251C83.9244 18.0483 83.7778 20.8645 82.9475 25.6624C82.8897 25.9952 83.1497 26.2915 83.4793 26.2883C87.6769 26.2509 90.9126 22.217 90.4942 18.7448C92.0778 18.4484 93.029 17.4319 93.2623 16.3245C93.5394 15.0073 92.7754 13.7704 91.7386 13.0738V13.0749ZM90.9768 5.99363C91.2507 6.35743 91.4754 6.83572 91.6573 7.44241C92.8888 11.548 90.2984 14.5986 85.5743 13.8528C87.3067 11.013 88.8528 8.51348 90.9768 5.99256V5.99363ZM82.0144 15.1229C81.7255 14.834 81.7566 14.3857 81.8818 14.0614C82.3001 12.9818 83.75 13.2354 84.1523 13.8111C84.7076 14.6071 83.368 16.4754 82.0144 15.1229ZM84.1181 25.1659C85.0008 19.8063 85.0725 16.2678 85.1677 15.4C86.1853 15.4064 87.5335 15.8259 88.4708 16.821C91.0206 19.5249 88.2814 24.5785 84.1181 25.1659ZM92.2169 16.1041C92.0286 16.9975 91.1308 17.5593 90.2545 17.7144C90.0459 17.1323 89.7163 16.5813 89.2498 16.087C88.8207 15.6322 88.3274 15.2748 87.8106 15.0041C89.0133 14.88 90.0726 14.4745 90.9168 13.841C91.9408 14.3857 92.3827 15.3187 92.2169 16.1041Z" fill="#310218"/>
</svg>
