<svg width="129" height="26" viewBox="0 0 129 26" fill="none" xmlns="http://www.w3.org/2000/svg">
<path fill-rule="evenodd" clip-rule="evenodd" d="M31.6677 19.8501C30.1141 21.1908 28.0989 22.0002 25.8967 22.0002C20.9832 22.0002 17 17.9707 17 13.0002C17 8.02962 20.9832 4.00018 25.8967 4.00018C28.0989 4.00018 30.1141 4.80956 31.6677 6.15029C33.2213 4.80956 35.2366 4.00018 37.4387 4.00018C42.3522 4.00018 46.3354 8.02962 46.3354 13.0002C46.3354 17.9707 42.3522 22.0002 37.4387 22.0002C35.2366 22.0002 33.2213 21.1908 31.6677 19.8501Z" fill="#ED0006"/>
<path fill-rule="evenodd" clip-rule="evenodd" d="M31.668 19.8499C33.5808 18.1991 34.7937 15.7429 34.7937 13C34.7937 10.2571 33.5808 7.80087 31.668 6.15011C33.2215 4.80938 35.2368 4 37.439 4C42.3525 4 46.3357 8.02944 46.3357 13C46.3357 17.9706 42.3525 22 37.439 22C35.2368 22 33.2215 21.1906 31.668 19.8499Z" fill="#F9A000"/>
<path fill-rule="evenodd" clip-rule="evenodd" d="M31.6687 19.8497C33.5815 18.1989 34.7944 15.7426 34.7944 12.9998C34.7944 10.2569 33.5815 7.80067 31.6687 6.1499C29.7559 7.80067 28.543 10.2569 28.543 12.9998C28.543 15.7426 29.7559 18.1989 31.6687 19.8497Z" fill="#FF5E00"/>
<path fill-rule="evenodd" clip-rule="evenodd" d="M83.0714 20.409H78.6608L75.3535 8.03937C75.1965 7.47037 74.8632 6.96734 74.3729 6.73026C73.1493 6.13445 71.801 5.66028 70.3301 5.42114V4.94491H77.4351C78.4157 4.94491 79.1511 5.66028 79.2737 6.49111L80.9897 15.4137L85.3981 4.94491H89.6861L83.0714 20.409ZM92.1376 20.409H87.9722L91.4021 4.94491H95.5675L92.1376 20.409ZM100.956 9.22893C101.079 8.39604 101.814 7.91981 102.673 7.91981C104.021 7.80024 105.49 8.03938 106.715 8.63312L107.451 5.30363C106.225 4.8274 104.877 4.58826 103.653 4.58826C99.6103 4.58826 96.6685 6.73026 96.6685 9.7031C96.6685 11.9647 98.7523 13.1522 100.223 13.8675C101.814 14.5809 102.427 15.0571 102.305 15.7704C102.305 16.8404 101.079 17.3166 99.8554 17.3166C98.3846 17.3166 96.9137 16.9599 95.5675 16.3641L94.8321 19.6957C96.3029 20.2894 97.8943 20.5286 99.3652 20.5286C103.898 20.6461 106.715 18.5061 106.715 15.2942C106.715 11.2493 100.956 11.0122 100.956 9.22893ZM121.293 20.409L117.986 4.94491H114.433C113.698 4.94491 112.962 5.42114 112.717 6.13445L106.593 20.409H110.881L111.737 18.1495H117.005L117.495 20.409H121.293ZM115.046 9.10936L116.27 14.9375H112.84L115.046 9.10936Z" fill="#172B85"/>
</svg>
