<svg width="24" height="24" viewBox="0 0 24 24" fill="none" xmlns="http://www.w3.org/2000/svg">
<path d="M15.4907 19.3006C15.4901 18.7822 15.6289 18.2732 15.8924 17.8268L9.26806 13.9687C9.01181 14.4088 8.6448 14.7738 8.20326 15.0276C7.76173 15.2813 7.26135 15.4149 6.75209 15.4148C5.97931 15.4145 5.23786 15.1074 4.69142 14.561C4.14498 14.0145 3.8382 13.2734 3.83789 12.5006C3.8382 11.7279 4.14551 10.987 4.69199 10.4407C5.23846 9.89449 5.97941 9.5875 6.75209 9.5875C7.26152 9.58727 7.76209 9.72069 8.20383 9.97444C8.64556 10.2282 9.01275 10.5934 9.26919 11.0336L15.8879 7.16983C15.6274 6.72448 15.4901 6.21765 15.4907 5.70171C15.4909 5.31887 15.5667 4.93972 15.7133 4.58608C15.86 4.23243 16.0746 3.91108 16.3454 3.64047C16.6162 3.36987 16.9378 3.15531 17.2916 3.00894C17.6453 2.86257 18.0244 2.78736 18.4072 2.78751C18.7898 2.78751 19.1688 2.86276 19.5223 3.00922C19.8758 3.15569 20.1968 3.37042 20.4673 3.64104C20.7378 3.91166 20.9525 4.23309 21.0988 4.58664C21.2452 4.9402 21.3204 5.31907 21.3203 5.70171C21.3204 6.08429 21.2452 6.46301 21.0988 6.8165C20.9525 7.16999 20.7378 7.49129 20.4673 7.76182C20.1968 8.03234 19.8758 8.24673 19.5223 8.39307C19.1688 8.53941 18.7898 8.61465 18.4072 8.6145C17.8976 8.61479 17.397 8.48164 16.9549 8.22812C16.5128 7.9746 16.145 7.60982 15.8879 7.16983L9.26919 11.0336C9.52887 11.4788 9.66575 11.9852 9.66517 12.5006C9.66602 13.0162 9.52872 13.5227 9.26806 13.9676L15.8924 17.8257C16.149 17.3865 16.5164 17.0223 16.9577 16.7694C17.399 16.5164 17.8986 16.3836 18.4072 16.3841C18.7899 16.3841 19.1693 16.4596 19.5228 16.6061C19.8764 16.7526 20.1974 16.9675 20.4679 17.2382C20.7384 17.5089 20.9532 17.8304 21.0994 18.1841C21.2457 18.5378 21.3206 18.9167 21.3203 19.2994C21.3203 20.072 21.0136 20.813 20.4673 21.3593C19.921 21.9056 19.1798 22.2125 18.4072 22.2125C17.6344 22.2128 16.8934 21.9061 16.3465 21.3601C15.7997 20.8141 15.4917 20.0734 15.4907 19.3006V19.3006Z" stroke="#666666" stroke-width="1.2" stroke-linecap="round"/>
</svg>
