<svg width="65" height="26" viewBox="0 0 65 26" fill="none" xmlns="http://www.w3.org/2000/svg">
<path fill-rule="evenodd" clip-rule="evenodd" d="M17.3535 9.54467C18.0724 9.60531 18.7913 9.18082 19.2406 8.64262C19.6824 8.08926 19.9744 7.3464 19.8995 6.58838C19.263 6.6187 18.4768 7.01287 18.0274 7.56623C17.6156 8.04378 17.2636 8.81697 17.3535 9.54467ZM25.905 19.3078V7.49028H30.2857C32.5472 7.49028 34.1273 9.06696 34.1273 11.3713C34.1273 13.6757 32.5172 15.2676 30.2258 15.2676H27.7172V19.3078H25.905ZM19.8906 9.68831C19.2573 9.65141 18.6794 9.88111 18.2126 10.0666C17.9123 10.186 17.6579 10.2871 17.4644 10.2871C17.2472 10.2871 16.9823 10.1806 16.685 10.061C16.2953 9.90434 15.8498 9.72519 15.3826 9.73379C14.3118 9.74895 13.3158 10.3629 12.7691 11.3408C11.6459 13.2965 12.4771 16.1921 13.5629 17.784C14.0946 18.5723 14.7311 19.4365 15.5698 19.4062C15.9388 19.3921 16.2042 19.278 16.4789 19.1601C16.7951 19.0242 17.1236 18.8831 17.6366 18.8831C18.1318 18.8831 18.4459 19.0205 18.7475 19.1525C19.0342 19.2779 19.3096 19.3984 19.7184 19.391C20.587 19.3758 21.1337 18.6026 21.6654 17.8143C22.2391 16.9682 22.4912 16.1425 22.5295 16.0171L22.5295 16.0171L22.534 16.0026C22.5331 16.0017 22.526 15.9984 22.5135 15.9926C22.3217 15.9037 20.8557 15.2244 20.8416 13.4026C20.8275 11.8735 22.0044 11.0988 22.1897 10.9768C22.201 10.9694 22.2086 10.9644 22.212 10.9618C21.4632 9.83991 20.295 9.71863 19.8906 9.68831ZM37.4375 19.3986C38.5758 19.3986 39.6316 18.8149 40.1109 17.8902H40.1483V19.3077H41.8257V13.4254C41.8257 11.7199 40.4778 10.6207 38.4035 10.6207C36.479 10.6207 35.0562 11.735 35.0038 13.2662H36.6363C36.771 12.5385 37.4375 12.061 38.3511 12.061C39.4594 12.061 40.0809 12.584 40.0809 13.5467V14.1986L37.8194 14.335C35.7152 14.4639 34.5769 15.3356 34.5769 16.8517C34.5769 18.3829 35.7526 19.3986 37.4375 19.3986ZM37.9243 17.997C36.9583 17.997 36.3442 17.527 36.3442 16.8069C36.3442 16.0641 36.9358 15.632 38.0666 15.5638L40.0809 15.4349V16.102C40.0809 17.2087 39.1524 17.997 37.9243 17.997ZM47.39 19.7701C46.6636 21.8395 45.8324 22.5217 44.0652 22.5217C43.9304 22.5217 43.4811 22.5065 43.3762 22.4762V21.0587C43.4885 21.0739 43.7656 21.089 43.9079 21.089C44.7092 21.089 45.1585 20.7479 45.4355 19.861L45.6003 19.338L42.53 10.7345H44.4246L46.5588 17.7158H46.5962L48.7304 10.7345H50.5726L47.39 19.7701ZM27.7178 9.03699H29.807C31.3796 9.03699 32.2782 9.88597 32.2782 11.3793C32.2782 12.8726 31.3796 13.7291 29.7995 13.7291H27.7178V9.03699Z" fill="black"/>
</svg>
