<svg width="107" height="150" viewBox="0 0 107 150" fill="none" xmlns="http://www.w3.org/2000/svg">
<path d="M59.6621 38.2763C57.0569 47.3945 54.9527 56.5628 53.3495 65.8314C51.4457 75.0498 50.6441 84.619 51.7463 93.9877C53.6501 112.825 57.5579 131.212 60.4637 150H60.2132C54.3515 132.014 50.5439 113.126 50.3435 94.0378C50.3936 84.5187 50.3434 74.9997 51.2954 65.4807C52.4978 56.0117 55.2032 46.6931 59.4116 38.126L59.6621 38.2262V38.2763Z" fill="#DAB8BD"/>
<path d="M59.2619 38.477C58.9613 34.1182 59.5124 30.0601 60.6647 25.9519C61.9172 21.8938 63.7709 17.986 66.5264 14.7295C69.2819 11.473 72.7389 8.91782 76.3962 6.91381C80.0034 4.8096 84.3621 4.05809 87.3681 1.50298L89.1216 0L88.4703 2.3046C86.2659 10.02 83.7609 17.9359 79.2018 24.8998C76.9473 28.4068 74.1416 31.513 70.7849 34.018C67.4282 36.4729 63.5705 38.2765 59.2619 38.4268V38.477ZM59.4122 38.2765C63.1196 37.2244 66.6767 35.1703 69.5825 32.5651C72.5385 29.9599 74.8932 26.8036 77.0475 23.5471C81.2058 16.8837 84.1116 9.36871 87.1677 1.85368L88.2699 2.6553C84.5625 5.11021 80.304 5.41081 76.8471 7.66532C73.29 9.66933 70.4844 12.7755 68.1797 16.032C65.825 19.2886 63.9212 22.7956 62.5184 26.6032C61.0655 30.3607 60.2138 34.4689 59.4623 38.3267L59.4122 38.2765Z" fill="#DAB8BD"/>
<path d="M56.4063 45.0907C55.8051 42.1348 55.2039 39.73 54.8031 37.3753C54.3522 34.9204 53.4504 32.4654 52.3482 30.3111C51.246 28.1067 49.6428 26.0025 47.8392 24.0486C46.0356 22.0947 44.0316 20.2911 42.5286 17.9364L43.731 17.5857C44.232 20.3412 44.6829 23.0466 44.9835 25.8021C45.234 28.6078 45.7851 31.2129 46.5366 33.7681C47.2881 36.2731 48.3402 38.7781 49.9434 40.7821C51.4965 42.8362 53.8512 44.3893 56.3562 45.0907H56.4063ZM56.5566 45.2911C53.5005 45.5917 50.6448 44.1889 48.4905 42.1348C46.3362 40.0306 44.8833 37.3753 43.9815 34.5697C43.0797 31.7641 42.7791 28.8582 42.6789 26.1027C42.5286 23.2971 42.4785 20.4915 42.4785 17.6859V14.4795L43.6809 17.2851C44.6829 19.6398 46.5366 21.5937 48.4404 23.3973C50.3943 25.1508 52.5987 26.8042 54.2019 29.209C55.7049 31.6138 56.5065 34.3192 56.757 37.1248C56.8572 40.0807 56.757 42.9364 56.6067 45.241L56.5566 45.2911Z" fill="#DAB8BD"/>
<path d="M51.496 64.2779C51.1453 62.2238 50.6443 60.4703 50.2936 58.817C50.0431 57.2138 49.492 55.4102 48.8908 53.7068C47.7385 50.2499 46.0852 47.0434 44.1814 43.9873C42.2776 40.9312 39.9229 38.1256 37.1173 35.6707C34.4119 33.1657 31.3557 30.9613 28.7505 28.2058L29.8527 27.5545C33.1092 34.8691 32.458 42.9853 35.5141 49.5485C37.0672 52.805 39.3217 55.7108 42.1273 58.1156C44.8828 60.5705 48.2395 62.5745 51.4459 64.2779H51.496ZM51.6463 64.4783C47.6884 63.5765 44.1814 61.9733 40.9249 59.6687C37.7185 57.3641 34.9128 54.308 33.2094 50.6507C31.4058 46.9933 30.9048 42.9853 30.4539 39.1777C30.003 35.3701 29.7525 31.6126 28.6503 28.0555L27.5481 24.4482L29.8026 27.4042C31.9569 30.31 34.8126 32.7649 37.7185 35.0194C40.5742 37.324 43.6303 39.6787 45.9349 42.835C48.2395 45.9412 49.7425 49.4984 50.7445 53.1557C51.8467 56.6126 51.5461 61.2719 51.6463 64.4783Z" fill="#DAB8BD"/>
<path d="M50.5945 83.6674C50.5945 79.459 49.1416 75.2005 46.7869 71.7436C44.4823 68.1865 41.2258 65.431 37.7187 62.976C34.2618 60.471 30.4542 58.2666 26.4963 56.463C22.5384 54.5592 18.4302 53.0061 14.4723 51.1023L15.2739 50.1003C18.6306 53.457 20.0835 58.1163 21.4863 62.2746C22.839 66.5332 24.6927 70.3408 27.4983 73.5472C30.3039 76.7536 33.811 79.3588 37.819 81.0121C41.7769 82.7155 46.2859 83.5171 50.5945 83.7175V83.6674ZM50.7448 83.8678C46.1356 84.5692 41.5765 84.2185 37.1176 82.8157C32.7087 81.3628 28.6005 78.7576 25.5444 75.2005C22.338 71.7937 20.3841 67.2345 19.2318 62.9259C17.9292 58.6173 16.9773 54.3087 14.2719 50.952L11.8671 47.9961L15.0735 49.8999C18.7809 52.1544 22.7889 54.0081 26.847 55.6113C30.855 57.3147 35.0635 58.8678 38.8711 61.2225C42.6787 63.5773 46.0855 66.7836 48.3901 70.7416C50.6446 74.6995 51.847 79.3087 50.7448 83.8678Z" fill="#DAB8BD"/>
<path d="M54.0011 121.342C50.3939 117.083 46.6364 112.474 42.6284 108.366C38.6705 104.157 34.4119 100.299 30.1033 96.5419C25.7446 92.7844 21.2857 89.077 16.3759 86.0209C11.5162 82.8646 6.30574 80.3095 0.945019 78.2053L1.79671 77.4037C4.35182 82.9648 6.90693 88.4257 10.0131 93.586C13.0693 98.7464 16.8769 103.356 21.3859 107.213C25.945 111.021 31.1053 114.127 36.6664 116.231C42.1775 118.386 48.4901 119.237 54.0011 121.392V121.342ZM54.2015 121.492C47.9891 120.289 42.0773 119.939 36.0152 118.085C30.0532 116.231 24.4921 113.175 19.6825 109.167C14.8228 105.209 10.9651 100.099 7.95905 94.6883C4.95304 89.2774 2.79873 83.5159 0.594319 77.8546L-0.00689697 76.3516L1.3959 77.0029C6.65642 79.5079 11.7667 82.2634 16.8268 85.2193C21.8368 88.1752 26.7967 91.2814 31.4059 94.9387C36.0152 98.5459 40.1735 102.754 44.0312 107.113C47.8388 111.622 51.2957 116.131 54.1514 121.492H54.2015Z" fill="#DAB8BD"/>
<path d="M54.7023 120.04C59.562 120.491 64.6222 120.04 69.3316 118.737C74.0911 117.535 78.55 115.381 82.8085 112.926C87.067 110.471 91.1752 107.615 94.8326 104.208C98.54 100.852 101.796 97.044 105.003 93.1863L105.554 94.2885C95.3837 95.3907 85.5139 97.996 75.9448 101.453C71.1853 103.206 66.4759 105.06 62.4678 108.016C58.6101 110.872 54.8025 115.03 54.7524 120.09L54.7023 120.04ZM54.5019 120.19C53.55 114.679 57.2574 109.769 61.1652 106.413C65.2734 103.006 70.1332 100.751 74.9929 98.9479C84.7123 95.2905 95.033 93.036 105.404 92.8857H107.007L105.905 93.988L95.3837 104.759C91.7765 108.266 88.1191 111.824 83.8606 114.629C75.3436 120.19 64.4718 123.046 54.5019 120.14V120.19Z" fill="#DAB8BD"/>
<path d="M50.7446 85.2205C54.6524 86.2726 58.9109 86.6734 62.969 86.2726C67.0772 85.972 71.0352 84.8698 74.9931 83.6674C78.951 82.465 82.9089 81.0622 86.8167 79.459C90.7245 77.9059 94.5321 76.1023 98.3397 74.1985L98.44 75.451C89.9229 73.9981 81.3057 73.7977 72.7887 74.7997C68.5301 75.3508 64.3217 76.0522 60.4139 77.6053C56.6063 79.1584 52.6484 81.5131 50.7947 85.2706L50.7446 85.2205ZM50.4941 85.3207C51.6464 80.7115 55.6544 77.8057 59.5622 75.7515C63.6203 73.7475 68.0291 72.6955 72.438 72.1444C81.2055 70.9921 90.2736 71.6935 98.6904 74.0983L100.594 74.6494L98.7907 75.3508C94.8829 76.8538 90.975 78.4069 87.1674 80.2105C83.3598 81.9139 79.6524 84.0682 75.6444 85.5712C67.7285 88.5271 58.3097 89.5291 50.4941 85.3207Z" fill="#DAB8BD"/>
<path d="M52.1971 62.5259C55.0027 64.079 58.3093 64.7303 61.5157 64.5299C64.7221 64.4297 67.8284 63.3776 70.8845 62.2754C73.9907 61.1732 77.147 60.0209 80.2532 58.6682C83.4095 57.4157 86.5157 56.1131 89.9726 55.4618V56.7644C83.159 55.9127 76.4957 54.8105 69.8824 55.0109C66.6259 55.1612 63.3694 55.6622 60.4135 56.9648C57.4075 58.1672 54.652 60.3215 52.2472 62.4758L52.1971 62.5259ZM51.9466 62.5259C53.9005 59.4698 56.3554 57.0149 59.5117 55.2614C62.6179 53.5079 66.2251 52.6061 69.7321 52.5059C76.7963 52.1552 83.6099 53.7083 90.173 55.5119L94.1811 56.6141L90.1229 56.8646C86.8664 57.065 83.6099 58.067 80.6039 59.5199C77.5478 60.9227 74.7923 62.8265 71.636 64.2293C68.5298 65.6322 65.0227 66.534 61.5157 66.4338C58.0087 66.2835 54.4516 65.2313 51.9466 62.5259Z" fill="#DAB8BD"/>
<path d="M57.107 45.0397C59.7623 46.4926 62.8685 47.2441 65.8746 47.2441C68.9307 47.3443 71.8866 46.6429 74.9427 45.9415C77.9487 45.2401 81.0048 44.2882 84.111 43.4365C87.1671 42.5848 90.1732 41.4325 93.1291 40.2301L93.3294 41.5327C90.123 41.7832 86.8665 41.9335 83.5599 41.683C80.2533 41.4325 77.097 40.8313 73.9908 40.4305C70.8846 40.1299 67.7784 39.8794 64.7723 40.4305C61.8164 40.9315 58.9607 42.5848 57.107 45.0397ZM56.8565 45.0898C58.0088 41.8333 60.9647 39.5287 64.2713 38.5267C67.578 37.5247 70.9848 37.4745 74.2413 37.8252C77.5479 38.0757 80.7042 38.9275 83.7603 39.3283C86.8665 39.7291 90.073 39.9295 93.2794 40.18L97.3375 40.4806L93.4297 41.4826C90.3735 42.2842 87.3174 43.0858 84.3615 44.2381C81.3555 45.19 78.6 46.8934 75.4938 47.9455C72.4377 48.9976 69.081 49.4986 65.7243 49.198C62.4176 48.7972 59.1611 47.6449 56.8064 45.1399L56.8565 45.0898Z" fill="#DAB8BD"/>
<path d="M59.1614 37.7758C61.2656 32.7157 65.3738 29.4591 69.0311 26.2026C72.6885 22.9962 76.3959 19.4391 77.5983 14.5293C76.8468 19.5393 73.2897 23.5974 69.8828 27.1044C66.476 30.6615 62.8688 34.2187 61.466 38.6275L59.1113 37.7758H59.1614Z" fill="#DAB8BD"/>
<path d="M56.1056 46.9952C53.5004 44.1395 52.5986 40.5824 51.7469 37.3258C50.8952 34.0693 50.0435 30.7126 47.7389 28.1074C50.3441 30.412 51.6968 33.8188 52.9493 36.925C54.2018 40.0813 55.5545 43.2377 57.8592 45.2417L56.1056 47.0453V46.9952Z" fill="#DAB8BD"/>
<path d="M53.1496 121.542C49.4422 120.641 46.3359 118.436 44.0313 115.881C41.5764 113.376 39.2217 110.821 36.8169 108.466C31.9572 103.707 26.4462 99.4982 20.5844 95.9912C26.6967 99.1475 32.4582 103.005 37.6686 107.564C40.2738 109.869 42.7287 112.224 45.2337 114.478C47.6385 116.883 50.5443 118.586 53.6005 119.138L53.0995 121.592L53.1496 121.542Z" fill="#DAB8BD"/>
<path d="M51.5458 65.3311C48.3895 62.275 47.1871 58.3171 45.8344 54.7599C44.5318 51.2028 42.9286 47.4954 39.6721 45.291C43.1791 47.1447 45.2833 50.8521 46.9867 54.309C48.6901 57.7659 50.3434 61.3732 53.1991 63.4774L51.5458 65.3812V65.3311Z" fill="#DAB8BD"/>
<path d="M52.1477 62.1242C53.5004 60.6212 55.2539 59.8696 56.9573 59.569C58.7108 59.2183 60.4142 59.3185 62.0174 59.4688C65.2238 59.8195 68.4302 60.5209 71.5364 59.4688C68.5805 60.9718 65.1236 60.6712 61.9673 60.7714C58.8611 60.7714 55.5545 61.5731 54.1016 63.7274L52.1477 62.1742V62.1242Z" fill="#DAB8BD"/>
<path d="M56.1054 44.3889C57.7086 42.6353 59.8629 42.7355 61.3158 43.0361C63.0192 43.1864 64.372 43.5371 65.9251 43.6373C68.9311 43.8878 71.9872 43.7876 75.0433 43.2365C72.1375 44.1884 69.0313 44.7395 65.9251 44.8898C64.372 44.99 62.7186 44.8898 61.3158 44.8898C59.8629 44.7896 58.5102 45.1403 58.1094 45.9419L56.1555 44.3889H56.1054Z" fill="#DAB8BD"/>
<path d="M50.9451 83.2671C52.3479 83.7681 53.9511 83.7681 55.5543 83.5176C57.1575 83.217 58.8108 82.5156 60.4641 82.0647C63.7206 80.9625 67.1775 80.0106 70.6345 79.71C67.2276 80.4615 64.0714 81.714 60.8649 83.2671C59.2116 83.9685 57.7587 84.8202 56.0052 85.3713C54.2517 85.8723 52.2978 86.1729 50.2938 85.722L50.9451 83.3172V83.2671Z" fill="#DAB8BD"/>
<path d="M50.644 85.7721C48.0388 84.5697 46.0348 82.5657 44.3815 80.5617L39.7222 74.3993C36.5157 70.4414 32.6079 67.0847 28.149 64.4795C32.8083 66.734 37.0669 69.7901 40.6741 73.5978L45.7843 79.3593C47.4877 81.213 49.4416 82.7661 51.5959 83.5176L50.644 85.8222V85.7721Z" fill="#DAB8BD"/>
<path d="M53.5 118.837C57.508 113.677 63.4199 111.022 69.1313 109.068C74.8928 107.114 80.7545 105.711 86.015 102.705C81.005 106.112 75.0932 107.916 69.5822 110.27C64.1213 112.575 58.7105 115.581 55.5542 120.34L53.5 118.887V118.837Z" fill="#DAB8BD"/>
</svg>
