<svg width="456" height="341" viewBox="0 0 456 341" fill="none" xmlns="http://www.w3.org/2000/svg">
<path d="M331.376 327.728C336.474 335.539 342.92 343.275 350.483 349.321C357.879 355.277 367.279 359.839 377.458 360.279L377.462 360.28C382.339 360.477 387.578 359.515 391.821 357.41C396.08 355.295 399.396 351.988 400.18 347.541C400.302 346.881 400.385 346.117 400.467 345.346C400.517 344.887 400.566 344.426 400.625 343.983C400.79 342.734 401.04 341.465 401.558 340.225C402.555 337.841 404.911 335.928 407.055 334.443C411.898 331.605 414.787 327.602 414.997 322.598C415.292 317.673 412.995 313.474 409.51 310.055C406.033 306.642 401.331 303.961 396.667 302.03C387.312 297.943 377.165 295.521 366.179 294.514L366.179 294.514L366.17 294.513C360.127 294.004 353.734 294.292 347.585 295.643C353.286 293.451 359.341 291.843 365.786 291.133L365.8 291.131L365.813 291.13C377.423 289.61 389.978 291.843 399.74 297.611L399.755 297.619L399.769 297.627C409.622 303.04 417.277 312.746 415.77 322.778L415.766 322.806L415.763 322.833C415.368 327.491 412.198 332.407 407.703 335.175C405.045 336.812 403.777 338.673 403.248 340.821C402.798 342.649 402.891 344.692 402.99 346.874C403.002 347.136 403.014 347.4 403.025 347.666L403.025 347.67C403.284 353.223 399.921 357.925 394.887 361.244C389.835 364.575 383.18 366.447 377.127 366.297L377.097 366.296L377.067 366.297C364.321 366.555 352.251 361.567 343.85 354.311C335.506 346.86 329.454 338.431 326.439 328.642C324.718 321.673 324.826 314.108 328.231 308.135C327.51 310.068 327.209 312.114 327.225 314.16C327.264 318.952 329.03 323.87 331.361 327.704L331.369 327.716L331.376 327.728Z" stroke="#5C032C" stroke-opacity="0.17" stroke-width="2.13187"/>
<path d="M359.1 377.923L359.013 377.957L358.933 378.003C358.161 378.439 357.254 378.813 356.264 379.221C355.932 379.358 355.59 379.499 355.242 379.647C353.99 380.179 352.585 380.832 351.675 381.75C351.141 382.167 350.627 382.631 350.091 383.116C348.506 384.548 346.73 386.154 343.684 387.206C335.339 389.569 328.716 386.195 323.422 382.874L323.42 382.873C318.212 379.618 313.729 376.006 309.07 372.252C308.879 372.098 308.688 371.944 308.497 371.79C303.774 367.752 299.472 363.768 296.92 357.561C294.722 351.569 295.503 344.819 298.484 339.513C304.365 329.428 313.752 322.477 323.834 316.508C321.731 319.661 319.49 322.686 317.281 325.668C316.518 326.698 315.759 327.723 315.01 328.747C311.68 333.301 308.571 337.811 306.436 342.462L306.434 342.466C304.368 347.018 303.109 351.558 304.06 356.043L304.066 356.071L304.074 356.097C305.262 360.29 308.234 365.226 310.948 369.735C311.023 369.858 311.097 369.982 311.171 370.105L311.182 370.123L311.194 370.141C314.31 374.787 318.359 379.384 323.887 382.21C326.596 383.694 329.908 384.344 332.935 384.365C335.918 384.386 338.842 383.795 340.694 382.583C341.48 382.1 342.321 381.366 343.218 380.584C343.259 380.548 343.3 380.512 343.341 380.476C344.325 379.618 345.462 378.632 346.873 377.601L346.891 377.588L346.908 377.574C348.374 376.419 349.874 375.785 351.467 375.288C352.133 375.08 352.8 374.9 353.499 374.711C353.651 374.67 353.805 374.629 353.961 374.586C354.809 374.356 355.696 374.106 356.596 373.788C357.113 373.633 357.601 373.499 358.08 373.368C358.25 373.321 358.419 373.275 358.588 373.228C359.226 373.051 359.862 372.865 360.454 372.641C361.657 372.184 362.744 371.54 363.512 370.383C364.238 369.46 365.163 368.282 365.819 367.069C366.199 366.366 366.524 365.589 366.646 364.798C367.572 366.448 367.208 368.31 366.818 370.301C366.749 370.654 366.679 371.012 366.616 371.373C366.152 372.873 364.999 374.232 363.557 375.375C362.104 376.528 360.43 377.403 359.1 377.923Z" stroke="#5C032C" stroke-opacity="0.17" stroke-width="2.13187"/>
<path d="M352.168 276.385C341.864 279.191 336.94 287.879 334.02 297.831C332.854 293.107 332.607 288.262 334.387 283.368L334.392 283.354L334.397 283.34C336.256 277.689 341.919 272.278 348.303 269.863L348.324 269.855L348.345 269.846C354.426 267.306 360.476 266.715 366.848 266.094C367.207 266.058 367.568 266.023 367.93 265.988C374.638 265.327 381.165 264.818 387.563 265.065C394.205 265.411 400.938 266.088 407.034 268.431L407.053 268.439L407.073 268.445C412.973 270.474 419.612 275.005 419.803 281.763C419.508 284.918 419.903 287.134 420.51 289.354C420.68 289.979 420.864 290.593 421.053 291.223C421.54 292.851 422.059 294.585 422.465 296.869L422.47 296.897L422.476 296.923C422.796 298.212 422.777 299.922 422.367 301.588C421.955 303.262 421.179 304.762 420.114 305.727C418.11 307.503 416.108 309.137 413.588 309.634C414.319 309.036 414.917 308.337 415.416 307.623C416.212 306.484 416.804 305.234 417.284 304.152C418.492 301.969 417.902 300.347 417.304 298.705C417.181 298.369 417.059 298.032 416.951 297.689L416.93 297.623L416.898 297.56C415.887 295.569 414.54 292.639 413.688 289.643C412.824 286.598 412.532 283.684 413.395 281.623L413.408 281.591L413.418 281.559C414.881 277.198 412.286 271.806 406.507 269.073L406.505 269.072C400.91 266.44 393.913 266.773 387.809 267.829L387.757 267.838L387.707 267.851C386.563 268.141 385.429 268.434 384.303 268.724C379.289 270.017 374.431 271.27 369.564 272.112C363.545 273.153 357.212 274.496 352.168 276.385Z" stroke="#5C032C" stroke-opacity="0.17" stroke-width="2.13187"/>
<path d="M400.095 258.679L400.09 258.67L400.085 258.661C399.486 257.547 398.879 256.826 398.067 256.252C397.408 255.786 396.628 255.435 395.757 255.042C395.622 254.982 395.485 254.92 395.346 254.857L395.286 254.829L395.221 254.809C393.109 254.129 390.518 252.669 388.155 250.889C385.792 249.109 383.765 247.09 382.712 245.358L382.694 245.328L382.674 245.3C382.438 244.973 382.201 244.64 381.963 244.304C380.862 242.751 379.719 241.139 378.363 239.834C376.677 238.213 374.571 236.969 371.625 236.764C366.249 236.322 360.705 239.082 356.987 242.182L356.958 242.206L356.932 242.232C350.444 248.376 346.495 256.078 342.571 263.729C342.291 264.275 342.01 264.822 341.729 265.367C337.665 272.657 335.532 280.597 334.536 289.594C329.811 281.519 329.749 271.601 333.558 262.697C338.131 254.054 344.17 244.931 354.796 240.201C360.252 237.907 365.54 236.393 371.542 236.08L371.542 236.08L371.549 236.08C377.563 235.735 383.682 239.025 387.554 242.168C388.545 243.039 389.402 243.818 390.196 244.541C392.881 246.981 394.86 248.78 398.892 251.32L398.919 251.337L398.947 251.352C400.048 251.957 401.202 253.133 402.052 254.503C402.909 255.884 403.349 257.288 403.243 258.296L403.238 258.344L403.239 258.392C403.249 259.647 403.226 260.967 402.857 262.176C402.639 262.891 402.307 263.542 401.802 264.103C401.898 263.229 401.718 262.376 401.456 261.61C401.156 260.732 400.706 259.864 400.324 259.125C400.244 258.97 400.167 258.821 400.095 258.679Z" stroke="#5C032C" stroke-opacity="0.17" stroke-width="2.13187"/>
<path d="M304.882 309.73C306.393 313.893 308.857 318.06 311.359 322.286C306.718 319.428 302.61 315.84 299.514 311.38L299.508 311.371L299.501 311.362C295.585 306.018 294.155 299.05 296.242 292.457C298.712 285.721 304.759 280.719 311.588 278.095C317.154 275.956 323.086 275.178 328.98 275.342C323.78 277.475 318.798 279.55 314.659 282.222L314.643 282.232L314.628 282.242C309.718 285.62 305.468 289.613 304.071 294.414C302.226 299.139 303.159 304.6 304.875 309.71L304.878 309.72L304.882 309.73Z" stroke="#5C032C" stroke-opacity="0.17" stroke-width="2.13187"/>
<path d="M328.683 308.128L334.086 303.587C341.665 311.192 350.985 317.768 361.414 323.058C349.805 319.715 338.652 314.693 328.683 308.128Z" stroke="#5C032C" stroke-opacity="0.17" stroke-width="2.13187"/>
<path d="M346.633 291.032C343.113 292.465 339.425 293.842 335.108 294.991L334.081 288.607C337.377 288.351 341.019 287.676 344.727 286.88C346.529 286.494 348.326 286.084 350.117 285.675C352.513 285.128 354.897 284.584 357.267 284.102C357.805 284.009 358.345 283.914 358.888 283.818C362.58 283.169 366.369 282.503 370.107 282.308C370.638 282.281 371.167 282.263 371.693 282.256C367.499 283.024 363.448 284.477 359.694 285.823C359.186 286.005 358.683 286.186 358.185 286.362L358.185 286.362L358.178 286.365C355.406 287.367 352.779 288.468 350.162 289.566C348.988 290.059 347.816 290.55 346.633 291.032Z" stroke="#5C032C" stroke-opacity="0.17" stroke-width="2.13187"/>
<path d="M342.781 275.108L337.233 270.673C344.306 266.256 351.99 262.76 359.888 260.304C353.263 264.593 347.474 269.592 342.781 275.108Z" stroke="#5C032C" stroke-opacity="0.17" stroke-width="2.13187"/>
<path d="M322.417 342.922C324.28 345.856 326.385 348.688 328.549 351.497C325.61 349.138 322.698 346.727 319.941 344.091L319.927 344.077L319.913 344.065C317.467 341.906 314.735 338.805 313.908 335.462L313.902 335.438L313.895 335.415L312.571 331.152L312.709 330.863L315.987 324.002C318.012 325.296 318.724 326.449 318.999 327.351C319.163 327.888 319.189 328.389 319.187 328.882C319.187 328.957 319.186 329.038 319.185 329.122C319.179 329.49 319.172 329.935 319.248 330.318L319.341 334.85L319.341 334.85L319.341 334.857C319.427 337.815 320.512 340.175 322.417 342.922Z" stroke="#5C032C" stroke-opacity="0.17" stroke-width="2.13187"/>
<path d="M37.6468 157.82C38.4477 156.962 39.1678 156.044 39.81 155.086C42.6181 150.895 43.9958 145.866 44.2273 141.511L44.228 141.499L44.2283 141.487C44.4472 132.623 43.4463 123.058 40.6399 114.786C37.8219 106.48 32.2362 98.7075 23.8285 94.0885C19.7727 91.8604 14.6838 90.5169 9.76661 90.5948C4.8374 90.673 -0.0193724 92.1892 -3.38503 95.7816L-3.38505 95.7816L-3.39006 95.787C-3.93799 96.3796 -4.43361 96.9697 -4.9264 97.5563C-6.04812 98.8917 -7.15524 100.21 -8.83148 101.501C-11.0327 103.197 -14.3768 103.811 -17.025 104.27C-22.8413 104.766 -27.7936 106.934 -30.8221 111.123C-33.9583 115.289 -34.456 119.907 -33.4787 124.327C-32.5042 128.735 -30.0543 133.004 -27.1881 136.586C-21.5249 144.114 -14.0783 150.298 -5.34076 155.725L-5.32469 155.735L-5.30818 155.745C0.0536469 158.815 6.2325 161.371 12.8041 162.704C5.99977 162.303 -0.822002 161.126 -7.44237 158.826L-7.45209 158.822L-7.4619 158.819C-18.4711 155.208 -27.9733 148.154 -33.153 139.033L-33.1557 139.029C-38.3137 130.079 -39.3302 118.474 -32.2147 110.615L-32.1889 110.586L-32.1653 110.556C-29.0859 106.638 -23.3039 103.731 -17.9427 103.151C-14.6416 102.917 -12.4209 101.836 -10.6823 100.163C-9.24465 98.7801 -8.14542 96.9867 -6.99847 95.1154C-6.8273 94.8362 -6.65507 94.5552 -6.4805 94.2735C-3.31071 89.3658 2.39984 86.6974 8.74203 85.9301C15.1004 85.1609 21.9569 86.3288 27.1418 88.978L27.1624 88.9885L27.1836 88.9983C38.3702 94.1337 45.814 103.478 48.8195 113.246C51.7308 123.224 51.912 132.888 48.6181 142.647C46.3426 148.386 42.6846 153.96 37.6468 157.82Z" stroke="#5C032C" stroke-opacity="0.17" stroke-width="2.13187"/>
<path d="M37.5806 93.2072C37.0577 93.5184 36.5164 93.8737 36.0324 94.2744C36.1546 93.626 36.4411 93.016 36.8271 92.4228C37.4103 91.5263 38.1526 90.7512 38.9232 89.9465C39.24 89.6157 39.5616 89.2799 39.8789 88.9286C41.2003 87.8105 42.9907 87.1033 44.892 86.7168C46.8148 86.3259 48.7634 86.2815 50.2557 86.429L50.3712 86.4405L50.4885 86.4313C51.497 86.3523 52.6698 86.4267 53.9351 86.5069C54.1788 86.5224 54.4259 86.5381 54.676 86.5529C55.4217 86.5972 56.1864 86.6322 56.9003 86.6152C57.5872 86.5988 58.2996 86.5334 58.9433 86.3467C59.4601 86.2292 60.0023 86.085 60.5757 85.9326C62.8611 85.3248 65.6426 84.585 69.295 84.8785C77.9058 86.3336 81.6092 92.0067 84.2145 97.1377C86.8109 102.251 88.7343 107.618 90.4976 112.932C92.1415 118.372 93.445 123.707 92.0033 130.108C90.408 136.335 85.5677 141.622 79.9353 145.139C68.8656 151.407 56.4876 153.622 44.1083 154.525C47.7133 152.721 51.3661 151.077 54.9659 149.457C56.2949 148.859 57.6167 148.264 58.9262 147.666C64.4942 145.121 69.8257 142.516 74.3284 139.37C78.7101 136.34 82.6488 133.043 84.576 128.57L84.5889 128.54L84.5996 128.509C86.0521 124.378 86.584 118.535 86.9434 113.366L86.9453 113.338L86.9454 113.309C86.9601 107.874 86.2264 102.306 83.0169 97.5058C81.5912 95.0482 79.1462 93.1124 76.5478 91.8487C73.9806 90.6002 71.1141 89.9369 68.7598 90.1856C67.7552 90.2273 66.5898 90.5237 65.3893 90.8291C65.3228 90.846 65.2563 90.8629 65.1896 90.8799C63.8386 91.2228 62.2793 91.6121 60.4056 91.8762L60.3663 91.8818L60.3274 91.8896C58.3116 92.2955 56.6156 92.2218 54.9436 91.9917C54.2455 91.8957 53.5652 91.7746 52.8541 91.6481C52.6988 91.6204 52.542 91.5925 52.3833 91.5646C51.5197 91.4125 50.6132 91.2617 49.6539 91.1656C49.1605 91.0916 48.6657 91.0064 48.1794 90.9227C47.2736 90.7669 46.3973 90.6161 45.6148 90.5518C44.2995 90.4438 42.9948 90.5414 41.5871 91.1693L41.5678 91.1779L41.5489 91.1871C41.3284 91.2941 41.0946 91.4059 40.8515 91.522C39.819 92.0155 38.6206 92.5884 37.5806 93.2072Z" stroke="#5C032C" stroke-opacity="0.17" stroke-width="2.13187"/>
<path d="M-47.5264 131.521L-47.5553 131.605L-47.5674 131.69C-47.8634 133.784 -48.4173 136.878 -49.4694 139.827C-50.5384 142.824 -52.0486 145.454 -54.1025 146.838L-54.1456 146.867L-54.1856 146.899C-58.0428 150.002 -59.0633 155.975 -55.6432 160.744C-52.4174 165.386 -46.2258 168.082 -40.2197 169.703L-40.188 169.711L-40.1556 169.718C-38.0554 170.165 -35.9529 170.574 -33.8631 170.981C-29.7326 171.786 -25.6518 172.58 -21.7365 173.637C-15.8435 175.227 -9.53511 176.807 -3.93943 177.132C6.65549 178.998 15.982 173.447 24.6668 165.976C22.9159 170.485 20.0039 174.9 15.5971 178.634C10.6966 182.786 2.51779 185.067 -4.67108 184.506L-4.69158 184.505L-4.71217 184.504C-11.8994 184.171 -17.8383 181.926 -23.9708 179.597L-23.9853 179.591L-24 179.586C-30.1825 177.425 -36.1257 174.982 -41.5498 172.208C-47.0614 169.179 -52.414 165.821 -56.472 161.175L-56.4837 161.161L-56.4959 161.148C-60.4427 156.963 -63.3863 150.225 -59.6805 144.309C-57.5764 141.623 -56.576 139.527 -55.7654 137.36C-55.5113 136.68 -55.2807 136.01 -55.0436 135.321C-54.5161 133.788 -53.956 132.16 -53.0317 130.123L-53.0127 130.081L-52.9981 130.038C-52.5865 128.835 -51.5681 127.371 -50.1888 126.095C-48.8073 124.817 -47.1793 123.834 -45.6323 123.461L-45.6323 123.461L-45.6251 123.459C-42.8855 122.782 -40.1514 122.162 -37.6445 122.752C-38.5727 122.958 -39.4655 123.292 -40.2879 123.67C-41.6828 124.311 -42.9715 125.125 -44.006 125.807C-45.3787 126.635 -46.0934 127.532 -46.5486 128.543C-46.7648 129.023 -46.9182 129.519 -47.0595 130.001C-47.0858 130.091 -47.1118 130.18 -47.1377 130.27C-47.2553 130.675 -47.3732 131.081 -47.5264 131.521Z" stroke="#5C032C" stroke-opacity="0.17" stroke-width="2.13187"/>
<path d="M-59.2227 172.114C-57.9996 170.306 -56.7902 168.634 -54.9655 167.855C-55.3098 168.407 -55.5405 168.993 -55.7057 169.558C-55.9656 170.447 -56.0913 171.399 -56.1988 172.213C-56.2226 172.393 -56.2455 172.567 -56.2688 172.731L-55.1341 172.787L-56.2688 172.731C-56.4484 174.002 -56.342 174.907 -55.9398 175.758C-55.6529 176.366 -55.2065 176.941 -54.7316 177.553C-54.6033 177.719 -54.473 177.887 -54.3431 178.059L-54.3056 178.109L-54.2608 178.153C-52.7916 179.63 -51.4458 181.985 -50.4692 184.525C-49.4944 187.061 -48.9309 189.667 -48.9424 191.596L-48.9424 191.596L-48.9423 191.608C-48.9403 191.867 -48.9393 192.128 -48.9384 192.391C-48.9314 194.302 -48.9241 196.316 -48.4883 198.147C-47.9812 200.278 -46.8791 202.248 -44.4932 203.676L-44.4763 203.686L-44.4589 203.696C-39.9607 206.167 -33.7375 206.248 -28.5939 204.966L-28.578 204.962L-28.5621 204.958C-19.5243 202.472 -11.7987 197.718 -4.13136 193C-3.29177 192.483 -2.45288 191.967 -1.61304 191.454C6.23302 186.878 12.9203 180.95 18.9277 173.62C18.4251 182.373 12.5818 191.234 3.90483 197.351C-5.15223 202.903 -15.7231 208.332 -28.105 207.941C-34.2292 207.642 -39.8157 206.776 -44.9958 204.531L-45.0075 204.526L-45.0194 204.521C-50.4359 202.317 -53.8041 196.977 -55.1867 192.584C-55.4697 191.561 -55.7092 190.639 -55.9329 189.779C-56.8171 186.378 -57.4532 183.931 -59.5434 179.915L-59.5621 179.879L-59.5843 179.844C-60.1796 178.923 -60.4734 177.45 -60.3979 175.907C-60.3218 174.353 -59.8833 172.959 -59.2674 172.175L-59.2438 172.145L-59.2227 172.114Z" stroke="#5C032C" stroke-opacity="0.17" stroke-width="2.13187"/>
<path d="M58.8936 155.004C58.8961 154.973 58.8987 154.942 58.9012 154.91C61.1013 159.191 62.3746 163.916 62.4575 168.842C62.5628 175.091 59.9036 181.773 53.976 186.616C47.8709 191.368 39.4499 193.319 32.0859 192.666L32.0859 192.666L32.0737 192.665C25.9119 192.177 20.3777 190.494 15.5572 187.966C21.2883 188.33 26.8705 188.563 31.9776 187.986L31.99 187.984L32.0024 187.983C38.1767 187.168 44.3259 185.36 48.4273 181.843C52.663 178.451 55.2851 173.416 57.0444 168.308L57.0552 168.277L57.0636 168.246C58.1559 164.138 58.5212 159.615 58.8936 155.004Z" stroke="#5C032C" stroke-opacity="0.17" stroke-width="2.13187"/>
<path d="M35.2255 159.634L27.6858 161.409C25.6354 151.852 21.6906 142.306 15.9031 133.47C23.8223 141.146 30.387 149.964 35.2255 159.634Z" stroke="#5C032C" stroke-opacity="0.17" stroke-width="2.13187"/>
<path d="M18.6118 174.34C15.5926 173.194 12.1014 172.281 8.47611 171.439C6.84647 171.06 5.19996 170.697 3.54992 170.334C1.00778 169.774 -1.54272 169.212 -4.05275 168.587C-4.58354 168.435 -5.11948 168.283 -5.65897 168.13C-9.16307 167.137 -12.8167 166.101 -16.1781 164.694C-16.3912 164.604 -16.6028 164.514 -16.8128 164.422C-16.6044 164.471 -16.3955 164.519 -16.1861 164.566C-12.9427 165.286 -9.51138 165.662 -6.23695 166.021C-5.35215 166.117 -4.4788 166.213 -3.62372 166.314L-3.60592 166.316L-3.58801 166.318C-0.798074 166.568 1.95952 166.699 4.70462 166.83C6.19459 166.9 7.68087 166.971 9.16665 167.061C13.0663 167.295 17.0629 167.663 21.4018 168.5L18.6118 174.34Z" stroke="#5C032C" stroke-opacity="0.17" stroke-width="2.13187"/>
<path d="M7.2682 180.193L9.37732 186.457C-0.22447 187.528 -10.0894 188.311 -19.5866 187.573C-10.2178 186.11 -1.28835 183.243 7.2682 180.193Z" stroke="#5C032C" stroke-opacity="0.17" stroke-width="2.13187"/>
<path d="M64.1342 141.85L62.5639 146.198L62.372 146.323L55.4546 150.824C54.6186 149.087 54.6965 147.89 54.9689 147.032C55.1419 146.487 55.41 146.024 55.695 145.566C55.7251 145.518 55.757 145.467 55.7903 145.415C56.0028 145.078 56.2682 144.658 56.4143 144.243L58.9278 140.437C60.8314 137.991 61.0831 135.169 61.1712 131.939C61.3319 128.644 61.1723 125.279 60.939 121.919C62.0683 125.205 63.1531 128.542 64.0858 131.982L64.0885 131.992L64.0914 132.002C64.9479 134.878 65.286 138.62 64.1348 141.849C64.1346 141.849 64.1344 141.85 64.1342 141.85Z" stroke="#5C032C" stroke-opacity="0.17" stroke-width="2.13187"/>
<path d="M52.0129 305.578C60.3746 268.531 63.8263 230.91 59.5498 193.007C69.6262 230.194 67.9876 269.568 58.067 306.736C46.1704 346.74 27.4881 384.687 8.53291 422.374C-29.5065 495.143 -80.7943 561.811 -132.693 627.916C-112.262 593.673 -89.5791 560.575 -66.6392 527.628C-63.5465 523.187 -60.4489 518.747 -57.3516 514.308C-35.8564 483.503 -14.3718 452.712 5.4369 421.16C28.7859 385.119 44.2642 345.804 52.0129 305.578Z" stroke="#5C032C" stroke-opacity="0.17" stroke-width="2.13187"/>
<path d="M219.388 299.323C243.614 293.96 269.089 292.035 294.037 293.958C269.32 296.993 245.171 300.386 220.922 304.463C194.832 307.599 168.929 313.584 145.747 324.65C100.933 345.264 60.53 370.044 22.137 398.6C52.2665 363.608 96.2062 337.377 144.289 322.068C153.873 319.222 163.286 316.247 172.677 313.279C188.087 308.41 203.437 303.559 219.388 299.323Z" stroke="#5C032C" stroke-opacity="0.17" stroke-width="2.13187"/>
<path d="M61.7882 279.937C77.91 268.89 94.3732 257.408 104.195 242.07C115.437 224.61 117.054 203.935 127.549 186.479C109.285 195.52 92.475 206.812 80.6933 221.488C68.9116 236.163 62.1579 254.223 61.902 279.793L61.7882 279.937Z" stroke="#5C032C" stroke-opacity="0.17" stroke-width="0.63956" stroke-miterlimit="10"/>
<path d="M67.3301 276.082L63.7292 275.002C69.1862 264.258 75.728 253.958 83.2454 244.239C76.8475 254.481 71.5108 265.16 67.3301 276.082Z" stroke="#5C032C" stroke-opacity="0.17" stroke-width="2.13187"/>
<path d="M51.252 306.909C51.5482 293.595 51.8987 279.896 44.7375 268.497C36.5864 255.519 19.3303 246.868 10.5508 234.374C6.92426 248.139 6.45988 261.983 11.904 274.304C17.3481 286.625 28.9284 297.133 51.4252 307.004L51.252 306.909Z" stroke="#5C032C" stroke-opacity="0.17" stroke-width="0.63956" stroke-miterlimit="10"/>
<path d="M51.252 306.909C51.5482 293.595 51.8987 279.896 44.7375 268.497C36.5864 255.519 19.3303 246.868 10.5508 234.374C6.92426 248.139 6.45988 261.983 11.904 274.304C17.3481 286.625 28.9284 297.133 51.4252 307.004L51.252 306.909Z" stroke="#5C032C" stroke-opacity="0.17" stroke-width="0.63956" stroke-miterlimit="10"/>
<path d="M52.0565 301.163L49.1423 303.168C43.2667 296.226 38.4017 288.706 34.6142 280.876C39.5676 288.215 45.478 295.045 52.0565 301.163Z" stroke="#5C032C" stroke-opacity="0.17" stroke-width="2.13187"/>
<path d="M202.853 309.955C210.247 321.689 218.046 333.852 230.977 340.749C245.7 348.837 265.88 349.349 280.711 356.668C275.891 343.238 268.205 330.929 256.353 322.345C244.5 313.76 228.14 309.334 202.853 309.955Z" stroke="#5C032C" stroke-opacity="0.17" stroke-width="0.63956" stroke-miterlimit="10"/>
<path d="M202.853 309.955C210.247 321.689 218.046 333.852 230.977 340.749C245.7 348.837 265.88 349.349 280.711 356.668C275.891 343.238 268.205 330.929 256.353 322.345C244.5 313.76 228.14 309.334 202.853 309.955Z" stroke="#5C032C" stroke-opacity="0.17" stroke-width="0.63956" stroke-miterlimit="10"/>
<path d="M205.3 314.999L206.537 312.117C216.531 315.739 226.041 320.179 234.841 325.399C225.435 321.062 215.528 317.606 205.3 314.999Z" stroke="#5C032C" stroke-opacity="0.17" stroke-width="2.13187"/>
<path d="M-27.4005 483.782L-35.3255 483.058C-27.8473 432.916 -34.3681 380.537 -56.3023 332.765C-47.44 349.866 -40.593 367.749 -35.5796 385.955C-26.933 417.908 -24.0013 450.964 -27.4005 483.782Z" stroke="#5C032C" stroke-opacity="0.17" stroke-width="2.13187"/>
<path d="M108.393 336.434C119.467 326.76 130.655 316.942 134.752 304.471C139.18 290.317 133.647 274.008 137.387 260.098C123.542 268.249 111.893 278.022 105.896 290.07C99.8993 302.119 100.014 316.488 108.393 336.434Z" stroke="#5C032C" stroke-opacity="0.17" stroke-width="0.63956" stroke-miterlimit="10"/>
<path d="M108.393 336.434C119.467 326.76 130.655 316.942 134.752 304.471C139.18 290.317 133.647 274.008 137.387 260.098C123.542 268.249 111.893 278.022 105.896 290.07C99.8993 302.119 100.014 316.488 108.393 336.434Z" stroke="#5C032C" stroke-opacity="0.17" stroke-width="0.63956" stroke-miterlimit="10"/>
<path d="M111.78 333.107L108.077 332.927C109.391 324.589 111.855 316.374 115.309 308.555C113.055 316.623 111.909 324.883 111.78 333.107Z" stroke="#5C032C" stroke-opacity="0.17" stroke-width="2.13187"/>
<path d="M133.385 327.356C143.366 324.753 153.634 322.101 159.329 315.485C165.881 308.095 165.959 296.32 171.991 288.645C160.501 289.382 149.946 292.084 142.805 297.699C135.665 303.313 132.231 312.416 133.385 327.356Z" stroke="#5C032C" stroke-opacity="0.17" stroke-width="0.63956" stroke-miterlimit="10"/>
<path d="M133.385 327.356C143.366 324.753 153.634 322.101 159.329 315.485C165.881 308.095 165.959 296.32 171.991 288.645C160.501 289.382 149.946 292.084 142.805 297.699C135.665 303.313 132.231 312.416 133.385 327.356Z" stroke="#5C032C" stroke-opacity="0.17" stroke-width="0.63956" stroke-miterlimit="10"/>
<path d="M135.173 322.185C138.386 317.324 142.354 312.904 146.921 309.119C143.356 313.59 140.622 318.429 138.753 323.371L135.173 322.185Z" stroke="#5C032C" stroke-opacity="0.17" stroke-width="2.13187"/>
<path d="M230.265 279.816C233.937 271.673 237.662 263.146 234.841 255.376C231.723 246.406 220.687 239.307 217.055 230.677C210.681 238.786 206.842 247.458 207.941 255.526C209.04 263.594 215.31 271.393 230.265 279.816Z" stroke="#5C032C" stroke-opacity="0.17" stroke-width="0.63956" stroke-miterlimit="10"/>
<path d="M230.265 279.816C233.937 271.673 237.662 263.146 234.841 255.376C231.723 246.406 220.687 239.307 217.055 230.677C210.681 238.786 206.842 247.458 207.941 255.526C209.04 263.594 215.31 271.393 230.265 279.816Z" stroke="#5C032C" stroke-opacity="0.17" stroke-width="0.63956" stroke-miterlimit="10"/>
<path d="M229.57 273.875L226.473 275.43C223.9 270.561 222.14 265.444 221.27 260.293C223.309 265.194 226.152 269.776 229.57 273.875Z" stroke="#5C032C" stroke-opacity="0.17" stroke-width="2.13187"/>
<path d="M239.479 268.083C246.961 262.034 254.844 255.79 264.494 254.871C275.579 253.704 287.752 259.355 298.669 258.718C292.295 266.827 284.299 273.216 275.006 275.574C265.712 277.933 254.662 276.216 239.479 268.083Z" stroke="#5C032C" stroke-opacity="0.17" stroke-width="0.63956" stroke-miterlimit="10"/>
<path d="M239.479 268.083C246.961 262.034 254.844 255.79 264.494 254.871C275.579 253.704 287.752 259.355 298.669 258.718C292.295 266.827 284.299 273.216 275.006 275.574C265.712 277.933 254.662 276.216 239.479 268.083Z" stroke="#5C032C" stroke-opacity="0.17" stroke-width="0.63956" stroke-miterlimit="10"/>
<path d="M245.796 269.25L246.273 266.264C252.156 267.298 258.223 267.651 264.313 267.273C258.362 268.624 252.104 269.291 245.796 269.25Z" stroke="#5C032C" stroke-opacity="0.17" stroke-width="2.13187"/>
<path d="M260.819 226.727C267.45 229.333 274.542 231.985 281.029 230.988C288.378 229.841 294.598 224.136 301.714 222.654C295.013 218.558 288.035 215.762 281.31 215.799C274.585 215.837 267.999 218.853 260.819 226.727Z" stroke="#5C032C" stroke-opacity="0.17" stroke-width="0.63956" stroke-miterlimit="10"/>
<path d="M260.819 226.727C267.45 229.333 274.542 231.985 281.029 230.988C288.378 229.841 294.598 224.136 301.714 222.654C295.013 218.558 288.035 215.762 281.31 215.799C274.585 215.837 267.999 218.853 260.819 226.727Z" stroke="#5C032C" stroke-opacity="0.17" stroke-width="0.63956" stroke-miterlimit="10"/>
<path d="M266.374 226.842L265.004 224.277C268.931 223.437 272.897 222.989 276.809 222.949C273.069 223.905 269.559 225.243 266.374 226.842Z" stroke="#5C032C" stroke-opacity="0.17" stroke-width="2.13187"/>
<path d="M262.688 215.521C258.679 210.209 254.67 204.897 254.972 199.464C255.382 193.262 261.256 187.366 261.953 181.115C267.684 186.129 271.98 191.392 272.772 197.01C273.564 202.629 270.966 208.459 262.688 215.521Z" stroke="#5C032C" stroke-opacity="0.17" stroke-width="0.63956" stroke-miterlimit="10"/>
<path d="M262.688 215.521C258.679 210.209 254.67 204.897 254.972 199.464C255.382 193.262 261.256 187.366 261.953 181.115C267.684 186.129 271.98 191.392 272.772 197.01C273.564 202.629 270.966 208.459 262.688 215.521Z" stroke="#5C032C" stroke-opacity="0.17" stroke-width="0.63956" stroke-miterlimit="10"/>
<path d="M261.682 210.934C263.228 208.066 264.339 204.977 264.911 201.747C265.445 205.008 265.467 208.406 264.92 211.807L261.682 210.934Z" stroke="#5C032C" stroke-opacity="0.17" stroke-width="2.13187"/>
<path d="M248.222 252.39C243.547 270.027 238.592 288.721 223.428 303.488L217.802 298.991C232.821 286.494 239.512 268.503 245.834 250.894C249.159 241.925 252.558 232.929 258.048 224.697C258.601 223.87 259.176 223.053 259.775 222.25C259.233 223.114 258.718 223.99 258.231 224.875C253.522 233.425 250.925 242.48 248.414 251.666L248.412 251.672C248.349 251.911 248.285 252.151 248.222 252.39Z" stroke="#5C032C" stroke-opacity="0.17" stroke-width="2.13187"/>
</svg>
