<svg width="389" height="165" viewBox="0 0 389 165" fill="none" xmlns="http://www.w3.org/2000/svg">
<path d="M97.3203 -10.0228C164.209 -63.6643 178 12.0886 130.102 3.34031C117.975 -0.587734 110.67 -9.51082 97.3203 -10.0228ZM97.7941 -10.1951C109.445 -13.2252 120.912 -3.67281 131.372 -1.10147C149.069 4.67292 166.02 -16.5645 145.683 -25.6647C128.932 -30.3062 111.478 -18.3407 97.8634 -10.2563L97.7941 -10.1951Z" fill="#EBCAD8"/>
<path d="M114.066 -6.60233L100.958 7.79908L100.244 5.96964C117.082 5.86138 148.344 10.3585 154.9 -9.07937L155.368 -9.12341C156.117 -3.75936 152.732 1.8116 147.999 4.88339C132.894 13.5458 114.081 8.87947 97.6375 7.65576C98.0537 7.28831 112.853 -6.26927 113.622 -7.07116L113.939 -6.73628L114.066 -6.60233Z" fill="#EBCAD8"/>
<path d="M115.179 -20.6217C109.31 -18.8837 107.782 -24.6668 106.574 -28.7659C104.802 -33.5959 101.488 -38.1714 99.0394 -42.7737C110.623 -38.6121 122.798 -35.7098 135.055 -34.6026C140.419 -34.0499 146.863 -33.836 152.274 -30.0051C157.969 -26.5474 158.427 -19.2045 156.642 -13.693L156.18 -13.7772C156.498 -27.8314 146.694 -28.7685 134.449 -30.1322C123.03 -32.1025 111.93 -35.2154 101.281 -39.465L102.825 -41.197C106.098 -35.724 108.122 -29.1487 109.708 -23.1704C110.492 -21.4022 113.054 -20.7135 115.001 -21.0791L115.179 -20.6217Z" fill="#EBCAD8"/>
<path d="M156.496 -22.0508C171.061 -23.3492 169.151 -2.23337 155.324 -8.22618L155.278 -8.67781C158.699 -10.7142 161.27 -11.6311 162.873 -14.6452C163.668 -17.4374 160.433 -20.8531 156.339 -21.5437L156.427 -21.9896L156.496 -22.0508Z" fill="#EBCAD8"/>
<path d="M165.66 -15.8737C176.28 -16.7642 187.344 -17.1859 197.786 -14.2299C200.28 -13.4799 206.395 -9.04055 205.41 -6.44934C199.259 -10.1194 193.018 -10.3889 186.467 -12.5988C179.961 -14.357 171.571 -14.2053 165.73 -15.9349L165.66 -15.8737Z" fill="#EBCAD8"/>
<path d="M307.854 103.065C279.551 73.4501 208.477 -0.921149 181.195 -29.5923C168.267 -43.5117 149.354 -60.3874 136.761 -70.0527C130.256 -71.8109 123.623 -73.7032 117.391 -77.0556C98.7923 -86.3377 95.2427 -110.259 77.3891 -119.83L58.9805 -128.911L78.8952 -123.619C108.81 -117.317 119.587 -87.1103 140.739 -69.7525C118.548 -83.3651 107.022 -114.632 77.8509 -119.746L79.357 -123.535C92.3126 -117.387 98.2896 -104.217 105.985 -93.6715C113.437 -82.1725 125.938 -77.7144 138.804 -73.9472C167.741 -52.2707 200.536 -13.3405 225.407 12.7856C224.997 13.0248 309.598 102.755 307.86 102.936L307.854 103.065Z" fill="#EBCAD8"/>
<path d="M256.905 49.6688C219.068 11.87 200.006 -42.0128 205.356 -94.3279L208.338 -82.5722C215.333 -56.8966 238.644 -38.739 248.336 -13.8463C259.102 10.8359 263.405 37.1662 270.868 62.7978C265.05 51.9475 261.933 37.3596 257.641 25.1619C250.172 -0.341425 240.248 -24.5376 223.535 -45.8149C215.858 -56.7454 208.077 -68.3228 204.907 -81.7568L208.447 -82.0536C204.898 -34.1574 225.335 14.4531 257.038 49.6745L256.905 49.6688Z" fill="#EBCAD8"/>
<path d="M262.516 54.7933C250.573 42.5866 233.869 36.9193 218.42 30.0214C202.929 24.0211 189.567 10.8538 172.435 10.1143L173.495 7.33362C191.04 19.2682 203.691 37.7365 220.78 49.4587C229.878 55.5686 240.221 54.923 251.006 56.2236C262.443 57.8093 272.13 64.1373 279.841 71.472L278.453 72.6969C273.345 66.6308 267.896 60.7427 262.585 54.7321L262.516 54.7933ZM262.863 54.4871C268.52 60.1915 274.039 66.0184 279.835 71.6002L278.447 72.8251C270.302 66.2425 260.544 61.4531 250.411 60.4376C233.96 60.8195 216.216 56.0708 205.648 42.8957C195.118 31.7778 183.661 19.1424 171.385 9.812L167.531 6.81921C187.719 6.21319 202.223 20.586 219.092 28.4445C234.245 35.972 250.648 42.3972 262.73 54.4814L262.863 54.4871Z" fill="#EBCAD8"/>
</svg>
