<svg width="810" height="530" viewBox="0 0 810 530" fill="none" xmlns="http://www.w3.org/2000/svg">
<path d="M681.428 21.4182C686.526 30.4376 692.972 39.3707 700.536 46.3542C707.936 53.2351 717.339 58.5027 727.516 59.0116L727.519 59.0117C732.394 59.2401 737.617 58.1284 741.835 55.7109C746.066 53.286 749.341 49.5072 750.116 44.4285C750.238 43.6697 750.319 42.7953 750.402 41.9089C750.451 41.3778 750.501 40.8424 750.56 40.3251C750.726 38.8794 750.977 37.4008 751.501 35.9533C752.516 33.1509 754.909 30.9158 757.056 29.1984C761.863 25.948 764.724 21.3718 764.932 15.6384C765.52 4.319 755.842 -3.66591 746.602 -8.08255C737.245 -12.8032 727.097 -15.5999 716.113 -16.7628L716.113 -16.7628L716.103 -16.7637C709.84 -17.3732 703.21 -16.993 696.87 -15.2874C702.794 -17.9924 709.104 -19.9797 715.837 -20.8363L715.85 -20.8379L715.863 -20.8399C727.486 -22.5971 740.04 -20.0146 749.795 -13.3586L749.809 -13.3486L749.824 -13.339C759.66 -7.09923 767.34 4.10993 765.826 15.746L765.823 15.7745L765.82 15.8031C765.422 21.2199 762.23 26.9448 757.692 30.1707C755.068 32.0369 753.824 34.1481 753.303 36.5915C752.857 38.6858 752.948 41.0301 753.047 43.5533C753.059 43.8554 753.071 44.1601 753.082 44.4672L753.082 44.4714C753.343 50.9336 749.949 56.4122 744.88 60.2709C739.799 64.1393 733.122 66.3034 727.062 66.1297L727.033 66.1289L727.004 66.1295C714.252 66.4277 702.187 60.6678 693.79 52.2931C685.448 43.6909 679.393 33.9557 676.375 22.641C674.609 14.3816 674.76 5.34893 678.465 -1.67911C677.617 0.69194 677.265 3.23091 677.283 5.77869C677.321 11.2941 679.083 16.9643 681.414 21.3914L681.421 21.4049L681.428 21.4182Z" stroke="#5C032C" stroke-opacity="0.17" stroke-width="2.13187"/>
<path d="M709.071 79.5477L708.993 79.583L708.921 79.6297C708.141 80.1392 707.222 80.5765 706.23 81.0488C705.899 81.2063 705.56 81.3676 705.216 81.5368C703.955 82.1555 702.575 82.9 701.69 83.9345C701.165 84.4072 700.656 84.9392 700.121 85.497C698.532 87.1565 696.724 89.0436 693.647 90.2705C685.274 93.0099 678.649 89.1036 673.364 85.2747L673.362 85.2736C668.154 81.5153 663.672 77.3451 659.013 73.0099C658.822 72.8327 658.632 72.6552 658.44 72.4775C653.72 67.8155 649.416 63.2142 646.861 56.0409C644.66 49.1071 645.438 41.281 648.438 35.1142C654.362 23.3819 663.832 15.3163 673.969 8.39988C671.835 12.103 669.558 15.6532 667.316 19.1485C666.554 20.3375 665.795 21.5201 665.048 22.7002C661.717 27.958 658.617 33.1544 656.487 38.5103L656.486 38.5141C654.426 43.7563 653.174 48.974 654.121 54.1293L654.126 54.1587L654.133 54.1878C655.32 59.0233 658.29 64.7206 661.006 69.9299C661.08 70.0717 661.154 70.213 661.227 70.354L661.238 70.3748L661.25 70.3951C664.365 75.7576 668.414 81.069 673.946 84.3342C676.66 86.0506 679.973 86.8008 682.996 86.8252C685.982 86.8493 688.882 86.1637 690.699 84.7892C691.474 84.2398 692.307 83.4005 693.209 82.4918C693.248 82.4521 693.288 82.4123 693.327 82.3724C694.311 81.3819 695.452 80.2389 696.87 79.0423L696.885 79.0293L696.9 79.0157C698.387 77.6626 699.905 76.9242 701.505 76.3474C702.173 76.1065 702.842 75.8981 703.541 75.6802C703.693 75.6328 703.847 75.5849 704.003 75.5361C704.851 75.27 705.736 74.9821 706.632 74.6163C707.152 74.4359 707.642 74.2807 708.123 74.1285C708.292 74.0748 708.46 74.0215 708.629 73.9676C709.267 73.7628 709.898 73.5502 710.484 73.2932C711.676 72.7708 712.731 72.0437 713.474 70.7478C714.202 69.679 715.121 68.3277 715.771 66.9386C716.188 66.05 716.535 65.0623 716.617 64.0644C717.08 64.9436 717.261 65.8777 717.287 66.8509C717.321 68.0978 717.107 69.3263 716.887 70.5972C716.814 71.0166 716.74 71.4407 716.675 71.8716C716.202 73.6459 715.024 75.2442 713.565 76.5797C712.098 77.9239 710.41 78.9424 709.071 79.5477Z" stroke="#5C032C" stroke-opacity="0.17" stroke-width="2.13187"/>
<path d="M766.888 -13.1008L766.868 -13.1739L766.838 -13.2434C765.826 -15.5436 764.478 -18.9287 763.625 -22.3935C762.761 -25.9046 762.46 -29.2968 763.337 -31.7189L763.349 -31.7506L763.358 -31.783C764.8 -36.7478 762.247 -42.9704 756.443 -46.1397L756.441 -46.1408C750.841 -49.1826 743.847 -48.7959 737.755 -47.5787L737.707 -47.5691L737.66 -47.5553C736.517 -47.2204 735.384 -46.8829 734.258 -46.5477C729.244 -45.0543 724.381 -43.6061 719.51 -42.6329C713.489 -41.4299 707.162 -39.88 702.128 -37.7024C691.806 -34.4587 686.906 -24.3576 683.998 -12.7473C682.795 -18.2679 682.517 -23.9495 684.328 -29.6976L684.332 -29.7113L684.336 -29.7251C686.21 -36.3029 691.912 -42.5876 698.33 -45.3912L698.349 -45.3996L698.368 -45.4087C704.465 -48.3503 710.528 -49.0333 716.893 -49.7505C717.255 -49.7912 717.617 -49.8321 717.981 -49.8734C724.69 -50.6369 731.219 -51.225 737.62 -50.9389C744.265 -50.5391 750.998 -49.7575 757.091 -47.0526L757.111 -47.0438L757.131 -47.0358C763.017 -44.6989 769.672 -39.4716 769.86 -31.6288C769.566 -27.9975 769.959 -25.4462 770.565 -22.8843C770.735 -22.1658 770.919 -21.4576 771.107 -20.7304C771.595 -18.8498 772.115 -16.8421 772.522 -14.2009L772.526 -14.1716L772.532 -14.1426C772.854 -12.6429 772.836 -10.6533 772.422 -8.71356C772.007 -6.76605 771.221 -4.99985 770.125 -3.85423C768.078 -1.75784 766.011 0.186353 763.395 0.726181C764.194 0.015406 764.839 -0.841484 765.373 -1.72308C766.162 -3.02723 766.751 -4.46181 767.23 -5.7115C768.418 -8.18349 767.842 -10.0126 767.245 -11.9109C767.122 -12.3025 766.998 -12.697 766.888 -13.1008Z" stroke="#5C032C" stroke-opacity="0.17" stroke-width="2.13187"/>
<path d="M750.034 -58.1419L750.029 -58.1521L750.025 -58.1621C749.427 -59.4455 748.821 -60.2787 748.007 -60.9433C747.345 -61.4831 746.563 -61.8897 745.692 -62.3428C745.557 -62.4128 745.42 -62.484 745.281 -62.5569L745.22 -62.5891L745.155 -62.6133C743.046 -63.3969 740.457 -65.0816 738.095 -67.1363C735.733 -69.1907 733.706 -71.5212 732.652 -73.5233L732.634 -73.557L732.614 -73.5894C732.378 -73.9667 732.142 -74.3515 731.904 -74.7395C730.803 -76.5324 729.66 -78.394 728.303 -79.9006C726.615 -81.7751 724.504 -83.2141 721.559 -83.4504C716.201 -83.9592 710.688 -80.7858 706.995 -77.2299L706.97 -77.2059L706.947 -77.1805C700.479 -70.1073 696.54 -61.238 692.613 -52.3965C692.334 -51.7666 692.054 -51.1368 691.773 -50.5079C687.678 -42.0281 685.546 -32.7786 684.564 -22.2685C679.747 -31.6346 679.654 -43.1937 683.503 -53.5798C688.079 -63.568 694.139 -74.1534 704.817 -79.6414C710.285 -82.2966 715.584 -84.0483 721.596 -84.4096L721.596 -84.4096L721.602 -84.41C727.624 -84.8091 733.738 -81.0098 737.606 -77.3838C738.596 -76.3783 739.453 -75.4791 740.248 -74.6448C742.933 -71.8263 744.912 -69.7486 748.946 -66.8138L748.974 -66.7939L749.002 -66.7758C750.099 -66.0802 751.253 -64.7246 752.104 -63.1399C752.959 -61.5475 753.409 -59.9125 753.3 -58.7204L753.296 -58.6708L753.296 -58.6211C753.306 -57.1736 753.284 -55.6343 752.91 -54.2187C752.674 -53.3247 752.304 -52.5069 751.726 -51.8104C751.843 -52.8343 751.665 -53.846 751.394 -54.7623C751.094 -55.773 750.646 -56.773 750.264 -57.6257C750.184 -57.8047 750.106 -57.9772 750.034 -58.1419Z" stroke="#5C032C" stroke-opacity="0.17" stroke-width="2.13187"/>
<path d="M661.431 15.1667C661.494 15.2897 661.557 15.4127 661.62 15.5358C656.851 12.1996 652.625 7.9872 649.458 2.71813L649.452 2.70749L649.445 2.697C645.529 -3.47535 644.086 -11.5433 646.186 -19.1986C648.673 -27.0327 654.761 -32.8424 661.618 -35.8855C667.275 -38.3959 673.301 -39.2842 679.275 -39.0639C673.958 -36.5462 668.868 -34.1212 664.655 -30.9808L664.641 -30.9707L664.628 -30.9601C659.724 -27.0639 655.51 -22.4811 654.127 -16.9876C652.293 -11.5701 653.216 -5.28863 654.934 0.619252L654.937 0.629804L654.94 0.640289C656.454 5.45508 658.924 10.2748 661.431 15.1667Z" stroke="#5C032C" stroke-opacity="0.17" stroke-width="2.13187"/>
<path d="M678.569 -1.07876L684.126 -6.47346C691.909 2.54944 701.531 10.3176 712.304 16.5124C700.332 12.6492 688.823 6.72792 678.569 -1.07876Z" stroke="#5C032C" stroke-opacity="0.17" stroke-width="2.13187"/>
<path d="M696.605 -20.7928C693.078 -19.1344 689.379 -17.5396 685.05 -16.21L684 -23.7416C687.328 -24.0265 691.015 -24.8141 694.773 -25.7455C696.572 -26.1913 698.369 -26.6648 700.16 -27.1369C702.558 -27.7686 704.945 -28.3978 707.315 -28.9546C707.854 -29.0622 708.394 -29.172 708.937 -29.2822C712.63 -30.0319 716.423 -30.802 720.165 -31.0269C720.95 -31.0741 721.729 -31.0969 722.5 -31.0904C721.697 -30.9422 720.899 -30.7629 720.109 -30.5592C716.481 -29.6246 712.926 -28.1546 709.588 -26.7746C709.105 -26.5747 708.626 -26.3768 708.152 -26.1826L708.152 -26.1826L708.146 -26.1798C705.377 -25.0241 702.755 -23.7542 700.139 -22.4872C698.964 -21.9183 697.79 -21.35 696.605 -20.7928Z" stroke="#5C032C" stroke-opacity="0.17" stroke-width="2.13187"/>
<path d="M672.469 38.9638C674.473 42.6089 676.757 46.1163 679.095 49.6029C675.95 46.7001 672.828 43.7439 669.882 40.4913L669.868 40.4758L669.853 40.461C667.411 37.9722 664.674 34.3882 663.844 30.5152L663.839 30.4896L663.832 30.4643L662.5 25.5103L662.654 25.1358L665.988 17.0779C668.049 18.5847 668.774 19.9297 669.054 20.9917C669.22 21.6196 669.246 22.2063 669.245 22.7805C669.245 22.8692 669.244 22.9638 669.242 23.0625C669.237 23.4896 669.23 23.9944 669.306 24.4296L669.399 29.6692L669.399 29.6692L669.399 29.6768C669.484 33.0726 670.563 35.7894 672.469 38.9638Z" stroke="#5C032C" stroke-opacity="0.17" stroke-width="2.13187"/>
<path d="M401.953 -4.03219C410.385 -47.171 413.823 -90.9841 409.377 -135.125C419.713 -91.8829 418.126 -46.0315 408.125 -2.76426C396.225 43.4448 377.537 87.2764 358.582 130.797C320.442 215.049 268.987 292.219 216.958 368.74C237.471 328.982 260.268 290.566 283.321 252.332C286.414 247.202 289.512 242.076 292.61 236.95C314.105 201.376 335.587 165.824 355.394 129.391C378.734 87.7894 394.207 42.4066 401.953 -4.03219Z" stroke="#5C032C" stroke-opacity="0.17" stroke-width="2.13187"/>
<path d="M569.428 -11.3766C593.877 -17.6265 619.593 -19.8339 644.753 -17.5145C619.766 -13.9823 595.367 -10.0315 570.866 -5.27453C544.778 -1.6534 518.887 5.25624 495.721 18.0255C450.814 41.8799 410.337 70.5651 371.872 103.632C402.031 63.0357 446.101 32.6198 494.322 14.891C503.903 11.6049 513.315 8.17043 522.706 4.74361C538.119 -0.880433 553.475 -6.48385 569.428 -11.3766Z" stroke="#5C032C" stroke-opacity="0.17" stroke-width="2.13187"/>
<path d="M380.309 104.373C394.516 97.3444 409.123 90.0911 424.533 90.7688C442.012 91.3222 459.1 101.923 476.123 103.146C462.856 113.165 448.135 120.586 432.626 122.239C416.944 123.783 400.643 118.949 380.195 104.54L380.309 104.373Z" stroke="#5C032C" stroke-opacity="0.17" stroke-width="1.06593" stroke-miterlimit="10"/>
<path d="M380.309 104.373C394.516 97.3444 409.123 90.0911 424.533 90.7688C442.012 91.3222 459.1 101.923 476.123 103.146C462.856 113.165 448.135 120.586 432.626 122.239C416.944 123.783 400.643 118.949 380.195 104.54L380.309 104.373Z" stroke="#5C032C" stroke-opacity="0.17" stroke-width="0.63956" stroke-miterlimit="10"/>
<path d="M389.034 108.649L390.88 101.182C402.695 105.016 415.241 107.311 427.986 107.838C415.339 109.923 402.135 110.237 389.034 108.649Z" stroke="#5C032C" stroke-opacity="0.17" stroke-width="2.13187"/>
<path d="M552.853 0.983634C560.247 14.533 568.046 28.5793 580.977 36.5432C595.7 45.883 615.88 46.4745 630.711 54.9257C625.891 39.4173 618.205 25.2039 606.353 15.2906C594.5 5.37729 578.14 0.265814 552.853 0.983634Z" stroke="#5C032C" stroke-opacity="0.17" stroke-width="0.63956" stroke-miterlimit="10"/>
<path d="M552.853 0.983634C560.247 14.533 568.046 28.5793 580.977 36.5432C595.7 45.883 615.88 46.4745 630.711 54.9257C625.891 39.4173 618.205 25.2039 606.353 15.2906C594.5 5.37729 578.14 0.265814 552.853 0.983634Z" stroke="#5C032C" stroke-opacity="0.17" stroke-width="0.63956" stroke-miterlimit="10"/>
<path d="M555.219 6.88851L556.527 3.36688C567.132 7.79853 577.191 13.2946 586.437 19.8007C576.533 14.3665 566.056 10.0769 555.219 6.88851Z" stroke="#5C032C" stroke-opacity="0.17" stroke-width="2.13187"/>
<path d="M306.163 229.003C324.882 209.514 344.23 189.465 367.919 181.987C394.705 173.601 424.253 182.29 450.817 174.96C434.602 199.15 415.373 219.753 392.283 230.724C369.367 241.804 342.585 242.532 306.163 229.003Z" stroke="#5C032C" stroke-opacity="0.17" stroke-width="1.06593" stroke-miterlimit="10"/>
<path d="M306.163 229.003C324.882 209.514 344.23 189.465 367.919 181.987C394.705 173.601 424.253 182.29 450.817 174.96C434.602 199.15 415.373 219.753 392.283 230.724C369.367 241.804 342.585 242.532 306.163 229.003Z" stroke="#5C032C" stroke-opacity="0.17" stroke-width="1.06593" stroke-miterlimit="10"/>
<path d="M313.004 231.523L312.162 223.869C332.318 223.08 352.563 219.047 371.908 212.038C353.686 221.387 333.758 228.141 313.004 231.523Z" stroke="#5C032C" stroke-opacity="0.17" stroke-width="2.13187"/>
<path d="M265.699 280.43C245.741 262.022 225.377 243.117 217.918 220.189C209.519 194.27 218.979 165.795 211.961 140.033C236.789 156.023 257.786 175.09 268.862 197.44C279.938 219.79 280.232 245.594 265.699 280.43Z" stroke="#5C032C" stroke-opacity="0.17" stroke-width="1.06593" stroke-miterlimit="10"/>
<path d="M265.699 280.43C245.741 262.022 225.377 243.117 217.918 220.189C209.519 194.27 218.979 165.795 211.961 140.033C236.789 156.023 257.786 175.09 268.862 197.44C279.938 219.79 280.232 245.594 265.699 280.43Z" stroke="#5C032C" stroke-opacity="0.17" stroke-width="1.06593" stroke-miterlimit="10"/>
<path d="M268.218 273.973L260.235 274.671C259.663 255.176 255.836 235.655 248.921 216.883C258.262 234.604 264.944 253.941 268.218 273.973Z" stroke="#5C032C" stroke-opacity="0.17" stroke-width="2.13187"/>
<path d="M322.647 201.809L314.609 200.961C322.262 141.754 315.274 79.8324 292.122 23.6591C301.781 44.4856 309.162 66.3664 314.48 88.667C323.139 125.618 326.069 163.851 322.647 201.809Z" stroke="#5C032C" stroke-opacity="0.17" stroke-width="2.13187"/>
<path d="M458.389 31.5603C469.463 20.3894 480.652 9.05133 484.748 -5.34899C489.176 -21.6939 483.643 -40.5274 487.383 -56.5904C473.538 -47.1776 461.889 -35.892 455.892 -21.979C449.895 -8.06588 450.01 8.5272 458.389 31.5603Z" stroke="#5C032C" stroke-opacity="0.17" stroke-width="0.63956" stroke-miterlimit="10"/>
<path d="M458.389 31.5603C469.463 20.3894 480.652 9.05133 484.748 -5.34899C489.176 -21.6939 483.643 -40.5274 487.383 -56.5904C473.538 -47.1776 461.889 -35.892 455.892 -21.979C449.895 -8.06588 450.01 8.5272 458.389 31.5603Z" stroke="#5C032C" stroke-opacity="0.17" stroke-width="0.63956" stroke-miterlimit="10"/>
<path d="M461.84 27.8099L458.012 27.5952C459.359 17.6925 461.922 7.93883 465.529 -1.325C463.158 8.23945 461.961 18.0462 461.84 27.8099Z" stroke="#5C032C" stroke-opacity="0.17" stroke-width="2.13187"/>
<path d="M483.381 21.0772C493.362 18.0716 503.63 15.0086 509.326 7.36872C515.877 -1.16463 515.955 -14.7621 521.987 -23.6251C510.497 -22.7741 499.942 -19.6538 492.801 -13.1701C485.661 -6.68633 482.227 3.82485 483.381 21.0772Z" stroke="#5C032C" stroke-opacity="0.17" stroke-width="0.63956" stroke-miterlimit="10"/>
<path d="M483.381 21.0772C493.362 18.0716 503.63 15.0086 509.326 7.36872C515.877 -1.16463 515.955 -14.7621 521.987 -23.6251C510.497 -22.7741 499.942 -19.6538 492.801 -13.1701C485.661 -6.68633 482.227 3.82485 483.381 21.0772Z" stroke="#5C032C" stroke-opacity="0.17" stroke-width="0.63956" stroke-miterlimit="10"/>
<path d="M485.083 15.1809C488.378 9.40623 492.47 4.16597 497.188 -0.296368C493.491 4.98592 490.67 10.7254 488.764 16.5893L485.083 15.1809Z" stroke="#5C032C" stroke-opacity="0.17" stroke-width="2.13187"/>
<path d="M275.579 -3.7265C268.582 -1.46153 261.412 0.693607 255.018 -1.20764C247.818 -3.38119 242.651 -10.7291 235.679 -13.2371C242.78 -17.1122 250.178 -19.6017 256.967 -18.6465C263.757 -17.6913 269.591 -13.5111 275.693 -3.89377L275.579 -3.7265Z" stroke="#5C032C" stroke-opacity="0.17" stroke-width="0.63956" stroke-miterlimit="10"/>
<path d="M275.579 -3.7265C268.582 -1.46153 261.412 0.693607 255.018 -1.20764C247.818 -3.38119 242.651 -10.7291 235.679 -13.2371C242.78 -17.1122 250.178 -19.6017 256.967 -18.6465C263.757 -17.6913 269.591 -13.5111 275.693 -3.89377L275.579 -3.7265Z" stroke="#5C032C" stroke-opacity="0.17" stroke-width="0.63956" stroke-miterlimit="10"/>
<path d="M295.856 43.3737C286.103 46.0449 276.236 48.8833 267.481 46.4423C257.46 43.6764 250.21 34.2885 240.704 31.1308C250.556 26.1281 260.711 23.2323 270.088 24.3929C279.293 25.4436 287.666 30.9949 296.143 43.3163L295.856 43.3737Z" stroke="#5C032C" stroke-opacity="0.17" stroke-width="0.63956" stroke-miterlimit="10"/>
<path d="M295.856 43.3737C286.103 46.0449 276.236 48.8833 267.481 46.4423C257.46 43.6764 250.21 34.2885 240.704 31.1308C250.556 26.1281 260.711 23.2323 270.088 24.3929C279.293 25.4436 287.666 30.9949 296.143 43.3163L295.856 43.3737Z" stroke="#5C032C" stroke-opacity="0.17" stroke-width="0.63956" stroke-miterlimit="10"/>
<path d="M290.895 39.7914L289.017 42.9955C284.296 39.8308 279.037 37.216 273.408 35.311C279.345 36.0268 285.265 37.4922 290.895 39.7914Z" stroke="#5C032C" stroke-opacity="0.17" stroke-width="2.13187"/>
<path d="M315.576 117.895C302.161 123.032 288.285 128.116 276.473 123.974C262.874 119.178 253.105 102.924 239.961 97.4592C253.752 88.4908 267.568 83.1295 280.341 84.7677C292.999 86.5731 304.446 95.9895 315.576 117.895Z" stroke="#5C032C" stroke-opacity="0.17" stroke-width="0.63956" stroke-miterlimit="10"/>
<path d="M315.576 117.895C302.161 123.032 288.285 128.116 276.473 123.974C262.874 119.178 253.105 102.924 239.961 97.4592C253.752 88.4908 267.568 83.1295 280.341 84.7677C292.999 86.5731 304.446 95.9895 315.576 117.895Z" stroke="#5C032C" stroke-opacity="0.17" stroke-width="0.63956" stroke-miterlimit="10"/>
<path d="M312.935 114.411L310.787 117.567C304.051 112.171 296.32 107.674 287.954 104.548C296.634 106.468 305.076 109.845 312.935 114.411Z" stroke="#5C032C" stroke-opacity="0.17" stroke-width="2.13187"/>
<path d="M323.971 128.49C337.154 122.966 350.678 116.94 355.948 105.918C361.896 93.1707 356.654 75.0012 361.968 62.0915C345.722 65.193 331.852 70.9986 324.276 81.037C316.7 91.0754 315.592 105.456 323.858 128.657L323.971 128.49Z" stroke="#5C032C" stroke-opacity="0.17" stroke-width="0.63956" stroke-miterlimit="10"/>
<path d="M323.971 128.49C337.154 122.966 350.678 116.94 355.948 105.918C361.896 93.1707 356.654 75.0012 361.968 62.0915C345.722 65.193 331.852 70.9986 324.276 81.037C316.7 91.0754 315.592 105.456 323.858 128.657L323.971 128.49Z" stroke="#5C032C" stroke-opacity="0.17" stroke-width="0.63956" stroke-miterlimit="10"/>
<path d="M327.158 124.447L323.307 123.951C325.364 115.27 328.849 107.056 333.621 99.6872C330.018 107.591 327.851 116.013 327.158 124.447Z" stroke="#5C032C" stroke-opacity="0.17" stroke-width="2.13187"/>
<path d="M305.78 47.7529C313.207 41.2118 321.035 34.4462 323.391 25.8844C325.968 16.2667 321.697 5.41656 323.988 -4.14382C314.541 1.3558 306.599 8.28876 302.804 16.4159C298.895 24.7102 299.306 34.3086 305.953 47.8628L305.78 47.7529Z" stroke="#5C032C" stroke-opacity="0.17" stroke-width="0.63956" stroke-miterlimit="10"/>
<path d="M305.78 47.7529C313.207 41.2118 321.035 34.4462 323.391 25.8844C325.968 16.2667 321.697 5.41656 323.988 -4.14382C314.541 1.3558 306.599 8.28876 302.804 16.4159C298.895 24.7102 299.306 34.3086 305.953 47.8628L305.78 47.7529Z" stroke="#5C032C" stroke-opacity="0.17" stroke-width="0.63956" stroke-miterlimit="10"/>
<path d="M309.109 41.8592L305.182 41.7467C306.107 35.6513 307.958 29.8744 310.572 24.4838C309.247 30.2286 308.75 36.0923 309.109 41.8592Z" stroke="#5C032C" stroke-opacity="0.17" stroke-width="2.13187"/>
</svg>
