<svg width="375" height="696" viewBox="0 0 375 696" fill="none" xmlns="http://www.w3.org/2000/svg">
<path d="M55.6871 309.004C52.2381 306.957 49.5563 303.758 48.9213 299.45C48.822 298.811 48.7552 298.068 48.6881 297.323C48.6483 296.88 48.6084 296.436 48.5615 296.013C48.4285 294.81 48.228 293.589 47.8113 292.398C47.0099 290.106 45.1149 288.264 43.3872 286.832C39.4718 284.088 37.1331 280.217 36.9629 275.366C36.483 265.785 44.3919 259.055 51.8662 255.354C59.4424 251.396 67.6565 249.052 76.5422 248.077L76.5422 248.077L76.5515 248.076C80.9478 247.633 85.5695 247.813 90.0697 248.801C85.8662 246.99 81.4294 245.664 76.739 245.046L76.7262 245.045L76.7134 245.042C67.3805 243.581 57.3039 245.73 49.4787 251.26L49.4639 251.271L49.4488 251.281C41.5558 256.467 35.4152 265.769 36.6256 275.403L36.6292 275.432L36.6312 275.461C36.9489 279.938 39.5007 284.676 43.1202 287.342C45.2734 288.927 46.3009 290.729 46.7297 292.813C47.0945 294.587 47.0193 296.57 46.9395 298.675C46.9299 298.928 46.9203 299.183 46.9113 299.439L46.9112 299.443C46.7036 304.774 49.4058 309.304 53.4641 312.505C57.5341 315.714 62.8804 317.506 67.7219 317.362L67.7506 317.362L67.7793 317.362C78.0045 317.61 87.687 312.826 94.4294 305.861C101.14 298.694 106.006 290.588 108.433 281.169C109.671 275.167 109.732 268.699 107.763 263.281C107.991 264.532 108.09 265.814 108.082 267.096C108.051 271.74 106.619 276.509 104.727 280.232L104.72 280.245L104.712 280.259C100.592 287.81 95.3792 295.295 89.2551 301.151C83.2617 306.924 75.6277 311.36 67.3498 311.789L67.3463 311.789C63.3766 311.982 59.1243 311.045 55.6871 309.004Z" stroke="#5C032C" stroke-opacity="0.12" stroke-width="2.13187"/>
<path d="M111.581 334.259C107.292 337.477 101.609 341.011 94.3884 338.551C91.69 337.444 90.0344 335.651 88.7288 334.238C88.3108 333.785 87.9287 333.372 87.5598 333.032C86.8469 332.136 85.5265 331.485 84.1967 330.83C83.381 330.428 82.5619 330.024 81.8772 329.561L111.581 334.259ZM111.581 334.259C115.827 331.085 119.479 327.565 123.23 323.951C123.391 323.796 123.552 323.64 123.713 323.485L111.581 334.259ZM85.4457 330.261C86.4577 330.775 87.5995 331.409 88.3395 332.301C88.7746 332.707 89.1919 333.159 89.6259 333.628C90.9025 335.008 92.3231 336.544 94.7632 337.553C101.417 339.805 106.684 336.6 110.941 333.406L110.943 333.405C115.135 330.272 118.743 326.794 122.506 323.169C122.658 323.022 122.81 322.875 122.962 322.728C126.766 318.837 130.211 315.019 132.257 309.071C134.018 303.324 133.395 296.831 130.992 291.714C126.37 282.233 119.061 275.623 111.164 269.963C112.758 272.779 114.439 275.494 116.099 278.174C116.715 279.169 117.327 280.158 117.932 281.146C120.62 285.542 123.129 289.897 124.854 294.39L124.855 294.393C126.522 298.785 127.545 303.183 126.773 307.541L126.767 307.571L126.76 307.601C125.797 311.665 123.391 316.445 121.204 320.79C121.142 320.913 121.081 321.035 121.02 321.156L121.009 321.178L120.997 321.199C118.478 325.691 115.189 330.166 110.681 332.923C108.452 334.383 105.738 335.017 103.271 335.037C100.836 335.058 98.4496 334.481 96.939 333.298C96.302 332.83 95.6207 332.119 94.8993 331.366C94.8655 331.331 94.8315 331.295 94.7975 331.26C94.0037 330.432 93.0876 329.482 91.9501 328.487L91.9352 328.474L91.9208 328.46C90.743 327.35 89.541 326.744 88.2649 326.267C87.7302 326.068 87.1951 325.895 86.631 325.713C86.5078 325.673 86.3831 325.633 86.2569 325.592C85.5728 325.37 84.8542 325.128 84.1247 324.82C83.7098 324.67 83.3193 324.542 82.9336 324.416C82.7962 324.371 82.6595 324.326 82.5225 324.281C82.0065 324.109 81.4893 323.929 81.0066 323.71C80.0221 323.263 79.1384 322.634 78.5158 321.513C77.9304 320.623 77.183 319.484 76.6525 318.311C76.405 317.764 76.1829 317.163 76.0549 316.541C75.8881 317.055 75.8144 317.591 75.7999 318.147C75.7733 319.17 75.9413 320.173 76.1184 321.23C76.1771 321.581 76.2369 321.937 76.2909 322.303C76.6631 323.74 77.5891 325.046 78.7492 326.147C79.9184 327.256 81.2638 328.097 82.3291 328.596L82.405 328.631L82.4744 328.678C83.093 329.096 83.8188 329.454 84.6161 329.847C84.885 329.98 85.1619 330.117 85.4457 330.261Z" stroke="#5C032C" stroke-opacity="0.12" stroke-width="2.13187"/>
<path d="M87.9198 230.586C96.0986 233.253 100.08 241.375 102.453 250.736C103.269 246.413 103.379 241.987 102.019 237.516L102.015 237.502L102.011 237.489C100.512 232.042 95.947 226.829 90.8149 224.507L90.7962 224.498L90.7779 224.489C85.8873 222.045 81.0253 221.478 75.8827 220.878C75.5934 220.844 75.3031 220.81 75.0119 220.776C69.5996 220.138 64.3445 219.648 59.1966 219.886C53.8389 220.22 48.4382 220.872 43.5579 223.116L43.5382 223.125L43.5181 223.133C38.8036 225.072 33.5271 229.385 33.3725 235.822C33.6106 238.876 33.291 241.025 32.7988 243.178C32.6601 243.785 32.5112 244.38 32.3586 244.99C31.9659 246.559 31.5494 248.224 31.2227 250.422L31.2183 250.452L31.2122 250.481C30.9589 251.705 30.9717 253.343 31.3016 254.945C31.6329 256.554 32.2566 257.996 33.1117 258.923C34.5782 260.478 36.0229 261.891 37.748 262.5C37.3163 262.014 36.9486 261.479 36.6315 260.936C35.988 259.834 35.5094 258.626 35.122 257.581C34.1371 255.452 34.6244 253.851 35.1084 252.262C35.2069 251.939 35.3053 251.616 35.3911 251.289L35.4107 251.214L35.4409 251.143C36.2551 249.225 37.3389 246.407 38.0231 243.526C38.7183 240.599 38.9503 237.807 38.2601 235.833L38.249 235.802L38.2399 235.769C37.0529 231.534 39.1555 226.242 43.9176 223.548L43.9197 223.547C48.5068 220.966 54.2135 221.303 59.1389 222.322L59.1863 222.332L59.2325 222.346C60.1567 222.627 61.0725 222.909 61.9817 223.19C66.028 224.438 69.9416 225.645 73.8628 226.457C78.7208 227.462 83.8398 228.759 87.9198 230.586Z" stroke="#5C032C" stroke-opacity="0.12" stroke-width="2.13187"/>
<path d="M46.7396 213.267C46.7275 215.08 46.7971 216.904 47.5927 218.294C47.6086 217.654 47.7327 217.033 47.896 216.462C48.1414 215.604 48.5096 214.753 48.8181 214.041C48.8823 213.892 48.944 213.75 49.0015 213.614L49.0059 213.604L49.0106 213.594C49.5011 212.503 50.0062 211.778 50.6937 211.197C51.2454 210.73 51.8982 210.379 52.5993 210.002C52.7078 209.943 52.8174 209.884 52.9279 209.824L52.9893 209.791L53.0545 209.766C54.7244 209.123 56.792 207.733 58.6877 206.025C60.583 204.317 62.199 202.388 63.0344 200.745L63.052 200.711L63.0721 200.677C63.2605 200.365 63.4498 200.046 63.6411 199.723C64.5296 198.224 65.4637 196.648 66.5719 195.374C67.9571 193.78 69.7064 192.539 72.1512 192.336C76.5608 191.903 81.061 194.602 84.054 197.587L84.078 197.611L84.1004 197.637C89.3388 203.57 92.528 211.009 95.6942 218.393C95.9204 218.921 96.1466 219.448 96.3733 219.975C99.6031 226.903 101.323 234.44 102.143 242.96C105.701 235.304 105.698 225.981 102.689 217.568C98.9981 209.224 94.1277 200.43 85.571 195.874C81.173 193.663 76.922 192.209 72.1055 191.909L72.1055 191.909L72.0988 191.909C67.3282 191.581 62.4513 194.704 59.3434 197.721C58.5499 198.556 57.8618 199.304 57.2222 199.999C55.0521 202.359 53.4409 204.11 50.1693 206.576L50.1419 206.596L50.1132 206.615C49.2682 207.17 48.3575 208.271 47.6799 209.577C46.9987 210.89 46.6525 212.219 46.7355 213.167L46.7399 213.217L46.7396 213.267Z" stroke="#5C032C" stroke-opacity="0.12" stroke-width="2.13187"/>
<path d="M126.106 262.855C124.917 266.771 122.999 270.693 121.04 274.655C124.615 271.957 127.776 268.601 130.178 264.462L130.185 264.451L130.191 264.441C133.323 259.328 134.48 252.639 132.8 246.289C130.809 239.796 125.934 234.976 120.441 232.452C116.154 230.481 111.599 229.713 107.062 229.79C111.105 231.777 114.974 233.735 118.207 236.23L118.22 236.24L118.233 236.251C122.198 239.514 125.633 243.372 126.764 248.016C128.258 252.595 127.501 257.886 126.112 262.833L126.109 262.844L126.106 262.855Z" stroke="#5C032C" stroke-opacity="0.12" stroke-width="2.13187"/>
<path d="M106.565 261.365L102.373 257.148C96.4589 264.209 89.2477 270.346 81.1947 275.341C90.1853 272.142 98.8171 267.444 106.565 261.365Z" stroke="#5C032C" stroke-opacity="0.12" stroke-width="2.13187"/>
<path d="M92.3923 244.727C95.1724 246.08 98.0802 247.381 101.464 248.474L102.254 242.601C99.601 242.348 96.6812 241.699 93.7171 240.938C92.2583 240.564 90.8068 240.168 89.3614 239.773C87.4316 239.246 85.5126 238.723 83.6011 238.257C83.1668 238.168 82.7309 238.076 82.2935 237.984C79.3342 237.362 76.3108 236.726 73.3274 236.534C73.3489 236.539 73.3704 236.545 73.3919 236.551C76.3336 237.336 79.216 238.57 81.9081 239.723C82.298 239.89 82.6838 240.056 83.0654 240.218L83.0654 240.218L83.0718 240.22C85.3111 241.189 87.4349 242.254 89.5483 243.314C90.4952 243.789 91.4401 244.263 92.3923 244.727Z" stroke="#5C032C" stroke-opacity="0.12" stroke-width="2.13187"/>
<path d="M95.4464 229.266L99.667 225.23C94.2734 221.211 88.4428 217.987 82.4461 215.653C87.4542 219.637 91.8466 224.228 95.4464 229.266Z" stroke="#5C032C" stroke-opacity="0.12" stroke-width="2.13187"/>
<path d="M111.943 294.926C110.568 297.515 109.03 300.023 107.442 302.505C109.586 300.433 111.702 298.308 113.718 296.003L113.732 295.987L113.747 295.972C115.708 293.902 117.886 290.94 118.545 287.755L118.55 287.729L118.557 287.704L119.617 283.621L119.514 283.363L116.914 276.854C115.438 278.025 114.921 279.055 114.717 279.857C114.589 280.359 114.568 280.831 114.569 281.305C114.569 281.375 114.57 281.45 114.571 281.53C114.576 281.881 114.581 282.319 114.519 282.701L114.445 287.067L114.445 287.067L114.444 287.074C114.375 289.954 113.49 292.257 111.943 294.926Z" stroke="#5C032C" stroke-opacity="0.12" stroke-width="2.13187"/>
<path d="M332.915 101.527C334.544 106.439 337.048 111.217 340.418 114.827C340.183 114.46 339.958 114.084 339.745 113.703C337.476 109.654 336.362 104.792 336.174 100.577L336.174 100.565L336.174 100.552C335.997 91.9907 336.805 82.7462 339.074 74.7446C341.354 66.7068 345.882 59.1539 352.726 54.657C356.035 52.4826 360.184 51.1734 364.191 51.2493C368.214 51.3256 372.155 52.8065 374.877 56.2812L374.877 56.2812L374.881 56.2866C375.325 56.8607 375.725 57.4314 376.124 57.9983C377.028 59.286 377.918 60.5539 379.268 61.7977C381.028 63.4191 383.698 64.0081 385.832 64.4502C390.566 64.9347 394.574 67.045 397.02 71.092C402.094 79.1514 398.661 88.9097 394.067 95.7774C389.481 103.069 383.451 109.056 376.384 114.306L376.367 114.319L376.351 114.33C372.344 117.075 367.77 119.397 362.901 120.756C367.983 120.298 373.062 119.175 377.999 117.123L378.008 117.119L378.018 117.115C386.852 113.65 394.477 106.88 398.635 98.1229L398.638 98.1174C402.777 89.5275 403.606 78.3587 397.871 70.7816L397.849 70.7533L397.83 70.7236C395.347 66.9452 390.696 64.1582 386.412 63.6023C383.709 63.3726 381.901 62.3132 380.496 60.6956C379.333 59.3574 378.444 57.623 377.519 55.8171C377.381 55.5477 377.242 55.2767 377.101 55.0051C374.546 50.2736 369.951 47.7148 364.872 46.98C359.775 46.2424 354.29 47.3642 350.154 49.8919L350.132 49.9048L350.111 49.9167C341.15 54.837 335.169 63.8003 332.752 73.1977C330.408 82.8068 330.26 92.1171 332.915 101.527Z" stroke="#5C032C" stroke-opacity="0.12" stroke-width="2.13187"/>
<path d="M341.808 53.7885C342.095 53.9926 342.389 54.2165 342.671 54.4607C342.551 54.0366 342.372 53.6251 342.151 53.219C341.682 52.356 341.085 51.6108 340.464 50.835C340.209 50.5158 339.949 50.1914 339.692 49.8515C337.531 47.6661 333.847 47.1743 331.414 47.4619L331.302 47.4751L331.19 47.4646C330.391 47.3898 329.463 47.4602 328.441 47.5376C328.244 47.5525 328.043 47.5678 327.839 47.5823C326.71 47.6624 325.371 47.7336 324.339 47.3778C323.915 47.2624 323.473 47.1219 323.008 46.974C321.167 46.3889 318.961 45.6876 316.055 45.9648C309.231 47.3487 306.282 52.7198 304.18 57.6729C302.089 62.5976 300.539 67.7691 299.116 72.8962C297.792 78.1384 296.744 83.2695 297.904 89.4294C299.189 95.4271 303.09 100.525 307.628 103.915C316.347 109.819 326.07 111.99 335.822 112.897C333.067 111.265 330.282 109.766 327.533 108.287C326.46 107.709 325.393 107.135 324.335 106.557C319.841 104.1 315.534 101.584 311.896 98.5431C308.358 95.6167 305.174 92.4296 303.616 88.1042L303.605 88.0741L303.596 88.0435C302.422 84.0486 301.992 78.401 301.702 73.4121L301.701 73.3824L301.7 73.3526C301.689 68.1076 302.279 62.7048 304.888 58.0336C306.059 55.6233 308.064 53.7262 310.191 52.4886C312.291 51.2676 314.647 50.6107 316.594 50.8549C317.423 50.8973 318.375 51.1873 319.333 51.4787C319.39 51.4959 319.446 51.5131 319.503 51.5303C320.593 51.8613 321.845 52.2349 323.347 52.4883L323.384 52.4945L323.42 52.5031C325.023 52.8892 326.368 52.8192 327.699 52.6002C328.257 52.5083 328.801 52.3926 329.374 52.2705C329.5 52.2438 329.627 52.2167 329.756 52.1895C330.453 52.0428 331.189 51.8962 331.97 51.8022C332.354 51.7333 332.745 51.6528 333.133 51.5731C333.872 51.4211 334.599 51.2716 335.24 51.2087C336.331 51.1015 337.412 51.2004 338.568 51.8169L338.584 51.8258L338.601 51.8354C338.778 51.9382 338.966 52.0458 339.162 52.1577C339.995 52.6341 340.966 53.1892 341.808 53.7885Z" stroke="#5C032C" stroke-opacity="0.12" stroke-width="2.13187"/>
<path d="M415.869 105.618C418.981 108.61 419.839 114.409 417.034 119.088C414.391 123.636 409.329 126.261 404.467 127.831L404.435 127.841L404.402 127.849C402.698 128.283 400.997 128.679 399.308 129.072C395.981 129.847 392.702 130.611 389.551 131.628C384.801 133.161 379.693 134.692 375.154 135.01C366.728 136.778 359.327 131.672 352.477 124.739C353.909 128.844 356.192 132.84 359.555 136.249C363.503 140.249 370.075 142.431 375.821 141.895L375.842 141.893L375.862 141.892C381.62 141.574 386.379 139.424 391.33 137.175L391.345 137.168L391.36 137.162C396.34 135.08 401.125 132.726 405.489 130.057C409.93 127.139 414.221 123.916 417.472 119.463L417.483 119.447L417.496 119.432C420.642 115.441 423.012 108.99 420.034 103.302C418.335 100.707 417.526 98.6818 416.871 96.5867C416.666 95.9292 416.479 95.2816 416.288 94.6158C415.862 93.1368 415.411 91.5683 414.666 89.6041L414.65 89.5621L414.638 89.5189C414.308 88.3644 413.489 86.9554 412.377 85.7259C411.262 84.4922 409.958 83.5542 408.734 83.2013L408.734 83.2013L408.728 83.1994C406.673 82.5926 404.686 82.0582 402.86 82.4027C403.488 82.6044 404.087 82.8826 404.642 83.1875C405.773 83.809 406.816 84.5974 407.65 85.2551C409.485 86.5807 409.856 88.1432 410.227 89.7043C410.313 90.067 410.4 90.4296 410.504 90.7891L410.529 90.8739L410.539 90.9615C410.778 92.9802 411.224 95.9635 412.072 98.806C412.934 101.696 414.151 104.227 415.799 105.556L415.836 105.585L415.869 105.618Z" stroke="#5C032C" stroke-opacity="0.12" stroke-width="2.13187"/>
<path d="M417.606 127.096C417.33 126.804 417.04 126.546 416.728 126.331C416.89 126.72 417.011 127.117 417.105 127.505C417.316 128.367 417.418 129.291 417.505 130.077C417.524 130.251 417.543 130.417 417.561 130.575C417.707 131.807 417.623 132.702 417.286 133.555C417.047 134.16 416.673 134.736 416.289 135.329C416.187 135.487 416.084 135.645 415.982 135.806L415.945 135.865L415.9 135.919C414.738 137.315 413.661 139.562 412.875 142.007C412.092 144.443 411.64 146.945 411.649 148.793L411.649 148.793L411.649 148.806C411.648 149.055 411.647 149.307 411.646 149.561C411.641 151.403 411.635 153.36 411.281 155.139C410.868 157.215 409.963 159.17 407.977 160.592L407.959 160.604L407.941 160.616C404.236 163.05 399.149 163.113 394.983 161.872L394.969 161.868L394.955 161.863C387.646 159.458 381.401 154.862 375.217 150.31C374.539 149.811 373.862 149.313 373.184 148.818C366.984 144.493 361.682 138.92 356.915 132.054C357.513 140.279 362.159 148.554 368.987 154.312C376.303 159.676 384.807 164.889 394.741 164.514C399.671 164.227 404.146 163.393 408.287 161.247L408.299 161.24L408.311 161.234C412.594 159.15 415.292 154.073 416.405 149.841C416.633 148.858 416.825 147.971 417.005 147.142C417.72 143.857 418.236 141.48 419.93 137.588L419.948 137.546L419.969 137.506C420.429 136.656 420.668 135.262 420.607 133.776C420.546 132.287 420.194 130.95 419.701 130.2L419.682 130.17L419.664 130.139C419.037 129.03 418.408 127.944 417.606 127.096Z" stroke="#5C032C" stroke-opacity="0.12" stroke-width="2.13187"/>
<path d="M325.819 126.394C324.963 122.547 324.66 118.321 324.368 114.012C322.749 117.97 321.815 122.312 321.751 126.833C321.666 132.842 323.806 139.283 328.585 143.953C333.503 148.532 340.269 150.396 346.158 149.772L346.158 149.772L346.17 149.77C350.952 149.317 355.261 147.791 359.035 145.496C354.538 145.831 350.15 146.031 346.124 145.486L346.112 145.485L346.101 145.483C341.099 144.694 336.117 142.941 332.797 139.536C329.373 136.256 327.256 131.391 325.835 126.458L325.826 126.426L325.819 126.394Z" stroke="#5C032C" stroke-opacity="0.12" stroke-width="2.13187"/>
<path d="M343.75 117.912L349.564 119.549C351.176 110.686 354.198 101.835 358.593 93.5937C352.541 100.774 347.504 108.962 343.75 117.912Z" stroke="#5C032C" stroke-opacity="0.12" stroke-width="2.13187"/>
<path d="M357.1 132.04C359.523 130.955 362.304 130.088 365.178 129.289C366.499 128.922 367.83 128.571 369.162 128.22C371.209 127.681 373.258 127.141 375.281 126.538C375.709 126.392 376.141 126.245 376.575 126.098C379.271 125.184 382.062 124.238 384.653 122.981C382.143 123.612 379.508 123.958 377 124.286C376.288 124.379 375.586 124.471 374.901 124.568L374.883 124.57L374.865 124.572C372.61 124.814 370.376 124.941 368.157 125.068C366.956 125.136 365.759 125.204 364.566 125.29C361.488 125.512 358.342 125.855 354.937 126.626L357.1 132.04Z" stroke="#5C032C" stroke-opacity="0.12" stroke-width="2.13187"/>
<path d="M366.22 138.037L364.601 143.79C372.014 144.776 379.605 145.503 386.936 144.934C379.717 143.492 372.826 140.848 366.22 138.037Z" stroke="#5C032C" stroke-opacity="0.12" stroke-width="2.13187"/>
<path d="M320.393 100.758L321.657 104.944L321.803 105.058L327.217 109.271C327.78 107.755 327.713 106.695 327.507 105.921C327.369 105.4 327.154 104.956 326.924 104.514C326.9 104.467 326.875 104.419 326.848 104.368C326.678 104.045 326.462 103.638 326.343 103.234L324.316 99.5646C322.775 97.1951 322.571 94.4596 322.5 91.337C322.385 88.5219 322.473 85.6518 322.625 82.7807C321.839 85.5603 321.089 88.3818 320.432 91.2789L320.429 91.2899L320.427 91.3008C319.74 94.0583 319.468 97.653 320.393 100.756C320.393 100.757 320.393 100.758 320.393 100.758Z" stroke="#5C032C" stroke-opacity="0.12" stroke-width="2.13187"/>
<path d="M323.623 152.302C316.02 187.547 317.443 224.748 325.29 259.913C334.89 298.521 349.965 335.145 365.262 371.521C395.583 440.898 436.336 504.53 477.694 567.57C461.536 535.413 443.691 504.282 425.649 473.289C423.153 469.002 420.653 464.717 418.154 460.432C400.807 430.698 383.469 400.978 367.483 370.523C348.639 335.733 336.146 297.781 329.892 258.948C323.268 223.848 320.461 188.21 323.623 152.302Z" stroke="#5C032C" stroke-opacity="0.12" stroke-width="2.13187"/>
<path d="M194.862 252.947C175.67 247.866 155.51 245.986 135.74 247.679C155.362 250.573 174.548 253.808 193.812 257.681C214.878 260.711 235.794 266.491 254.512 277.178C290.241 296.835 322.495 320.415 353.142 347.557C328.859 314.383 293.788 289.494 255.461 274.899C247.722 272.15 240.124 269.278 232.545 266.414C220.113 261.715 207.732 257.035 194.862 252.947Z" stroke="#5C032C" stroke-opacity="0.12" stroke-width="2.13187"/>
<path d="M322.148 234.124C309.137 223.461 295.852 212.378 287.925 197.574C278.853 180.721 277.548 160.765 269.078 143.916C283.818 152.643 297.383 163.542 306.891 177.707C316.399 191.872 321.849 209.304 322.056 233.984L322.148 234.124Z" stroke="#5C032C" stroke-opacity="0.12" stroke-width="0.63956" stroke-miterlimit="10"/>
<path d="M317.794 230.252L320.389 229.321C316.459 220.086 311.835 211.191 306.579 202.73C311.023 211.628 314.779 220.847 317.794 230.252Z" stroke="#5C032C" stroke-opacity="0.12" stroke-width="2.13187"/>
<path d="M330.648 260.157C330.409 247.306 330.126 234.084 335.905 223.082C342.483 210.555 356.409 202.205 363.494 190.145C366.421 203.431 366.796 216.794 362.402 228.686C358.009 240.579 348.663 250.722 330.508 260.249L330.648 260.157Z" stroke="#5C032C" stroke-opacity="0.12" stroke-width="0.63956" stroke-miterlimit="10"/>
<path d="M330.648 260.157C330.409 247.306 330.126 234.084 335.905 223.082C342.483 210.555 356.409 202.205 363.494 190.145C366.421 203.431 366.796 216.794 362.402 228.686C358.009 240.579 348.663 250.722 330.508 260.249L330.648 260.157Z" stroke="#5C032C" stroke-opacity="0.12" stroke-width="0.63956" stroke-miterlimit="10"/>
<path d="M330.184 254.558L332.36 256.349C336.709 250.176 340.368 243.529 343.292 236.613C339.503 243.075 335.073 249.108 330.184 254.558Z" stroke="#5C032C" stroke-opacity="0.12" stroke-width="2.13187"/>
<path d="M347.548 349.517C336.083 343.642 324.294 337.579 311.858 338.145C297.753 338.608 283.963 347.469 270.226 348.491C280.932 356.866 292.812 363.068 305.328 364.45C317.983 365.741 331.138 361.7 347.64 349.657L347.548 349.517Z" stroke="#5C032C" stroke-opacity="0.12" stroke-width="1.06593" stroke-miterlimit="10"/>
<path d="M347.548 349.517C336.083 343.642 324.294 337.579 311.858 338.145C297.753 338.608 283.963 347.469 270.226 348.491C280.932 356.866 292.812 363.068 305.328 364.45C317.983 365.741 331.138 361.7 347.64 349.657L347.548 349.517Z" stroke="#5C032C" stroke-opacity="0.12" stroke-width="0.63956" stroke-miterlimit="10"/>
<path d="M340.269 352.932L338.876 347.092C329.933 350.079 320.477 351.937 310.858 352.51C320.441 353.98 330.389 354.151 340.269 352.932Z" stroke="#5C032C" stroke-opacity="0.12" stroke-width="2.13187"/>
<path d="M208.306 263.098C202.339 274.423 196.044 286.164 185.609 292.821C173.728 300.627 157.442 301.122 145.474 308.186C149.364 295.223 155.566 283.343 165.131 275.056C174.696 266.77 187.899 262.498 208.306 263.098Z" stroke="#5C032C" stroke-opacity="0.12" stroke-width="0.63956" stroke-miterlimit="10"/>
<path d="M208.306 263.098C202.339 274.423 196.044 286.164 185.609 292.821C173.728 300.627 157.442 301.122 145.474 308.186C149.364 295.223 155.566 283.343 165.131 275.056C174.696 266.77 187.899 262.498 208.306 263.098Z" stroke="#5C032C" stroke-opacity="0.12" stroke-width="0.63956" stroke-miterlimit="10"/>
<path d="M206.145 267.916L205.222 265.343C197.753 268.589 190.622 272.516 183.973 277.091C191.064 273.312 198.493 270.262 206.145 267.916Z" stroke="#5C032C" stroke-opacity="0.12" stroke-width="2.13187"/>
<path d="M407.385 453.689C392.278 437.399 376.664 420.641 357.548 414.391C335.931 407.381 312.085 414.644 290.649 408.517C303.734 428.737 319.252 445.958 337.886 455.128C356.379 464.389 377.992 464.998 407.385 453.689Z" stroke="#5C032C" stroke-opacity="0.12" stroke-width="1.06593" stroke-miterlimit="10"/>
<path d="M407.385 453.689C392.278 437.399 376.664 420.641 357.548 414.391C335.931 407.381 312.085 414.644 290.649 408.517C303.734 428.737 319.252 445.958 337.886 455.128C356.379 464.389 377.992 464.998 407.385 453.689Z" stroke="#5C032C" stroke-opacity="0.12" stroke-width="1.06593" stroke-miterlimit="10"/>
<path d="M401.694 455.574L402.331 449.578C387.081 448.94 371.771 445.922 357.059 440.71C370.964 447.776 386.036 452.908 401.694 455.574Z" stroke="#5C032C" stroke-opacity="0.12" stroke-width="2.13187"/>
<path d="M394.26 430.752L400.353 430.086C394.578 383.568 399.236 335.051 415.348 290.403C409.269 305.281 404.476 320.725 400.863 336.419C393.892 367.228 391.525 399.103 394.26 430.752Z" stroke="#5C032C" stroke-opacity="0.12" stroke-width="2.13187"/>
<path d="M284.538 288.656C275.601 279.318 266.572 269.841 263.266 257.805C259.692 244.143 264.158 228.401 261.139 214.974C272.313 222.842 281.713 232.275 286.553 243.904C291.392 255.534 291.3 269.403 284.538 288.656Z" stroke="#5C032C" stroke-opacity="0.12" stroke-width="0.63956" stroke-miterlimit="10"/>
<path d="M284.538 288.656C275.601 279.318 266.572 269.841 263.266 257.805C259.692 244.143 264.158 228.401 261.139 214.974C272.313 222.842 281.713 232.275 286.553 243.904C291.392 255.534 291.3 269.403 284.538 288.656Z" stroke="#5C032C" stroke-opacity="0.12" stroke-width="0.63956" stroke-miterlimit="10"/>
<path d="M281.944 285.322L284.623 285.166C283.669 278.01 281.98 270.949 279.647 264.167C281.099 271.142 281.847 278.245 281.944 285.322Z" stroke="#5C032C" stroke-opacity="0.12" stroke-width="2.13187"/>
<path d="M264.368 279.893C256.313 277.381 248.027 274.821 243.431 268.435C238.144 261.302 238.08 249.937 233.213 242.529C242.485 243.24 251.003 245.848 256.766 251.267C262.528 256.687 265.299 265.473 264.368 279.893Z" stroke="#5C032C" stroke-opacity="0.12" stroke-width="0.63956" stroke-miterlimit="10"/>
<path d="M264.368 279.893C256.313 277.381 248.027 274.821 243.431 268.435C238.144 261.302 238.08 249.937 233.213 242.529C242.485 243.24 251.003 245.848 256.766 251.267C262.528 256.687 265.299 265.473 264.368 279.893Z" stroke="#5C032C" stroke-opacity="0.12" stroke-width="0.63956" stroke-miterlimit="10"/>
<path d="M262.721 274.875C260.414 270.722 257.628 266.905 254.454 263.555C256.894 267.467 258.801 271.639 260.152 275.893L262.721 274.875Z" stroke="#5C032C" stroke-opacity="0.12" stroke-width="2.13187"/>
<path d="M186.183 234.007C183.221 226.147 180.214 217.917 182.49 210.417C185.007 201.759 193.913 194.907 196.844 186.576C201.988 194.404 205.086 202.774 204.199 210.562C203.312 218.349 198.252 225.877 186.183 234.007Z" stroke="#5C032C" stroke-opacity="0.12" stroke-width="0.63956" stroke-miterlimit="10"/>
<path d="M186.183 234.007C183.221 226.147 180.214 217.917 182.49 210.417C185.007 201.759 193.913 194.907 196.844 186.576C201.988 194.404 205.086 202.774 204.199 210.562C203.312 218.349 198.252 225.877 186.183 234.007Z" stroke="#5C032C" stroke-opacity="0.12" stroke-width="0.63956" stroke-miterlimit="10"/>
<path d="M186.926 228.203L189.207 229.573C191.059 225.333 192.378 220.9 193.116 216.425C191.524 220.651 189.415 224.617 186.926 228.203Z" stroke="#5C032C" stroke-opacity="0.12" stroke-width="2.13187"/>
<path d="M178.748 222.682C172.71 216.843 166.349 210.816 158.562 209.929C149.616 208.803 139.792 214.258 130.982 213.642C136.126 221.47 142.579 227.636 150.079 229.913C157.578 232.189 166.496 230.532 178.748 222.682Z" stroke="#5C032C" stroke-opacity="0.12" stroke-width="0.63956" stroke-miterlimit="10"/>
<path d="M178.748 222.682C172.71 216.843 166.349 210.816 158.562 209.929C149.616 208.803 139.792 214.258 130.982 213.642C136.126 221.47 142.579 227.636 150.079 229.913C157.578 232.189 166.496 230.532 178.748 222.682Z" stroke="#5C032C" stroke-opacity="0.12" stroke-width="0.63956" stroke-miterlimit="10"/>
<path d="M173.484 223.693L173.134 221.063C168.848 221.954 164.444 222.312 160.018 222.101C164.372 223.174 168.912 223.71 173.484 223.693Z" stroke="#5C032C" stroke-opacity="0.12" stroke-width="2.13187"/>
<path d="M161.529 182.764C156.178 185.28 150.455 187.839 145.22 186.877C139.289 185.77 134.27 180.263 128.527 178.833C133.935 174.88 139.566 172.18 144.993 172.217C150.42 172.253 155.735 175.164 161.529 182.764Z" stroke="#5C032C" stroke-opacity="0.12" stroke-width="0.63956" stroke-miterlimit="10"/>
<path d="M161.529 182.764C156.178 185.28 150.455 187.839 145.22 186.877C139.289 185.77 134.27 180.263 128.527 178.833C133.935 174.88 139.566 172.18 144.993 172.217C150.42 172.253 155.735 175.164 161.529 182.764Z" stroke="#5C032C" stroke-opacity="0.12" stroke-width="0.63956" stroke-miterlimit="10"/>
<path d="M157.007 182.676L157.982 180.494C155.166 179.778 152.329 179.364 149.521 179.259C152.189 180.141 154.703 181.308 157.007 182.676Z" stroke="#5C032C" stroke-opacity="0.12" stroke-width="2.13187"/>
<path d="M160.019 171.948C163.254 166.821 166.489 161.693 166.246 156.45C165.915 150.464 161.175 144.773 160.612 138.738C155.987 143.578 152.52 148.658 151.881 154.081C151.242 159.504 153.338 165.131 160.019 171.948Z" stroke="#5C032C" stroke-opacity="0.12" stroke-width="0.63956" stroke-miterlimit="10"/>
<path d="M160.019 171.948C163.254 166.821 166.489 161.693 166.246 156.45C165.915 150.464 161.175 144.773 160.612 138.738C155.987 143.578 152.52 148.658 151.881 154.081C151.242 159.504 153.338 165.131 160.019 171.948Z" stroke="#5C032C" stroke-opacity="0.12" stroke-width="0.63956" stroke-miterlimit="10"/>
<path d="M160.635 167.476C159.542 165.026 158.724 162.409 158.238 159.678C157.943 162.459 157.97 165.333 158.351 168.213L160.635 167.476Z" stroke="#5C032C" stroke-opacity="0.12" stroke-width="2.13187"/>
<path d="M393.013 369.674C382.374 365.057 371.46 360.021 367.208 350.808C362.408 340.153 366.638 324.966 362.349 314.175C375.46 316.768 386.653 321.62 392.767 330.011C398.881 338.402 399.775 350.422 393.105 369.814L393.013 369.674Z" stroke="#5C032C" stroke-opacity="0.12" stroke-width="0.63956" stroke-miterlimit="10"/>
<path d="M393.013 369.674C382.374 365.057 371.46 360.021 367.208 350.808C362.408 340.153 366.638 324.966 362.349 314.175C375.46 316.768 386.653 321.62 392.767 330.011C398.881 338.402 399.775 350.422 393.105 369.814L393.013 369.674Z" stroke="#5C032C" stroke-opacity="0.12" stroke-width="0.63956" stroke-miterlimit="10"/>
<path d="M390.619 366.083L393.313 365.724C391.861 359.467 389.549 353.504 386.451 348.04C388.72 353.861 390.116 359.967 390.619 366.083Z" stroke="#5C032C" stroke-opacity="0.12" stroke-width="2.13187"/>
<path d="M171.834 207.456C175.599 224.441 179.586 242.434 191.754 256.667L196.055 252.555C183.966 240.489 178.573 223.143 173.479 206.172C170.95 198.014 168.369 189.835 164.373 182.272C167.789 190.12 169.766 198.384 171.68 206.758L171.681 206.765C171.732 206.995 171.783 207.225 171.834 207.456Z" stroke="#5C032C" stroke-opacity="0.12" stroke-width="2.13187"/>
</svg>
