<svg width="460" height="552" viewBox="0 0 460 552" fill="none" xmlns="http://www.w3.org/2000/svg">
<path d="M331.428 343.634C336.526 352.653 342.972 361.586 350.536 368.57C357.936 375.451 367.339 380.718 377.516 381.227L377.519 381.227C382.394 381.456 387.617 380.344 391.835 377.927C396.066 375.502 399.341 371.723 400.116 366.644C400.238 365.885 400.319 365.011 400.402 364.125C400.451 363.593 400.501 363.058 400.56 362.541C400.726 361.095 400.977 359.616 401.501 358.169C402.516 355.367 404.909 353.131 407.056 351.414C411.863 348.164 414.724 343.588 414.932 337.854C415.52 326.535 405.842 318.55 396.602 314.133C387.245 309.413 377.097 306.616 366.113 305.453L366.113 305.453L366.103 305.452C359.84 304.843 353.21 305.223 346.87 306.928C352.794 304.223 359.104 302.236 365.837 301.379L365.85 301.378L365.863 301.376C377.486 299.619 390.04 302.201 399.795 308.857L399.809 308.867L399.824 308.877C409.66 315.116 417.34 326.326 415.826 337.962L415.823 337.99L415.82 338.019C415.422 343.436 412.23 349.16 407.692 352.386C405.068 354.253 403.824 356.364 403.303 358.807C402.857 360.901 402.948 363.246 403.047 365.769C403.059 366.071 403.071 366.376 403.082 366.683L403.082 366.687C403.343 373.149 399.949 378.628 394.88 382.487C389.799 386.355 383.122 388.519 377.062 388.345L377.033 388.345L377.004 388.345C364.252 388.643 352.187 382.883 343.79 374.509C335.448 365.907 329.393 356.171 326.375 344.857C324.609 336.597 324.76 327.565 328.465 320.537C327.617 322.908 327.265 325.447 327.283 327.994C327.321 333.51 329.083 339.18 331.414 343.607L331.421 343.621L331.428 343.634Z" stroke="#5C032C" stroke-opacity="0.17" stroke-width="2.13187"/>
<path d="M359.071 401.763L358.993 401.799L358.921 401.845C358.141 402.355 357.222 402.792 356.23 403.265C355.899 403.422 355.56 403.583 355.216 403.752C353.955 404.371 352.575 405.116 351.69 406.15C351.165 406.623 350.656 407.155 350.121 407.713C348.532 409.372 346.724 411.259 343.647 412.486C335.274 415.226 328.649 411.319 323.364 407.49L323.362 407.489C318.154 403.731 313.672 399.561 309.013 395.226C308.822 395.048 308.632 394.871 308.44 394.693C303.72 390.031 299.416 385.43 296.861 378.257C294.66 371.323 295.438 363.497 298.438 357.33C304.362 345.598 313.832 337.532 323.969 330.616C321.835 334.319 319.558 337.869 317.316 341.364C316.554 342.553 315.795 343.736 315.048 344.916C311.717 350.174 308.617 355.37 306.487 360.726L306.486 360.73C304.426 365.972 303.174 371.19 304.121 376.345L304.126 376.374L304.133 376.404C305.32 381.239 308.29 386.936 311.006 392.146C311.08 392.287 311.154 392.429 311.227 392.57L311.238 392.59L311.25 392.611C314.365 397.973 318.414 403.285 323.946 406.55C326.66 408.266 329.973 409.016 332.996 409.041C335.982 409.065 338.882 408.379 340.699 407.005C341.474 406.456 342.307 405.616 343.209 404.708C343.248 404.668 343.288 404.628 343.327 404.588C344.311 403.598 345.452 402.455 346.87 401.258L346.885 401.245L346.9 401.231C348.387 399.878 349.905 399.14 351.505 398.563C352.173 398.322 352.842 398.114 353.541 397.896C353.693 397.848 353.847 397.801 354.003 397.752C354.851 397.486 355.736 397.198 356.632 396.832C357.152 396.652 357.642 396.496 358.123 396.344C358.292 396.291 358.46 396.237 358.629 396.183C359.267 395.978 359.898 395.766 360.484 395.509C361.676 394.987 362.731 394.259 363.474 392.963C364.202 391.895 365.121 390.543 365.771 389.154C366.188 388.266 366.535 387.278 366.617 386.28C367.08 387.159 367.261 388.093 367.287 389.067C367.321 390.314 367.107 391.542 366.887 392.813C366.814 393.232 366.74 393.656 366.675 394.087C366.202 395.862 365.024 397.46 363.565 398.795C362.098 400.14 360.41 401.158 359.071 401.763Z" stroke="#5C032C" stroke-opacity="0.17" stroke-width="2.13187"/>
<path d="M416.888 309.115L416.868 309.042L416.838 308.972C415.826 306.672 414.478 303.287 413.625 299.822C412.761 296.311 412.46 292.919 413.337 290.497L413.349 290.465L413.358 290.433C414.8 285.468 412.247 279.245 406.443 276.076L406.441 276.075C400.841 273.033 393.847 273.42 387.755 274.637L387.707 274.647L387.66 274.66C386.517 274.995 385.384 275.333 384.258 275.668C379.244 277.161 374.381 278.61 369.51 279.583C363.489 280.786 357.162 282.336 352.128 284.513C341.806 287.757 336.906 297.858 333.998 309.468C332.795 303.948 332.517 298.266 334.328 292.518L334.332 292.504L334.336 292.491C336.21 285.913 341.912 279.628 348.33 276.824L348.349 276.816L348.368 276.807C354.465 273.865 360.528 273.182 366.893 272.465C367.255 272.424 367.617 272.384 367.981 272.342C374.69 271.579 381.219 270.991 387.62 271.277C394.265 271.677 400.998 272.458 407.091 275.163L407.111 275.172L407.131 275.18C413.017 277.517 419.672 282.744 419.86 290.587C419.566 294.218 419.959 296.77 420.565 299.331C420.735 300.05 420.919 300.758 421.107 301.485C421.595 303.366 422.115 305.374 422.522 308.015L422.526 308.044L422.532 308.073C422.854 309.573 422.836 311.562 422.422 313.502C422.007 315.45 421.221 317.216 420.125 318.361C418.078 320.458 416.011 322.402 413.395 322.942C414.194 322.231 414.839 321.374 415.373 320.493C416.162 319.188 416.751 317.754 417.23 316.504C418.418 314.032 417.842 312.203 417.245 310.305C417.122 309.913 416.998 309.519 416.888 309.115Z" stroke="#5C032C" stroke-opacity="0.17" stroke-width="2.13187"/>
<path d="M400.034 264.074L400.029 264.064L400.025 264.054C399.427 262.77 398.821 261.937 398.007 261.273C397.345 260.733 396.563 260.326 395.692 259.873C395.557 259.803 395.42 259.732 395.281 259.659L395.22 259.627L395.155 259.603C393.046 258.819 390.457 257.134 388.095 255.08C385.733 253.025 383.706 250.695 382.652 248.693L382.634 248.659L382.614 248.626C382.378 248.249 382.142 247.864 381.904 247.476C380.803 245.683 379.66 243.822 378.303 242.315C376.615 240.441 374.504 239.002 371.559 238.765C366.201 238.257 360.688 241.43 356.995 244.986L356.97 245.01L356.947 245.035C350.479 252.108 346.54 260.978 342.613 269.819C342.334 270.449 342.054 271.079 341.773 271.708C337.678 280.188 335.546 289.437 334.564 299.947C329.747 290.581 329.654 279.022 333.503 268.636C338.079 258.648 344.139 248.062 354.817 242.574C360.285 239.919 365.584 238.168 371.596 237.806L371.596 237.806L371.602 237.806C377.624 237.407 383.738 241.206 387.606 244.832C388.596 245.838 389.453 246.737 390.248 247.571C392.933 250.39 394.912 252.467 398.946 255.402L398.974 255.422L399.002 255.44C400.099 256.136 401.253 257.491 402.104 259.076C402.959 260.668 403.409 262.303 403.3 263.495L403.296 263.545L403.296 263.595C403.306 265.042 403.284 266.581 402.91 267.997C402.674 268.891 402.304 269.709 401.726 270.405C401.843 269.381 401.665 268.37 401.394 267.454C401.094 266.443 400.646 265.443 400.264 264.59C400.184 264.411 400.106 264.239 400.034 264.074Z" stroke="#5C032C" stroke-opacity="0.17" stroke-width="2.13187"/>
<path d="M311.431 337.382C311.494 337.505 311.557 337.628 311.62 337.751C306.851 334.415 302.625 330.203 299.458 324.934L299.452 324.923L299.445 324.913C295.529 318.74 294.086 310.672 296.186 303.017C298.673 295.183 304.761 289.373 311.618 286.33C317.275 283.82 323.301 282.931 329.275 283.152C323.958 285.67 318.868 288.094 314.655 291.235L314.641 291.245L314.628 291.256C309.724 295.152 305.51 299.735 304.127 305.228C302.293 310.646 303.216 316.927 304.934 322.835L304.937 322.846L304.94 322.856C306.454 327.671 308.924 332.491 311.431 337.382Z" stroke="#5C032C" stroke-opacity="0.17" stroke-width="2.13187"/>
<path d="M328.569 321.137L334.126 315.742C341.909 324.765 351.531 332.533 362.304 338.728C350.332 334.865 338.823 328.944 328.569 321.137Z" stroke="#5C032C" stroke-opacity="0.17" stroke-width="2.13187"/>
<path d="M346.605 301.423C343.078 303.081 339.379 304.676 335.05 306.006L334 298.474C337.328 298.189 341.015 297.402 344.773 296.47C346.572 296.024 348.369 295.551 350.16 295.079C352.558 294.447 354.945 293.818 357.315 293.261C357.854 293.154 358.394 293.044 358.937 292.933C362.63 292.184 366.423 291.414 370.165 291.189C370.95 291.142 371.729 291.119 372.5 291.125C371.697 291.273 370.899 291.453 370.109 291.656C366.481 292.591 362.926 294.061 359.588 295.441C359.105 295.641 358.626 295.839 358.152 296.033L358.152 296.033L358.146 296.036C355.377 297.192 352.755 298.462 350.139 299.728C348.964 300.297 347.79 300.866 346.605 301.423Z" stroke="#5C032C" stroke-opacity="0.17" stroke-width="2.13187"/>
<path d="M342.745 283.07L337.108 277.866C344.313 272.652 352.153 268.542 360.209 265.681C353.428 270.701 347.516 276.577 342.745 283.07Z" stroke="#5C032C" stroke-opacity="0.17" stroke-width="2.13187"/>
<path d="M322.469 361.179C324.473 364.825 326.757 368.332 329.095 371.819C325.95 368.916 322.828 365.96 319.882 362.707L319.868 362.692L319.853 362.677C317.411 360.188 314.674 356.604 313.844 352.731L313.839 352.705L313.832 352.68L312.5 347.726L312.654 347.352L315.988 339.294C318.049 340.8 318.774 342.145 319.054 343.207C319.22 343.835 319.246 344.422 319.245 344.996C319.245 345.085 319.244 345.179 319.242 345.278C319.237 345.705 319.23 346.21 319.306 346.645L319.399 351.885L319.399 351.885L319.399 351.892C319.484 355.288 320.563 358.005 322.469 361.179Z" stroke="#5C032C" stroke-opacity="0.17" stroke-width="2.13187"/>
<path d="M37.2808 147.896C38.2139 146.797 39.0418 145.603 39.7693 144.35C42.5611 139.539 43.9351 133.756 44.166 128.74L44.1665 128.728L44.1668 128.715C44.3856 118.487 43.3855 107.45 40.5812 97.9057C37.7663 88.325 32.1833 79.3474 23.7695 74.0097C19.7092 71.4339 14.6187 69.8836 9.70728 69.9735C4.78009 70.0637 -0.0343752 71.8131 -3.35956 75.9116L-3.35958 75.9116L-3.36389 75.917C-3.90251 76.5897 -4.39362 77.2647 -4.8842 77.9391C-6.01085 79.4877 -7.13472 81.0325 -8.8249 82.536C-11.061 84.5251 -14.4414 85.2372 -17.078 85.7644C-22.8886 86.3359 -27.7932 88.8311 -30.7852 93.612C-37.0022 103.145 -32.8098 114.716 -27.1328 122.908C-21.4698 131.602 -14.0223 138.743 -5.28278 145.012L-5.2664 145.024L-5.24958 145.035C0.413105 148.78 6.98417 151.859 13.9631 153.316C6.753 152.938 -0.489504 151.58 -7.50432 148.765L-7.51418 148.761L-7.52411 148.757C-18.5276 144.589 -28.0281 136.447 -33.2094 125.912L-33.2121 125.906C-38.3647 115.583 -39.4153 102.126 -32.242 92.9758L-32.2197 92.9474L-32.1995 92.9177C-29.0874 88.3449 -23.2638 84.9751 -17.887 84.3032C-14.598 84.0346 -12.4094 82.7954 -10.7021 80.8983C-9.27979 79.3179 -8.19166 77.2682 -7.04326 75.1051C-6.87172 74.7819 -6.69883 74.4563 -6.52328 74.1292C-3.31867 68.3986 2.44417 65.3051 8.79566 64.4178C15.1658 63.5279 22.0223 64.8797 27.2012 67.9354L27.2223 67.9478L27.2439 67.9593C38.4225 73.8853 45.8697 84.6724 48.8787 95.9658C51.7923 107.497 51.9764 118.676 48.6732 129.976C46.3365 136.783 42.5379 143.405 37.2808 147.896Z" stroke="#5C032C" stroke-opacity="0.17" stroke-width="2.13187"/>
<path d="M37.5719 72.9705C37.0174 73.3515 36.4519 73.7837 35.9586 74.2689C36.0745 73.4708 36.3742 72.7197 36.7853 71.9901C37.3764 70.9409 38.134 70.0273 38.9092 69.0924C39.2261 68.7103 39.5459 68.3246 39.8585 67.9247C41.2085 66.6017 43.0279 65.776 44.9394 65.3272C46.8712 64.8737 48.8249 64.823 50.3182 64.9934L50.4312 65.0063L50.5447 64.996C51.5568 64.9045 52.7327 64.9907 53.9978 65.0834C54.2413 65.1012 54.4882 65.1193 54.7378 65.1364C56.1496 65.2332 57.7614 65.3117 58.9857 64.9012C59.501 64.766 60.0425 64.5997 60.616 64.4235C62.9026 63.7213 65.6967 62.8631 69.3579 63.203C77.9605 64.8815 81.6624 71.424 84.2714 77.3576C86.8689 83.2651 88.793 89.4652 90.5566 95.6018C92.2001 101.882 93.5098 108.062 92.0621 115.482C90.4567 122.72 85.5847 128.861 79.9267 132.94C68.7629 140.24 56.281 142.786 43.8251 143.817C47.5313 141.662 51.2913 139.709 54.9919 137.786C56.3203 137.095 57.641 136.409 58.9489 135.719C64.5168 132.78 69.8374 129.778 74.3277 126.154C78.7057 122.659 82.6128 118.875 84.5235 113.755L84.5347 113.725L84.544 113.694C85.9908 108.942 86.5225 102.21 86.8821 96.2371L86.8839 96.2077L86.8839 96.1782C86.8986 89.9121 86.1667 83.4939 82.9608 77.9576C81.5366 75.1223 79.0907 72.8843 76.488 71.4226C73.9146 69.9774 71.0473 69.2142 68.7033 69.5007C67.7055 69.5482 66.5474 69.8884 65.344 70.2418C65.2783 70.2611 65.2125 70.2804 65.1466 70.2997C63.7949 70.6959 62.2317 71.1467 60.3534 71.4525L60.3164 71.4585L60.2798 71.467C58.253 71.9382 56.5516 71.8518 54.8806 71.5863C54.1823 71.4754 53.5019 71.3356 52.7908 71.1894C52.6355 71.1575 52.4788 71.1253 52.3201 71.093C51.4563 70.9174 50.55 70.7433 49.591 70.6323C49.0971 70.5468 48.602 70.4484 48.1155 70.3517C47.21 70.1718 46.3344 69.9978 45.5525 69.9237C44.2362 69.7988 42.9462 69.9138 41.5634 70.6262L41.5461 70.6351L41.5292 70.6446C41.3071 70.769 41.0721 70.8987 40.8282 71.0333C39.796 71.6031 38.6054 72.2603 37.5719 72.9705Z" stroke="#5C032C" stroke-opacity="0.17" stroke-width="2.13187"/>
<path d="M-47.4706 117.126L-47.4961 117.211L-47.5067 117.298C-47.8031 119.718 -48.3581 123.301 -49.4139 126.719C-50.4844 130.184 -52.0073 133.265 -54.1039 134.897L-54.1416 134.926L-54.1764 134.958C-57.9557 138.468 -59.0098 145.296 -55.5875 150.805C-52.3609 156.168 -46.1643 159.283 -40.1569 161.155L-40.1249 161.165L-40.0924 161.173C-37.992 161.689 -35.8894 162.162 -33.7996 162.632C-29.6692 163.561 -25.5887 164.478 -21.6736 165.698C-15.7795 167.534 -9.47101 169.359 -3.87675 169.734C6.74237 171.895 16.0688 165.443 24.7688 156.775C23.0165 162.052 20.0787 167.228 15.6094 171.601C10.6686 176.435 2.4559 179.067 -4.73327 178.419L-4.75341 178.418L-4.77362 178.417C-11.9628 178.033 -17.9011 175.439 -24.0323 172.751L-24.047 172.744L-24.0619 172.738C-30.2438 170.243 -36.186 167.421 -41.609 164.219C-47.1194 160.723 -52.4702 156.846 -56.5273 151.482L-56.539 151.466L-56.5512 151.451C-60.484 146.636 -63.4747 138.815 -59.7196 131.902C-57.6232 128.813 -56.628 126.406 -55.8202 123.912C-55.568 123.133 -55.3383 122.362 -55.1016 121.567C-54.5733 119.794 -54.0101 117.904 -53.0833 115.546L-53.0668 115.504L-53.054 115.461C-52.6339 114.042 -51.5992 112.329 -50.2063 110.841C-48.8098 109.349 -47.1597 108.196 -45.5882 107.759L-45.5882 107.759L-45.5815 107.757C-42.7319 106.944 -39.8922 106.205 -37.3118 107.017C-38.3681 107.239 -39.3842 107.665 -40.3102 108.156C-41.696 108.892 -42.978 109.827 -44.0114 110.613C-45.3588 111.552 -46.0528 112.559 -46.4968 113.698C-46.7093 114.243 -46.8607 114.808 -47.0021 115.365C-47.0282 115.467 -47.054 115.57 -47.0799 115.673C-47.1975 116.141 -47.3163 116.614 -47.4706 117.126Z" stroke="#5C032C" stroke-opacity="0.17" stroke-width="2.13187"/>
<path d="M-56.6824 160.332C-56.1341 159.772 -55.5351 159.31 -54.8535 158.989C-55.2273 159.646 -55.4737 160.354 -55.6482 161.043C-55.9056 162.06 -56.0301 163.148 -56.1377 164.088C-56.1616 164.297 -56.1846 164.499 -56.2081 164.691C-56.3858 166.142 -56.2811 167.173 -55.8826 168.147C-55.5967 168.846 -55.1517 169.508 -54.677 170.215C-54.5485 170.406 -54.4179 170.601 -54.2877 170.8L-54.2502 170.857L-54.2054 170.909C-52.7362 172.614 -51.3891 175.335 -50.411 178.273C-49.4355 181.203 -48.8694 184.221 -48.8809 186.463L-48.8809 186.463L-48.8809 186.475C-48.8788 186.774 -48.8778 187.076 -48.8769 187.38C-48.8699 189.587 -48.8626 191.904 -48.4285 194.01C-47.9243 196.456 -46.8268 198.731 -44.435 200.384L-44.4177 200.396L-44.4 200.407C-39.8941 203.266 -33.6734 203.353 -28.5505 201.879L-28.5357 201.875L-28.5211 201.87C-19.5014 199.005 -11.7927 193.528 -4.12396 188.079C-3.28419 187.482 -2.4449 186.886 -1.60442 186.293C6.26711 180.991 12.9711 174.115 18.9943 165.599C18.5266 175.788 12.6447 186.113 3.90204 193.229C-5.16709 199.649 -15.763 205.934 -28.1662 205.481C-34.2934 205.136 -39.8792 204.135 -45.0565 201.544L-45.0684 201.538L-45.0805 201.533C-50.4885 198.991 -53.8599 192.829 -55.2459 187.742C-55.5292 186.559 -55.769 185.494 -55.9927 184.5C-56.8768 180.574 -57.5118 177.753 -59.6002 173.119L-59.6185 173.079L-59.6402 173.04C-60.2391 171.97 -60.5354 170.256 -60.4593 168.46C-60.3829 166.658 -59.9426 165.016 -59.3015 164.074L-59.2813 164.044L-59.2631 164.013C-58.4872 162.688 -57.6959 161.368 -56.6824 160.332Z" stroke="#5C032C" stroke-opacity="0.17" stroke-width="2.13187"/>
<path d="M58.8279 144.326C58.8387 144.172 58.8495 144.017 58.8604 143.863C61.1196 148.864 62.4308 154.403 62.5151 160.185C62.6207 167.427 59.951 175.19 53.9808 180.823C47.8368 186.346 39.3844 188.596 32.0196 187.842L32.0196 187.842L32.0076 187.841C25.7013 187.264 20.0553 185.243 15.1596 182.211C21.0506 182.65 26.79 182.952 32.0278 182.268L32.0396 182.267L32.0514 182.265C38.228 181.324 44.3458 179.239 48.4124 175.21C52.6154 171.324 55.2274 165.544 56.9846 159.653L56.9941 159.622L57.0014 159.59C58.0912 154.858 58.4556 149.648 58.8279 144.326Z" stroke="#5C032C" stroke-opacity="0.17" stroke-width="2.13187"/>
<path d="M35.3333 149.653L27.6237 151.749C25.5196 140.416 21.4158 129.094 15.3669 118.658C23.5789 127.706 30.3694 138.158 35.3333 149.653Z" stroke="#5C032C" stroke-opacity="0.17" stroke-width="2.13187"/>
<path d="M18.6084 166.707C15.5738 165.371 12.0589 164.309 8.40908 163.329C6.77931 162.892 5.13276 162.473 3.48272 162.054C0.940704 161.407 -1.60959 160.758 -4.11952 160.036C-4.65034 159.86 -5.18628 159.685 -5.72574 159.508C-9.22995 158.361 -12.8826 157.166 -16.2429 155.541C-16.759 155.292 -17.2663 155.033 -17.7632 154.764C-17.2219 154.93 -16.6759 155.083 -16.1268 155.223C-12.8835 156.055 -9.45253 156.489 -6.17814 156.903C-5.29333 157.015 -4.41995 157.126 -3.5648 157.242L-3.54719 157.244L-3.5295 157.246C-0.739943 157.535 2.01672 157.687 4.76146 157.837C6.25155 157.919 7.73813 158.001 9.22455 158.104C13.1301 158.376 17.1327 158.801 21.4783 159.77L18.6084 166.707Z" stroke="#5C032C" stroke-opacity="0.17" stroke-width="2.13187"/>
<path d="M7.32497 173.265L9.47858 180.652C-0.360758 181.922 -10.4808 182.853 -20.2008 181.909C-10.5884 180.259 -1.43801 176.873 7.32497 173.265Z" stroke="#5C032C" stroke-opacity="0.17" stroke-width="2.13187"/>
<path d="M64.1897 129.054L62.6032 134.126L62.3684 134.303L55.4025 139.537C54.5588 137.519 54.6299 136.113 54.9122 135.087C55.0899 134.441 55.3652 133.893 55.6517 133.361C55.6825 133.304 55.7149 133.245 55.7484 133.184C55.9648 132.787 56.2248 132.311 56.3639 131.845L58.8897 127.429C60.7667 124.647 61.0214 121.429 61.1098 117.688C61.28 113.66 61.0908 109.542 60.8353 105.435C62.023 109.405 63.1677 113.439 64.1453 117.603L64.1478 117.613L64.1506 117.624C65.0079 120.948 65.3517 125.292 64.1902 129.053C64.19 129.053 64.1899 129.054 64.1897 129.054Z" stroke="#5C032C" stroke-opacity="0.17" stroke-width="2.13187"/>
<path d="M51.9533 318.184C60.3852 275.045 63.8234 231.232 59.3767 187.09C69.7131 230.333 68.1257 276.184 58.1248 319.451C46.2247 365.661 27.5372 409.492 8.5818 453.013C-29.5578 537.265 -81.0126 614.435 -133.042 690.955C-112.529 651.197 -89.7322 612.782 -66.6785 574.548C-63.5855 569.418 -60.4878 564.291 -57.3904 559.165C-35.8951 523.592 -14.4127 488.039 5.39406 451.607C28.7336 410.005 44.207 364.622 51.9533 318.184Z" stroke="#5C032C" stroke-opacity="0.17" stroke-width="2.13187"/>
<path d="M219.428 310.839C243.877 304.589 269.593 302.382 294.753 304.701C269.766 308.233 245.367 312.184 220.866 316.941C194.778 320.562 168.887 327.472 145.721 340.241C100.814 364.096 60.3365 392.781 21.8716 425.847C52.0312 385.251 96.1009 354.836 144.322 337.107C153.903 333.821 163.315 330.386 172.706 326.959C188.119 321.335 203.475 315.732 219.428 310.839Z" stroke="#5C032C" stroke-opacity="0.17" stroke-width="2.13187"/>
<path d="M61.7842 288.535C77.9061 275.778 94.3692 262.519 104.191 244.808C115.433 224.645 117.05 200.771 127.545 180.613C109.281 191.053 92.4711 204.092 80.6894 221.039C68.9077 237.987 62.154 258.842 61.8981 288.368L61.7842 288.535Z" stroke="#5C032C" stroke-opacity="0.17" stroke-width="0.63956" stroke-miterlimit="10"/>
<path d="M67.3377 284.194L63.6441 282.914C69.2281 270.207 75.9493 258.036 83.6906 246.572C77.0949 258.658 71.6099 271.28 67.3377 284.194Z" stroke="#5C032C" stroke-opacity="0.17" stroke-width="2.13187"/>
<path d="M51.252 319.681C51.5482 304.307 51.8987 288.487 44.7375 275.325C36.5864 260.338 19.3303 250.348 10.5508 235.92C6.92426 251.816 6.45988 267.802 11.904 282.03C17.3481 296.258 28.9284 308.393 51.4252 319.791L51.252 319.681Z" stroke="#5C032C" stroke-opacity="0.17" stroke-width="0.63956" stroke-miterlimit="10"/>
<path d="M51.252 319.681C51.5482 304.307 51.8987 288.487 44.7375 275.325C36.5864 260.338 19.3303 250.348 10.5508 235.92C6.92426 251.816 6.45988 267.802 11.904 282.03C17.3481 296.258 28.9284 308.393 51.4252 319.791L51.252 319.681Z" stroke="#5C032C" stroke-opacity="0.17" stroke-width="0.63956" stroke-miterlimit="10"/>
<path d="M52.1677 313.016L49.093 315.459C42.9347 307.058 37.8856 297.923 34.0229 288.411C39.1186 297.334 45.2771 305.626 52.1677 313.016Z" stroke="#5C032C" stroke-opacity="0.17" stroke-width="2.13187"/>
<path d="M30.3087 426.589C44.5157 419.56 59.1234 412.307 74.5333 412.985C92.0117 413.538 109.1 424.139 126.123 425.361C112.856 435.381 98.1346 442.801 82.6258 444.455C66.9439 445.999 50.6431 441.165 30.1949 426.756L30.3087 426.589Z" stroke="#5C032C" stroke-opacity="0.17" stroke-width="1.06593" stroke-miterlimit="10"/>
<path d="M30.3087 426.589C44.5157 419.56 59.1234 412.307 74.5333 412.985C92.0117 413.538 109.1 424.139 126.123 425.361C112.856 435.381 98.1346 442.801 82.6258 444.455C66.9439 445.999 50.6431 441.165 30.1949 426.756L30.3087 426.589Z" stroke="#5C032C" stroke-opacity="0.17" stroke-width="0.63956" stroke-miterlimit="10"/>
<path d="M39.0338 430.864L40.8795 423.397C52.6954 427.232 65.241 429.526 77.9861 430.054C65.3388 432.138 52.1353 432.453 39.0338 430.864Z" stroke="#5C032C" stroke-opacity="0.17" stroke-width="2.13187"/>
<path d="M202.853 323.199C210.247 336.749 218.046 350.795 230.977 358.759C245.7 368.099 265.88 368.69 280.711 377.141C275.891 361.633 268.205 347.42 256.353 337.506C244.5 327.593 228.14 322.482 202.853 323.199Z" stroke="#5C032C" stroke-opacity="0.17" stroke-width="0.63956" stroke-miterlimit="10"/>
<path d="M202.853 323.199C210.247 336.749 218.046 350.795 230.977 358.759C245.7 368.099 265.88 368.69 280.711 377.141C275.891 361.633 268.205 347.42 256.353 337.506C244.5 327.593 228.14 322.482 202.853 323.199Z" stroke="#5C032C" stroke-opacity="0.17" stroke-width="0.63956" stroke-miterlimit="10"/>
<path d="M205.219 329.104L206.527 325.583C217.132 330.014 227.191 335.51 236.437 342.016C226.533 336.582 216.056 332.293 205.219 329.104Z" stroke="#5C032C" stroke-opacity="0.17" stroke-width="2.13187"/>
<path d="M-43.837 551.219C-25.1175 531.73 -5.76958 511.681 17.9189 504.203C44.7051 495.817 74.2534 504.506 100.817 497.176C84.6017 521.366 65.3726 541.969 42.2831 552.94C19.3668 564.02 -7.41486 564.748 -43.837 551.219Z" stroke="#5C032C" stroke-opacity="0.17" stroke-width="1.06593" stroke-miterlimit="10"/>
<path d="M-43.837 551.219C-25.1175 531.73 -5.76958 511.681 17.9189 504.203C44.7051 495.817 74.2534 504.506 100.817 497.176C84.6017 521.366 65.3726 541.969 42.2831 552.94C19.3668 564.02 -7.41486 564.748 -43.837 551.219Z" stroke="#5C032C" stroke-opacity="0.17" stroke-width="1.06593" stroke-miterlimit="10"/>
<path d="M-36.9962 553.738L-37.8379 546.085C-17.6823 545.296 2.56299 541.262 21.9076 534.253C3.68597 543.602 -16.2416 550.357 -36.9962 553.738Z" stroke="#5C032C" stroke-opacity="0.17" stroke-width="2.13187"/>
<path d="M-27.3526 524.025L-35.391 523.177C-27.7376 463.969 -34.7261 402.048 -57.878 345.875C-48.2185 366.701 -40.8381 388.582 -35.5203 410.883C-26.861 447.834 -23.9315 486.067 -27.3526 524.025Z" stroke="#5C032C" stroke-opacity="0.17" stroke-width="2.13187"/>
<path d="M108.389 353.776C119.463 342.605 130.652 331.267 134.748 316.867C139.176 300.522 133.643 281.688 137.383 265.625C123.538 275.038 111.889 286.324 105.892 300.237C99.8954 314.15 100.01 330.743 108.389 353.776Z" stroke="#5C032C" stroke-opacity="0.17" stroke-width="0.63956" stroke-miterlimit="10"/>
<path d="M108.389 353.776C119.463 342.605 130.652 331.267 134.748 316.867C139.176 300.522 133.643 281.688 137.383 265.625C123.538 275.038 111.889 286.324 105.892 300.237C99.8954 314.15 100.01 330.743 108.389 353.776Z" stroke="#5C032C" stroke-opacity="0.17" stroke-width="0.63956" stroke-miterlimit="10"/>
<path d="M111.84 350.026L108.012 349.811C109.359 339.908 111.922 330.155 115.529 320.891C113.158 330.455 111.961 340.262 111.84 350.026Z" stroke="#5C032C" stroke-opacity="0.17" stroke-width="2.13187"/>
<path d="M133.381 343.293C143.362 340.287 153.63 337.224 159.326 329.584C165.877 321.051 165.955 307.454 171.987 298.591C160.497 299.442 149.942 302.562 142.801 309.046C135.661 315.529 132.227 326.041 133.381 343.293Z" stroke="#5C032C" stroke-opacity="0.17" stroke-width="0.63956" stroke-miterlimit="10"/>
<path d="M133.381 343.293C143.362 340.287 153.63 337.224 159.326 329.584C165.877 321.051 165.955 307.454 171.987 298.591C160.497 299.442 149.942 302.562 142.801 309.046C135.661 315.529 132.227 326.041 133.381 343.293Z" stroke="#5C032C" stroke-opacity="0.17" stroke-width="0.63956" stroke-miterlimit="10"/>
<path d="M135.083 337.397C138.378 331.622 142.47 326.382 147.188 321.919C143.491 327.202 140.67 332.941 138.764 338.805L135.083 337.397Z" stroke="#5C032C" stroke-opacity="0.17" stroke-width="2.13187"/>
<path d="M230.265 288.395C233.937 278.992 237.662 269.145 234.841 260.173C231.723 249.815 220.687 241.617 217.055 231.651C210.681 241.015 206.842 251.03 207.941 260.346C209.04 269.663 215.31 278.668 230.265 288.395Z" stroke="#5C032C" stroke-opacity="0.17" stroke-width="0.63956" stroke-miterlimit="10"/>
<path d="M230.265 288.395C233.937 278.992 237.662 269.145 234.841 260.173C231.723 249.815 220.687 241.617 217.055 231.651C210.681 241.015 206.842 251.03 207.941 260.346C209.04 269.663 215.31 278.668 230.265 288.395Z" stroke="#5C032C" stroke-opacity="0.17" stroke-width="0.63956" stroke-miterlimit="10"/>
<path d="M229.681 281.528L226.414 283.422C223.723 277.541 221.919 271.343 221.092 265.112C223.155 271.047 226.105 276.592 229.681 281.528Z" stroke="#5C032C" stroke-opacity="0.17" stroke-width="2.13187"/>
<path d="M239.479 274.846C246.961 267.861 254.844 260.651 264.494 259.59C275.579 258.242 287.752 264.768 298.669 264.032C292.295 273.396 284.299 280.773 275.006 283.497C265.712 286.221 254.662 284.239 239.479 274.846Z" stroke="#5C032C" stroke-opacity="0.17" stroke-width="0.63956" stroke-miterlimit="10"/>
<path d="M239.479 274.846C246.961 267.861 254.844 260.651 264.494 259.59C275.579 258.242 287.752 264.768 298.669 264.032C292.295 273.396 284.299 280.773 275.006 283.497C265.712 286.221 254.662 284.239 239.479 274.846Z" stroke="#5C032C" stroke-opacity="0.17" stroke-width="0.63956" stroke-miterlimit="10"/>
<path d="M245.726 276.279L246.229 272.64C252.38 273.899 258.73 274.297 265.095 273.77C258.887 275.483 252.332 276.329 245.726 276.279Z" stroke="#5C032C" stroke-opacity="0.17" stroke-width="2.13187"/>
<path d="M260.815 227.09C267.446 230.1 274.538 233.162 281.025 232.01C288.374 230.686 294.594 224.097 301.71 222.387C295.009 217.657 288.032 214.428 281.306 214.471C274.581 214.514 267.995 217.998 260.815 227.09Z" stroke="#5C032C" stroke-opacity="0.17" stroke-width="0.63956" stroke-miterlimit="10"/>
<path d="M260.815 227.09C267.446 230.1 274.538 233.162 281.025 232.01C288.374 230.686 294.594 224.097 301.71 222.387C295.009 217.657 288.032 214.428 281.306 214.471C274.581 214.514 267.995 217.998 260.815 227.09Z" stroke="#5C032C" stroke-opacity="0.17" stroke-width="0.63956" stroke-miterlimit="10"/>
<path d="M266.316 227.315L264.883 224.219C269.034 223.179 273.226 222.647 277.353 222.639C273.384 223.754 269.668 225.367 266.316 227.315Z" stroke="#5C032C" stroke-opacity="0.17" stroke-width="2.13187"/>
<path d="M262.688 214.15C258.679 208.015 254.67 201.881 254.972 195.608C255.382 188.446 261.256 181.637 261.953 174.418C267.684 180.209 271.98 186.286 272.772 192.774C273.564 199.262 270.966 205.994 262.688 214.15Z" stroke="#5C032C" stroke-opacity="0.17" stroke-width="0.63956" stroke-miterlimit="10"/>
<path d="M262.688 214.15C258.679 208.015 254.67 201.881 254.972 195.608C255.382 188.446 261.256 181.637 261.953 174.418C267.684 180.209 271.98 186.286 272.772 192.774C273.564 199.262 270.966 205.994 262.688 214.15Z" stroke="#5C032C" stroke-opacity="0.17" stroke-width="0.63956" stroke-miterlimit="10"/>
<path d="M261.598 208.93C263.222 205.473 264.369 201.733 264.92 197.817C265.513 201.749 265.547 205.861 264.957 209.977L261.598 208.93Z" stroke="#5C032C" stroke-opacity="0.17" stroke-width="2.13187"/>
<path d="M-26.0285 450.705C-12.8458 445.182 0.678313 439.156 5.948 428.134C11.8956 415.386 6.65411 397.217 11.9682 384.307C-4.27776 387.409 -18.1483 393.214 -25.7241 403.253C-33.2999 413.291 -34.4076 427.672 -26.1424 450.873L-26.0285 450.705Z" stroke="#5C032C" stroke-opacity="0.17" stroke-width="0.63956" stroke-miterlimit="10"/>
<path d="M-26.0285 450.705C-12.8458 445.182 0.678313 439.156 5.948 428.134C11.8956 415.386 6.65411 397.217 11.9682 384.307C-4.27776 387.409 -18.1483 393.214 -25.7241 403.253C-33.2999 413.291 -34.4076 427.672 -26.1424 450.873L-26.0285 450.705Z" stroke="#5C032C" stroke-opacity="0.17" stroke-width="0.63956" stroke-miterlimit="10"/>
<path d="M-22.8418 446.663L-26.693 446.167C-24.6363 437.486 -21.1511 429.272 -16.3786 421.903C-19.9825 429.807 -22.1492 438.229 -22.8418 446.663Z" stroke="#5C032C" stroke-opacity="0.17" stroke-width="2.13187"/>
<path d="M248.276 256.71C243.598 277.089 238.628 298.741 223.389 315.836L217.695 310.58C232.744 296.181 239.44 275.406 245.779 255.019C249.103 244.664 252.506 234.259 258.008 224.735C258.742 223.464 259.517 222.216 260.333 220.996C259.602 222.292 258.916 223.611 258.278 224.951C253.577 234.806 250.983 245.248 248.472 255.857L248.47 255.863C248.405 256.145 248.341 256.428 248.276 256.71Z" stroke="#5C032C" stroke-opacity="0.17" stroke-width="2.13187"/>
</svg>
