<svg width="228" height="415" viewBox="0 0 228 415" fill="none" xmlns="http://www.w3.org/2000/svg">
<path d="M64.6984 161.395C64.3888 163.514 63.6818 165.569 62.8201 167.264L62.8131 167.278L62.8056 167.291C60.3354 171.818 57.2024 176.32 53.5101 179.851C49.8924 183.335 45.2485 186.05 40.1751 186.312L40.1717 186.313C37.7291 186.431 35.1088 185.856 32.9801 184.592C30.8396 183.322 29.1427 181.314 28.7406 178.591C28.6798 178.199 28.6372 177.727 28.596 177.271C28.5725 177.011 28.5495 176.756 28.5238 176.524C28.5006 176.314 28.474 176.105 28.442 175.898C28.4713 176.606 28.4432 177.341 28.415 178.078C28.4092 178.23 28.4034 178.383 28.398 178.535L28.3979 178.539C28.2807 181.547 29.8018 184.127 32.141 185.971C34.492 187.825 37.5814 188.858 40.3619 188.775L40.3906 188.774L40.4193 188.775C46.3743 188.919 52.0347 186.131 55.9855 182.052C59.9415 177.826 62.7999 173.059 64.2263 167.53C64.6443 165.501 64.8293 163.403 64.6984 161.395ZM29.717 150.168C26.593 152.221 23.9673 155.358 22.8097 158.883C24.5068 155.693 27.7169 153.344 30.7267 151.853C35.2952 149.467 40.2436 148.057 45.5863 147.471L45.5863 147.471L45.5956 147.47C46.9532 147.333 48.3483 147.294 49.7525 147.369C48.4356 146.991 47.0834 146.702 45.6943 146.519L45.6814 146.517L45.6686 146.515C40.2094 145.66 34.316 146.919 29.7469 150.148L29.7321 150.158L29.717 150.168Z" stroke="#5C032C" stroke-opacity="0.17" stroke-width="2.13187"/>
<path d="M66.5222 199.279C63.9651 201.197 60.577 203.304 56.2725 201.837C54.6638 201.177 53.6767 200.109 52.8984 199.266C52.6492 198.996 52.4214 198.75 52.2014 198.547C51.7764 198.013 50.9892 197.625 50.1964 197.234C49.7101 196.995 49.2218 196.754 48.8136 196.478L66.5222 199.279ZM66.5222 199.279C69.054 197.386 71.2313 195.288 73.4674 193.133C73.5633 193.041 73.6593 192.948 73.7555 192.855L66.5222 199.279ZM51.1361 196.511C51.7262 196.811 52.4734 197.217 52.9792 197.815C53.2674 198.085 53.5308 198.37 53.7961 198.657C54.5383 199.459 55.2949 200.277 56.6473 200.839C59.3412 201.746 61.6373 201.076 63.6545 199.923C62.9538 200.088 62.2465 200.167 61.5715 200.173C60.071 200.186 58.5397 199.834 57.5328 199.049C57.1232 198.746 56.6949 198.299 56.2788 197.865C56.2544 197.839 56.23 197.814 56.2057 197.789C55.7328 197.295 55.1981 196.741 54.5355 196.162L54.5206 196.149L54.5061 196.135C53.8589 195.525 53.1983 195.189 52.4712 194.917C52.1624 194.802 51.8544 194.703 51.5187 194.594C51.4445 194.57 51.3689 194.546 51.2916 194.521C50.8852 194.389 50.446 194.241 49.9971 194.052C49.7601 193.967 49.5387 193.895 49.3139 193.821C49.2309 193.794 49.1475 193.766 49.0626 193.738C48.7533 193.635 48.4265 193.522 48.1166 193.381C47.4774 193.091 46.8697 192.666 46.4413 191.903C46.2161 191.561 45.942 191.143 45.6872 190.692C45.7186 190.922 45.7581 191.158 45.7997 191.407C45.8347 191.616 45.8712 191.834 45.9055 192.064C46.1042 192.809 46.595 193.513 47.245 194.13C47.9046 194.756 48.667 195.232 49.2655 195.512L49.3414 195.548L49.4108 195.595C49.7532 195.826 50.149 196.022 50.6148 196.251C50.7795 196.333 50.9531 196.418 51.1361 196.511ZM72.5116 191.703C72.1138 192.412 71.6823 193.124 71.2119 193.82C71.72 193.337 72.2286 192.847 72.7431 192.351C72.83 192.267 72.9172 192.183 73.0045 192.099C75.2613 189.79 77.2532 187.573 78.4394 184.129C79.4534 180.813 79.094 177.056 77.7066 174.1C75.3227 169.212 71.7168 165.615 67.6976 162.536C68.317 163.573 68.9487 164.593 69.5773 165.608C69.9456 166.203 70.3128 166.796 70.6758 167.39C72.2797 170.012 73.7939 172.637 74.8372 175.355L74.8387 175.359C75.8425 178.004 76.484 180.714 76.0031 183.425L75.9978 183.455L75.9908 183.485C75.4047 185.959 73.9504 188.847 72.6563 191.418C72.6154 191.499 72.5747 191.58 72.5341 191.661L72.5233 191.682L72.5116 191.703Z" stroke="#5C032C" stroke-opacity="0.17" stroke-width="2.13187"/>
<path d="M52.5716 137.069C57.0472 138.539 59.459 142.616 60.9409 147.391C61.1081 145.517 60.9876 143.626 60.4101 141.728L60.4059 141.714L60.4021 141.7C59.5439 138.58 56.912 135.572 53.965 134.239L53.9463 134.23L53.928 134.221C51.0818 132.799 48.2528 132.468 45.1723 132.108C45.0058 132.089 44.8386 132.069 44.6706 132.049C41.4483 131.67 38.3461 131.382 35.3156 131.521C34.4683 131.574 33.6234 131.64 32.7861 131.734C33.6655 131.813 34.5272 131.953 35.3451 132.123L35.3924 132.133L35.4387 132.147C35.9942 132.315 36.5432 132.485 37.087 132.652C39.4982 133.396 41.8074 134.108 44.1231 134.587C47.0174 135.186 50.0981 135.965 52.5716 137.069ZM22.3838 140.677C21.8321 138.709 22.3824 136.421 23.8519 134.662C21.9569 135.997 20.3978 137.997 20.3273 140.581C20.4702 142.444 20.2732 143.765 19.974 145.074C19.8882 145.449 19.7975 145.812 19.7055 146.18C19.4729 147.109 19.232 148.072 19.0405 149.36L19.0361 149.39L19.03 149.419C18.8928 150.082 18.8964 150.998 19.0834 151.906C19.2718 152.821 19.6189 153.597 20.0557 154.071C20.4209 154.458 20.7709 154.815 21.1195 155.122C20.8881 154.64 20.7001 154.157 20.5415 153.73C19.8892 152.305 20.2355 151.182 20.5278 150.234C20.5843 150.051 20.6387 149.875 20.6835 149.704L20.7031 149.629L20.7333 149.558C21.2145 148.425 21.8503 146.77 22.2502 145.086C22.6611 143.356 22.7725 141.795 22.404 140.741L22.3929 140.71L22.3838 140.677Z" stroke="#5C032C" stroke-opacity="0.17" stroke-width="2.13187"/>
<path d="M28.2961 127.148C28.2932 127.575 28.2997 127.98 28.3316 128.357C28.4567 128.02 28.5953 127.7 28.7133 127.427C28.7506 127.341 28.7858 127.26 28.8179 127.184L28.8223 127.174L28.827 127.164C29.1369 126.475 29.4718 125.983 29.9451 125.583C30.3113 125.273 30.7457 125.039 31.1597 124.817C31.2235 124.783 31.2868 124.749 31.3493 124.715L31.4107 124.681L31.4759 124.656C32.404 124.299 33.5918 123.507 34.7007 122.508C35.8092 121.509 36.7313 120.4 37.1965 119.485L37.2142 119.45L37.2343 119.417C37.3423 119.238 37.4521 119.053 37.5642 118.864C38.0938 117.97 38.6754 116.988 39.3644 116.195C39.688 115.823 40.0479 115.476 40.4543 115.181C38.6473 115.758 36.9394 116.965 35.6857 118.18C35.2239 118.666 34.8203 119.105 34.4428 119.515C33.1428 120.929 32.1533 122.005 30.1694 123.5L30.142 123.521L30.1133 123.54C29.6916 123.817 29.1918 124.404 28.8083 125.144C28.4213 125.89 28.2525 126.597 28.292 127.048L28.2964 127.098L28.2961 127.148ZM50.8183 117.159C50.2578 116.877 49.7026 116.617 49.1482 116.38C49.608 116.735 50.0335 117.112 50.4157 117.493L50.4397 117.517L50.4621 117.542C53.6329 121.134 55.5602 125.63 57.4411 130.018C57.5772 130.336 57.713 130.652 57.8491 130.968C59.5791 134.681 60.5875 138.675 61.1367 143.097C62.5481 138.983 62.3769 134.228 60.8214 129.869C58.6257 124.908 55.7727 119.799 50.8183 117.159Z" stroke="#5C032C" stroke-opacity="0.17" stroke-width="2.13187"/>
<path d="M75.5933 156.834C75.0569 158.601 74.2742 160.372 73.4254 162.14C74.8902 160.811 76.1883 159.258 77.2368 157.451L77.2432 157.44L77.2498 157.429C79.0557 154.481 79.7258 150.618 78.7579 146.951C77.6101 143.217 74.8011 140.435 71.6243 138.974C69.7428 138.109 67.7685 137.642 65.7711 137.485C67.5543 138.396 69.2552 139.353 70.7351 140.495L70.7482 140.505L70.761 140.516C73.1428 142.476 75.2761 144.846 75.9878 147.745C76.9122 150.595 76.4322 153.847 75.5996 156.812L75.5966 156.823L75.5933 156.834Z" stroke="#5C032C" stroke-opacity="0.17" stroke-width="2.13187"/>
<path d="M62.8834 155.779L61.0575 153.943C58.4207 157.029 55.3711 159.814 52.0166 162.247C55.8339 160.551 59.4972 158.386 62.8834 155.779Z" stroke="#5C032C" stroke-opacity="0.17" stroke-width="2.13187"/>
<path d="M55.2713 145.514C56.7828 146.25 58.3493 146.956 60.1339 147.563L60.4769 145.015C58.9818 144.836 57.3748 144.473 55.7656 144.06C54.8799 143.832 54.0114 143.595 53.1502 143.36C52.0108 143.049 50.8841 142.741 49.7471 142.464C49.4885 142.411 49.2297 142.357 48.9709 142.302C48.6528 142.235 48.3347 142.168 48.0166 142.103C48.3512 142.244 48.6807 142.385 49.0041 142.524C49.2361 142.623 49.465 142.721 49.6905 142.817L49.6905 142.817L49.697 142.82C51.0435 143.402 52.328 144.046 53.5933 144.681C54.1552 144.963 54.7132 145.243 55.2713 145.514Z" stroke="#5C032C" stroke-opacity="0.17" stroke-width="2.13187"/>
<path d="M56.9624 136.032L58.7518 134.321C56.4738 132.663 54.0696 131.245 51.597 130.085C53.5962 131.906 55.3974 133.9 56.9624 136.032Z" stroke="#5C032C" stroke-opacity="0.17" stroke-width="2.13187"/>
<path d="M67.1145 176.038C66.8649 176.508 66.6062 176.973 66.3404 177.436C66.7224 177.029 67.1002 176.614 67.4726 176.188L67.4865 176.172L67.5012 176.157C68.6508 174.943 69.8841 173.248 70.2527 171.467L70.2581 171.441L70.2648 171.415L70.8612 169.118L70.852 169.095L69.5288 165.782C69.0549 166.258 68.8841 166.657 68.809 166.951C68.7461 167.198 68.7335 167.437 68.7341 167.708C68.7341 167.739 68.7347 167.776 68.7353 167.818C68.7384 168.013 68.743 168.309 68.7041 168.576L68.6601 171.151L68.6601 171.151L68.6599 171.159C68.616 172.97 68.0553 174.413 67.1145 176.038Z" stroke="#5C032C" stroke-opacity="0.17" stroke-width="2.13187"/>
<path d="M198.889 60.4021C199.395 61.9268 200.04 63.4166 200.82 64.7897C200.324 63.1689 200.058 61.5044 199.99 59.9813L199.989 59.9686L199.989 59.956C199.883 54.8232 200.367 49.2668 201.735 44.4438C203.113 39.5845 205.86 34.9794 210.051 32.2257C212.091 30.8858 214.648 30.0764 217.131 30.1235C219.63 30.1709 222.114 31.0941 223.832 33.2883L223.832 33.2883L223.837 33.2937C224.125 33.6664 224.374 34.0224 224.617 34.3677C225.143 35.1173 225.633 35.8164 226.403 36.526C226.593 36.7005 226.803 36.8536 227.029 36.9889C226.849 36.8272 226.679 36.6532 226.518 36.4678C225.788 35.6271 225.231 34.5399 224.683 33.4688C224.602 33.31 224.521 33.1516 224.439 32.9943C222.994 30.3214 220.391 28.8576 217.467 28.4346C214.524 28.0087 211.356 28.6589 208.979 30.1119L208.957 30.1248L208.936 30.1367C203.716 33.0027 200.215 38.236 198.797 43.7438C197.416 49.4067 197.332 54.8773 198.889 60.4021ZM237.272 58.3088C239.255 54.1929 239.914 49.1258 238.302 45.0431C239.399 49.358 237.542 53.9743 235.296 57.3349C232.527 61.7351 228.893 65.34 224.649 68.4928L224.632 68.505L224.615 68.5165C223.308 69.4119 221.898 70.2353 220.409 70.9333C222.02 70.5756 223.618 70.0823 225.19 69.429L225.199 69.4249L225.209 69.421C230.38 67.3925 234.84 63.4301 237.269 58.3143L237.272 58.3088Z" stroke="#5C032C" stroke-opacity="0.17" stroke-width="2.13187"/>
<path d="M202.407 30.717C202.606 30.8307 202.822 30.9542 203.043 31.0852C202.923 30.9282 202.797 30.7712 202.667 30.6078C202.515 30.4182 202.356 30.2201 202.192 30.0036C201.034 28.8526 199.015 28.5599 197.633 28.7233L197.521 28.7366L197.408 28.726C196.972 28.6851 196.462 28.7236 195.853 28.7695C195.733 28.7786 195.609 28.7879 195.481 28.797C194.833 28.843 193.95 28.898 193.238 28.6575C192.967 28.5833 192.692 28.4962 192.409 28.4064C191.323 28.0625 190.114 27.6791 188.489 27.8297C185.566 28.4304 183.896 30.3267 182.716 32.4983C183.317 31.8618 184.006 31.3319 184.713 30.9206C186.01 30.1664 187.503 29.7339 188.785 29.8897C189.331 29.9208 189.941 30.1068 190.487 30.2733C190.527 30.2855 190.567 30.2976 190.606 30.3095C191.255 30.5064 191.978 30.7219 192.845 30.868L192.881 30.8742L192.917 30.8828C193.8 31.0955 194.541 31.0589 195.297 30.9345C195.62 30.8815 195.932 30.815 196.273 30.7423C196.349 30.7262 196.426 30.7098 196.505 30.6932C196.919 30.606 197.369 30.5161 197.85 30.4576C198.049 30.4216 198.264 30.3776 198.483 30.3325C198.94 30.2389 199.418 30.1408 199.821 30.1012C200.533 30.0313 201.267 30.0951 202.05 30.5124L202.067 30.5214L202.083 30.5309C202.184 30.5895 202.293 30.6516 202.407 30.717ZM179.568 40.7039C179.281 41.6566 179.008 42.6134 178.743 43.5696C177.958 46.6796 177.355 49.6595 178.026 53.2311C178.767 56.6778 181.014 59.6288 183.651 61.601C188.161 64.6522 193.137 66.0089 198.213 66.6551C197.167 66.0689 196.117 65.504 195.073 64.9419C194.431 64.5965 193.791 64.2522 193.156 63.9047C190.474 62.4389 187.874 60.9218 185.671 59.0801C183.548 57.3247 181.574 55.3634 180.605 52.6719L180.594 52.6418L180.585 52.6112C179.868 50.1741 179.611 46.7569 179.439 43.7918L179.437 43.7621L179.437 43.7324C179.435 42.7326 179.469 41.7169 179.568 40.7039Z" stroke="#5C032C" stroke-opacity="0.17" stroke-width="2.13187"/>
<path d="M223.719 80.9174C219.099 81.8738 215.017 79.5096 211.313 76.101C212.127 77.8231 213.227 79.4683 214.666 80.9266C216.921 83.2111 220.708 84.4754 224.018 84.1667L224.038 84.1648L224.058 84.1637C227.399 83.9788 230.166 82.7332 233.126 81.389L233.14 81.3823L233.155 81.3761C236.107 80.1421 238.937 78.7499 241.514 77.1741C242.237 76.6993 242.949 76.2129 243.641 75.7036C242.857 76.0643 242.054 76.3659 241.268 76.6198L241.236 76.6301L241.203 76.6384C240.168 76.9019 239.144 77.1402 238.134 77.3755C236.161 77.8347 234.238 78.2825 232.375 78.8836C229.558 79.7926 226.478 80.7196 223.719 80.9174ZM249.959 68.6365C250.896 66.5514 251.215 64.0569 250.044 61.8045C249.013 60.2261 248.518 58.9852 248.12 57.7116C247.992 57.3038 247.879 56.9097 247.764 56.5086C247.512 55.6345 247.251 54.7273 246.813 53.573L246.797 53.531L246.785 53.4878C246.611 52.8776 246.162 52.0938 245.532 51.3967C244.898 50.6955 244.185 50.1969 243.56 50.0166L243.56 50.0166L243.554 50.0147C243.059 49.8687 242.591 49.7372 242.146 49.6426C242.574 49.9267 242.964 50.2253 243.293 50.484C244.523 51.3765 244.783 52.4885 245.002 53.4259C245.049 53.629 245.095 53.8239 245.148 54.0066L245.173 54.0913L245.183 54.1789C245.324 55.3728 245.587 57.1233 246.082 58.7832C246.591 60.4903 247.286 61.8896 248.162 62.5954L248.198 62.6247L248.232 62.6571C249.683 64.0534 250.357 66.3566 249.959 68.6365Z" stroke="#5C032C" stroke-opacity="0.17" stroke-width="2.13187"/>
<path d="M249.821 77.7983C249.632 77.4637 249.449 77.1457 249.259 76.8537C249.29 77.0867 249.315 77.3107 249.337 77.5127C249.348 77.613 249.359 77.7079 249.369 77.7958C249.462 78.5776 249.413 79.1876 249.178 79.781C249.018 80.186 248.763 80.5791 248.531 80.9356C248.473 81.0242 248.417 81.1106 248.364 81.1943L248.327 81.2536L248.282 81.3074C247.64 82.0795 247.018 83.3604 246.558 84.7935C246.1 86.218 245.842 87.6627 245.848 88.7055L245.848 88.7055L245.848 88.7179C245.847 88.864 245.846 89.013 245.846 89.1642C245.843 90.2574 245.84 91.4696 245.62 92.5749C245.483 93.2614 245.258 93.9396 244.887 94.5636C246.353 93.1497 247.347 91.0773 247.835 89.2291C247.967 88.6546 248.081 88.1334 248.187 87.6435C248.614 85.6772 248.931 84.2172 249.959 81.8552L249.977 81.8136L249.999 81.7736C250.221 81.3618 250.362 80.619 250.328 79.7724C250.293 78.9225 250.091 78.2143 249.858 77.8589L249.838 77.8292L249.821 77.7983ZM235.316 97.6499C236.224 97.5969 237.101 97.5127 237.952 97.3841C237.056 97.3245 236.175 97.1608 235.358 96.9173L235.344 96.913L235.33 96.9083C230.903 95.4519 227.123 92.6691 223.445 89.9611C223.04 89.6634 222.637 89.3666 222.235 89.0726C218.92 86.7591 216.036 83.8593 213.43 80.3614C214.207 84.5656 216.722 88.6802 220.249 91.6593C224.601 94.8485 229.56 97.8657 235.316 97.6499Z" stroke="#5C032C" stroke-opacity="0.17" stroke-width="2.13187"/>
<path d="M193.827 75.4472C193.449 73.7498 193.249 71.9269 193.101 70.0647C192.576 71.8306 192.279 73.6981 192.252 75.6211C192.203 79.1024 193.443 82.8207 196.193 85.5107C199.026 88.146 202.931 89.2229 206.327 88.8628L206.327 88.8628L206.339 88.8617C208.417 88.6648 210.342 88.12 212.099 87.2997C210.095 87.4041 208.134 87.4114 206.295 87.1627L206.283 87.1611L206.271 87.1593C203.253 86.683 200.178 85.6177 198.104 83.4943C195.984 81.4601 194.696 78.4733 193.843 75.5108L193.834 75.4793L193.827 75.4472Z" stroke="#5C032C" stroke-opacity="0.17" stroke-width="2.13187"/>
<path d="M205.524 70.0148L208.066 70.7304C208.808 66.8461 210.001 62.9709 211.636 59.244C209.237 62.5529 207.179 66.162 205.524 70.0148Z" stroke="#5C032C" stroke-opacity="0.17" stroke-width="2.13187"/>
<path d="M213.132 78.1484C214.506 77.5697 216.038 77.098 217.597 76.6646C218.397 76.4421 219.195 76.232 219.99 76.0226C221.201 75.7039 222.405 75.3868 223.604 75.0296C223.859 74.9422 224.115 74.8553 224.372 74.7682C224.668 74.6678 224.965 74.5672 225.261 74.4652C225.107 74.4856 224.953 74.5057 224.801 74.5257C224.38 74.5807 223.968 74.6347 223.569 74.691L223.551 74.6935L223.534 74.6954C222.179 74.8407 220.826 74.9178 219.496 74.9935C218.782 75.0341 218.075 75.0744 217.378 75.1246C215.706 75.245 214.009 75.4257 212.195 75.8041L213.132 78.1484Z" stroke="#5C032C" stroke-opacity="0.17" stroke-width="2.13187"/>
<path d="M218.615 82.8818L217.917 85.3625C221.119 85.7789 224.355 86.0996 227.533 86.0956C224.453 85.2436 221.483 84.0919 218.615 82.8818Z" stroke="#5C032C" stroke-opacity="0.17" stroke-width="2.13187"/>
<path d="M191.424 59.9471L192.138 62.3102L194.847 64.4184C194.956 63.9034 194.91 63.5321 194.837 63.2582C194.767 62.9956 194.658 62.7654 194.523 62.5077C194.511 62.4843 194.497 62.4581 194.482 62.4294C194.39 62.2554 194.249 61.9913 194.161 61.7163L192.981 59.5799C191.997 58.0577 191.88 56.317 191.837 54.467C191.818 53.9907 191.808 53.5114 191.806 53.03C191.685 53.5212 191.567 54.0156 191.454 54.5139L191.452 54.5249L191.449 54.5358C191.051 56.1338 190.901 58.1935 191.424 59.9455C191.424 59.946 191.424 59.9466 191.424 59.9471Z" stroke="#5C032C" stroke-opacity="0.17" stroke-width="2.13187"/>
<path d="M196.251 154.454C192.76 135.952 191.044 117.193 191.99 98.2882C189.091 116.99 190.23 136.391 194.35 154.856C196.559 163.737 199.254 172.443 202.257 181.034C199.696 172.305 197.695 163.418 196.251 154.454ZM215.348 214.619C216.281 216.856 217.218 219.091 218.158 221.324C235.148 260.199 257.64 296.05 280.773 331.453C272.136 314.8 262.811 298.563 253.391 282.382C251.904 279.826 250.414 277.272 248.923 274.718C238.583 256.993 228.241 239.266 218.706 221.101C217.546 218.96 216.427 216.798 215.348 214.619Z" stroke="#5C032C" stroke-opacity="0.17" stroke-width="2.13187"/>
<path d="M116.053 151.216C105.949 148.542 95.3962 147.362 84.9553 147.83C95.2812 149.403 105.432 151.152 115.62 153.2C120.55 153.91 125.47 154.872 130.306 156.164C125.618 154.432 120.896 152.755 116.053 151.216ZM148.209 162.87C149.469 163.503 150.715 164.17 151.946 164.873C172.028 175.922 190.269 189.046 207.598 204.06C193.328 186.054 173.602 172.463 152.152 164.293C150.83 163.824 149.517 163.349 148.209 162.87Z" stroke="#5C032C" stroke-opacity="0.17" stroke-width="2.13187"/>
<path d="M192.058 139.58C184.301 133.223 176.381 126.616 171.655 117.789C166.246 107.742 165.468 95.8449 160.419 85.7998C169.206 91.0024 177.294 97.5001 182.962 105.945C188.631 114.39 191.88 124.783 192.003 139.497L192.058 139.58Z" stroke="#5C032C" stroke-opacity="0.17" stroke-width="0.63956" stroke-miterlimit="10"/>
<path d="M189.735 136.716L190.433 136.466C189.369 133.991 188.22 131.558 186.991 129.171C187.994 131.658 188.91 134.176 189.735 136.716Z" stroke="#5C032C" stroke-opacity="0.17" stroke-width="2.13187"/>
<path d="M197.126 155.101C196.983 147.439 196.815 139.556 200.26 132.997C204.182 125.528 212.484 120.551 216.708 113.361C218.453 121.282 218.676 129.248 216.057 136.338C213.438 143.428 207.866 149.475 197.043 155.155L197.126 155.101Z" stroke="#5C032C" stroke-opacity="0.17" stroke-width="0.63956" stroke-miterlimit="10"/>
<path d="M197.126 155.101C196.983 147.439 196.815 139.556 200.26 132.997C204.182 125.528 212.484 120.551 216.708 113.361C218.453 121.282 218.676 129.248 216.057 136.338C213.438 143.428 207.866 149.475 197.043 155.155L197.126 155.101Z" stroke="#5C032C" stroke-opacity="0.17" stroke-width="0.63956" stroke-miterlimit="10"/>
<path d="M197.468 151.715L198.06 152.202C199.252 150.482 200.355 148.702 201.365 146.873C200.134 148.556 198.832 150.173 197.468 151.715Z" stroke="#5C032C" stroke-opacity="0.17" stroke-width="2.13187"/>
<path d="M207.201 208.375C200.366 204.872 193.338 201.258 185.924 201.595C177.515 201.871 169.293 207.154 161.103 207.763C167.486 212.756 174.569 216.454 182.03 217.278C189.575 218.047 197.418 215.638 207.256 208.458L207.201 208.375Z" stroke="#5C032C" stroke-opacity="0.17" stroke-width="1.06593" stroke-miterlimit="10"/>
<path d="M207.201 208.375C200.366 204.872 193.338 201.258 185.924 201.595C177.515 201.871 169.293 207.154 161.103 207.763C167.486 212.756 174.569 216.454 182.03 217.278C189.575 218.047 197.418 215.638 207.256 208.458L207.201 208.375Z" stroke="#5C032C" stroke-opacity="0.17" stroke-width="0.63956" stroke-miterlimit="10"/>
<path d="M202.331 210.041L201.721 207.485C197.755 208.778 193.625 209.701 189.416 210.219C193.67 210.593 198.009 210.541 202.331 210.041Z" stroke="#5C032C" stroke-opacity="0.17" stroke-width="2.13187"/>
<path d="M124.187 156.854C120.63 163.606 116.878 170.605 110.656 174.574C103.573 179.228 93.8638 179.523 86.7282 183.734C89.0475 176.006 92.7453 168.923 98.4477 163.983C104.15 159.043 112.021 156.496 124.187 156.854Z" stroke="#5C032C" stroke-opacity="0.17" stroke-width="0.63956" stroke-miterlimit="10"/>
<path d="M124.187 156.854C120.63 163.606 116.878 170.605 110.656 174.574C103.573 179.228 93.8638 179.523 86.7282 183.734C89.0475 176.006 92.7453 168.923 98.4477 163.983C104.15 159.043 112.021 156.496 124.187 156.854Z" stroke="#5C032C" stroke-opacity="0.17" stroke-width="0.63956" stroke-miterlimit="10"/>
<path d="M122.343 159.448L122.1 158.771C120.151 159.632 118.241 160.572 116.379 161.588C118.337 160.792 120.327 160.079 122.343 159.448Z" stroke="#5C032C" stroke-opacity="0.17" stroke-width="2.13187"/>
<path d="M242.874 270.481C233.868 260.769 224.56 250.778 213.163 247.052C200.275 242.873 186.059 247.203 173.279 243.55C181.08 255.604 190.332 265.871 201.441 271.338C212.466 276.86 225.351 277.222 242.874 270.481Z" stroke="#5C032C" stroke-opacity="0.17" stroke-width="1.06593" stroke-miterlimit="10"/>
<path d="M242.874 270.481C233.868 260.769 224.56 250.778 213.163 247.052C200.275 242.873 186.059 247.203 173.279 243.55C181.08 255.604 190.332 265.871 201.441 271.338C212.466 276.86 225.351 277.222 242.874 270.481Z" stroke="#5C032C" stroke-opacity="0.17" stroke-width="1.06593" stroke-miterlimit="10"/>
<path d="M239.102 271.102L239.385 268.439C232.569 268.118 225.739 267.006 219.056 265.147C225.446 267.857 232.176 269.886 239.102 271.102Z" stroke="#5C032C" stroke-opacity="0.17" stroke-width="2.13187"/>
<path d="M235.441 256.33L238.202 256.028C235.651 235.076 236.64 213.453 241.433 192.66C240.698 195.312 240.023 197.981 239.406 200.662C235.292 218.845 233.874 237.652 235.441 256.33Z" stroke="#5C032C" stroke-opacity="0.17" stroke-width="2.13187"/>
<path d="M169.635 172.091C164.307 166.524 158.924 160.874 156.953 153.698C154.823 145.553 157.485 136.168 155.686 128.163C162.347 132.854 167.951 138.478 170.836 145.411C173.722 152.344 173.667 160.613 169.635 172.091Z" stroke="#5C032C" stroke-opacity="0.17" stroke-width="0.63956" stroke-miterlimit="10"/>
<path d="M169.635 172.091C164.307 166.524 158.924 160.874 156.953 153.698C154.823 145.553 157.485 136.168 155.686 128.163C162.347 132.854 167.951 138.478 170.836 145.411C173.722 152.344 173.667 160.613 169.635 172.091Z" stroke="#5C032C" stroke-opacity="0.17" stroke-width="0.63956" stroke-miterlimit="10"/>
<path d="M168.512 169.648L169.197 169.608C168.938 167.767 168.597 165.938 168.178 164.129C168.365 165.966 168.475 167.808 168.512 169.648Z" stroke="#5C032C" stroke-opacity="0.17" stroke-width="2.13187"/>
<path d="M157.611 166.867C152.809 165.369 147.869 163.843 145.129 160.036C141.977 155.783 141.939 149.007 139.037 144.591C144.565 145.015 149.644 146.57 153.079 149.801C156.514 153.032 158.167 158.27 157.611 166.867Z" stroke="#5C032C" stroke-opacity="0.17" stroke-width="0.63956" stroke-miterlimit="10"/>
<path d="M157.611 166.867C152.809 165.369 147.869 163.843 145.129 160.036C141.977 155.783 141.939 149.007 139.037 144.591C144.565 145.015 149.644 146.57 153.079 149.801C156.514 153.032 158.167 158.27 157.611 166.867Z" stroke="#5C032C" stroke-opacity="0.17" stroke-width="0.63956" stroke-miterlimit="10"/>
<path d="M155.364 163.913L156.011 163.656C155.423 162.634 154.787 161.649 154.105 160.705C154.584 161.759 155.004 162.831 155.364 163.913Z" stroke="#5C032C" stroke-opacity="0.17" stroke-width="2.13187"/>
<path d="M110.999 139.51C109.232 134.825 107.44 129.918 108.797 125.446C110.297 120.285 115.607 116.2 117.354 111.233C120.421 115.9 122.268 120.89 121.739 125.533C121.211 130.175 118.194 134.663 110.999 139.51Z" stroke="#5C032C" stroke-opacity="0.17" stroke-width="0.63956" stroke-miterlimit="10"/>
<path d="M110.999 139.51C109.232 134.825 107.44 129.918 108.797 125.446C110.297 120.285 115.607 116.2 117.354 111.233C120.421 115.9 122.268 120.89 121.739 125.533C121.211 130.175 118.194 134.663 110.999 139.51Z" stroke="#5C032C" stroke-opacity="0.17" stroke-width="0.63956" stroke-miterlimit="10"/>
<path d="M112.054 135.916L112.6 136.244C113.023 135.235 113.395 134.208 113.714 133.171C113.202 134.119 112.647 135.036 112.054 135.916Z" stroke="#5C032C" stroke-opacity="0.17" stroke-width="2.13187"/>
<path d="M106.565 132.758C102.966 129.277 99.1732 125.685 94.5306 125.156C89.1975 124.484 83.3405 127.736 78.0884 127.369C81.1547 132.036 85.002 135.712 89.4732 137.069C93.9443 138.427 99.2608 137.439 106.565 132.758Z" stroke="#5C032C" stroke-opacity="0.17" stroke-width="0.63956" stroke-miterlimit="10"/>
<path d="M106.565 132.758C102.966 129.277 99.1732 125.685 94.5306 125.156C89.1975 124.484 83.3405 127.736 78.0884 127.369C81.1547 132.036 85.002 135.712 89.4732 137.069C93.9443 138.427 99.2608 137.439 106.565 132.758Z" stroke="#5C032C" stroke-opacity="0.17" stroke-width="0.63956" stroke-miterlimit="10"/>
<path d="M102.935 132.929L102.852 132.306C101.836 132.502 100.809 132.648 99.7761 132.744C100.821 132.855 101.876 132.917 102.935 132.929Z" stroke="#5C032C" stroke-opacity="0.17" stroke-width="2.13187"/>
<path d="M96.3009 108.96C93.1105 110.46 89.6986 111.986 86.5774 111.412C83.0418 110.753 80.0493 107.469 76.6256 106.617C79.8494 104.26 83.2065 102.651 86.4421 102.672C89.6777 102.694 92.8465 104.43 96.3009 108.96Z" stroke="#5C032C" stroke-opacity="0.17" stroke-width="0.63956" stroke-miterlimit="10"/>
<path d="M96.3009 108.96C93.1105 110.46 89.6986 111.986 86.5774 111.412C83.0418 110.753 80.0493 107.469 76.6256 106.617C79.8494 104.26 83.2065 102.651 86.4421 102.672C89.6777 102.694 92.8465 104.43 96.3009 108.96Z" stroke="#5C032C" stroke-opacity="0.17" stroke-width="0.63956" stroke-miterlimit="10"/>
<path d="M93.4066 108.296L93.5819 107.903C93.0858 107.788 92.5889 107.689 92.0921 107.605C92.5409 107.823 92.9793 108.054 93.4066 108.296Z" stroke="#5C032C" stroke-opacity="0.17" stroke-width="2.13187"/>
<path d="M95.3996 102.512C97.3282 99.4554 99.2569 96.3984 99.1118 93.2724C98.9143 89.7035 96.0885 86.3106 95.7529 82.7131C92.9958 85.5986 90.929 88.627 90.548 91.8602C90.1669 95.0933 91.4166 98.448 95.3996 102.512Z" stroke="#5C032C" stroke-opacity="0.17" stroke-width="0.63956" stroke-miterlimit="10"/>
<path d="M95.3996 102.512C97.3282 99.4554 99.2569 96.3984 99.1118 93.2724C98.9143 89.7035 96.0885 86.3106 95.7529 82.7131C92.9958 85.5986 90.929 88.627 90.548 91.8602C90.1669 95.0933 91.4166 98.448 95.3996 102.512Z" stroke="#5C032C" stroke-opacity="0.17" stroke-width="0.63956" stroke-miterlimit="10"/>
<path d="M95.1837 99.5817C94.9944 99.1291 94.8203 98.6677 94.6625 98.1984C94.6802 98.7022 94.7161 99.2082 94.7706 99.715L95.1837 99.5817Z" stroke="#5C032C" stroke-opacity="0.17" stroke-width="2.13187"/>
<path d="M234.306 220.393C227.964 217.64 221.457 214.637 218.922 209.145C216.06 202.792 218.582 193.738 216.025 187.305C223.841 188.851 230.515 191.744 234.16 196.746C237.804 201.748 238.337 208.915 234.361 220.476L234.306 220.393Z" stroke="#5C032C" stroke-opacity="0.17" stroke-width="0.63956" stroke-miterlimit="10"/>
<path d="M234.306 220.393C227.964 217.64 221.457 214.637 218.922 209.145C216.06 202.792 218.582 193.738 216.025 187.305C223.841 188.851 230.515 191.744 234.16 196.746C237.804 201.748 238.337 208.915 234.361 220.476L234.306 220.393Z" stroke="#5C032C" stroke-opacity="0.17" stroke-width="0.63956" stroke-miterlimit="10"/>
<path d="M233.268 217.765L233.956 217.674C233.573 216.105 233.097 214.569 232.533 213.076C232.875 214.628 233.121 216.196 233.268 217.765Z" stroke="#5C032C" stroke-opacity="0.17" stroke-width="2.13187"/>
<path d="M243.06 180.16C239.486 176.9 235.72 173.529 234.587 169.262C233.347 164.47 235.402 159.063 234.299 154.299C238.844 157.039 242.666 160.494 244.491 164.544C246.372 168.677 246.174 173.46 242.976 180.215L243.06 180.16Z" stroke="#5C032C" stroke-opacity="0.17" stroke-width="0.63956" stroke-miterlimit="10"/>
<path d="M243.06 180.16C239.486 176.9 235.72 173.529 234.587 169.262C233.347 164.47 235.402 159.063 234.299 154.299C238.844 157.039 242.666 160.494 244.491 164.544C246.372 168.677 246.174 173.46 242.976 180.215L243.06 180.16Z" stroke="#5C032C" stroke-opacity="0.17" stroke-width="0.63956" stroke-miterlimit="10"/>
<path d="M102.855 123.545C105.075 133.561 107.399 144.045 114.354 152.392L116.27 150.56C109.191 143.291 106.001 132.994 103.013 123.042C102.664 121.916 102.314 120.791 101.953 119.673C102.235 120.835 102.505 122.001 102.772 123.169L102.772 123.169L102.773 123.176C102.801 123.299 102.828 123.422 102.855 123.545Z" stroke="#5C032C" stroke-opacity="0.17" stroke-width="2.13187"/>
</svg>
