<svg width="341" height="834" viewBox="0 0 341 834" fill="none" xmlns="http://www.w3.org/2000/svg">
<path d="M211.442 347.162C216.539 356.503 222.985 365.755 230.549 372.988C237.95 380.116 247.354 385.573 257.53 386.1L257.533 386.1C262.408 386.336 267.626 385.185 271.838 382.685C276.062 380.177 279.327 376.273 280.1 371.026C280.223 370.241 280.304 369.338 280.386 368.421C280.436 367.87 280.485 367.315 280.545 366.777C280.711 365.279 280.962 363.745 281.487 362.242C282.506 359.327 284.908 357.006 287.055 355.226C291.854 351.866 294.709 347.137 294.916 341.21C295.504 329.498 285.832 321.227 276.588 316.65C267.23 311.76 257.082 308.864 246.098 307.659L246.098 307.659L246.089 307.658C239.769 307.022 233.077 307.428 226.689 309.235C232.669 306.387 239.043 304.294 245.849 303.397L245.862 303.395L245.874 303.393C257.501 301.573 270.055 304.249 279.809 311.142L279.824 311.152L279.839 311.162C289.671 317.622 297.358 329.233 295.842 341.299L295.838 341.327L295.836 341.356C295.437 346.976 292.239 352.917 287.692 356.266C285.075 358.193 283.837 360.371 283.318 362.892C282.872 365.057 282.964 367.481 283.063 370.096C283.075 370.409 283.087 370.724 283.098 371.042L283.098 371.046C283.359 377.752 279.957 383.438 274.881 387.441C269.793 391.453 263.11 393.696 257.048 393.516L257.019 393.515L256.991 393.516C244.236 393.824 232.172 387.858 223.776 379.185C215.434 370.276 209.379 360.192 206.36 348.469C204.582 339.855 204.744 330.418 208.533 323.105C207.647 325.599 207.281 328.28 207.299 330.971C207.337 336.679 209.097 342.549 211.428 347.134L211.435 347.148L211.442 347.162Z" stroke="#5C032C" stroke-opacity="0.17" stroke-width="2.13187"/>
<path d="M202.708 414.198C208.023 418.186 215.065 422.566 224.012 419.517C227.356 418.145 229.407 415.924 231.025 414.172C231.543 413.611 232.016 413.099 232.474 412.677C233.357 411.567 234.993 410.761 236.641 409.949C237.652 409.451 238.667 408.951 239.515 408.377L202.708 414.198ZM202.708 414.198C197.446 410.265 192.92 405.904 188.272 401.425C188.073 401.233 187.874 401.04 187.674 400.848L202.708 414.198ZM235.209 409.471C233.946 410.113 232.572 410.882 231.693 411.947C231.171 412.435 230.662 412.984 230.128 413.562C228.537 415.282 226.722 417.245 223.637 418.518C215.256 421.359 208.63 417.31 203.348 413.346L203.346 413.344C198.139 409.452 193.657 405.133 188.997 400.643C188.807 400.459 188.616 400.275 188.425 400.091C183.705 395.263 179.4 390.497 176.845 383.065C174.642 375.879 175.419 367.765 178.424 361.368C184.36 349.193 193.851 340.829 204.002 333.659C201.861 337.512 199.574 341.204 197.324 344.839C196.561 346.07 195.803 347.295 195.056 348.517C191.726 353.962 188.627 359.342 186.499 364.885L186.497 364.889C184.438 370.316 183.188 375.713 184.134 381.046L184.139 381.076L184.146 381.106C185.333 386.113 188.302 392.013 191.019 397.409C191.092 397.556 191.166 397.702 191.239 397.848L191.25 397.869L191.262 397.89C194.376 403.444 198.426 408.945 203.959 412.328C206.673 414.106 209.986 414.883 213.008 414.908C215.995 414.933 218.888 414.222 220.697 412.805C221.469 412.238 222.3 411.37 223.204 410.428C223.243 410.387 223.282 410.346 223.321 410.306C224.305 409.28 225.447 408.095 226.866 406.854L226.88 406.841L226.895 406.827C228.387 405.421 229.91 404.655 231.511 404.057C232.179 403.807 232.849 403.591 233.548 403.365C233.701 403.316 233.854 403.266 234.009 403.216C234.858 402.94 235.742 402.642 236.637 402.264C237.158 402.077 237.649 401.916 238.13 401.758C238.299 401.702 238.467 401.647 238.635 401.592C239.274 401.379 239.904 401.16 240.489 400.894C241.678 400.354 242.724 399.605 243.462 398.273C244.19 397.165 245.108 395.767 245.757 394.331C246.183 393.39 246.536 392.342 246.605 391.287C247.087 392.212 247.274 393.197 247.301 394.226C247.334 395.521 247.12 396.797 246.9 398.115C246.827 398.549 246.753 398.988 246.688 399.434C246.213 401.281 245.029 402.944 243.567 404.331C242.096 405.726 240.405 406.783 239.063 407.411L238.987 407.447L238.918 407.494C238.136 408.023 237.214 408.477 236.221 408.967C235.891 409.13 235.553 409.296 235.209 409.471Z" stroke="#5C032C" stroke-opacity="0.17" stroke-width="2.13187"/>
<path d="M296.873 311.45L296.853 311.375L296.823 311.304C295.811 308.922 294.462 305.415 293.61 301.825C292.746 298.189 292.443 294.669 293.323 292.15L293.334 292.118L293.344 292.086C294.78 286.961 292.237 280.518 286.428 277.232L286.426 277.231C280.825 274.08 273.832 274.481 267.744 275.741L267.696 275.751L267.65 275.765C266.507 276.112 265.374 276.462 264.249 276.809C259.234 278.356 254.37 279.856 249.498 280.864C243.477 282.11 237.151 283.715 232.12 285.97C221.792 289.33 216.899 299.812 213.994 311.868C212.781 306.132 212.495 300.224 214.313 294.245L214.318 294.231L214.321 294.217C216.199 287.392 221.909 280.874 228.335 277.966L228.354 277.958L228.372 277.948C234.474 274.9 240.54 274.192 246.904 273.449C247.266 273.407 247.629 273.365 247.993 273.322C254.702 272.531 261.232 271.922 267.634 272.218C274.279 272.632 281.012 273.442 287.106 276.243L287.125 276.252L287.146 276.261C293.028 278.68 299.687 284.093 299.876 292.227C299.581 295.985 299.973 298.626 300.58 301.278C300.75 302.022 300.933 302.755 301.122 303.508C301.609 305.456 302.13 307.537 302.537 310.274L302.541 310.304L302.547 310.333C302.869 311.89 302.851 313.954 302.436 315.967C302.02 317.988 301.233 319.825 300.13 321.019C298.071 323.203 295.987 325.233 293.345 325.782C294.161 325.041 294.819 324.14 295.362 323.211C296.15 321.863 296.737 320.379 297.217 319.085C298.399 316.537 297.827 314.653 297.231 312.687C297.107 312.28 296.983 311.87 296.873 311.45Z" stroke="#5C032C" stroke-opacity="0.17" stroke-width="2.13187"/>
<path d="M280.018 264.801L280.014 264.79L280.009 264.78C279.412 263.452 278.806 262.589 277.992 261.9C277.33 261.341 276.548 260.919 275.676 260.45C275.542 260.377 275.405 260.304 275.266 260.228L275.204 260.195L275.139 260.17C273.03 259.358 270.441 257.614 268.08 255.486C265.719 253.358 263.692 250.944 262.637 248.87L262.619 248.835L262.599 248.802C262.363 248.411 262.127 248.012 261.889 247.61C260.788 245.753 259.645 243.825 258.288 242.265C256.6 240.323 254.488 238.832 251.544 238.588C246.191 238.061 240.685 241.344 236.998 245.021L236.974 245.045L236.951 245.071C230.488 252.392 226.552 261.572 222.624 270.731C222.345 271.383 222.065 272.035 221.785 272.687C217.682 281.485 215.55 291.086 214.571 302.003C209.731 292.291 209.63 280.29 213.489 269.506C218.065 259.159 224.13 248.183 234.821 242.492C240.291 239.741 245.594 237.925 251.608 237.551L251.608 237.551L251.615 237.55C257.638 237.137 263.752 241.072 267.619 244.827C268.609 245.869 269.466 246.8 270.261 247.664C272.946 250.583 274.925 252.735 278.959 255.775L278.987 255.796L279.016 255.815C280.111 256.535 281.265 257.939 282.117 259.581C282.972 261.23 283.424 262.927 283.315 264.169L283.311 264.219L283.311 264.269C283.328 266.823 283.223 269.514 281.706 271.378C281.83 270.313 281.652 269.258 281.378 268.3C281.079 267.254 280.631 266.219 280.249 265.336C280.168 265.15 280.091 264.971 280.018 264.801Z" stroke="#5C032C" stroke-opacity="0.17" stroke-width="2.13187"/>
<path d="M191.444 340.687C191.523 340.848 191.603 341.009 191.683 341.17C186.882 337.706 182.627 333.325 179.443 327.837L179.437 327.826L179.43 327.816C175.513 321.422 174.067 313.059 176.17 305.12C178.661 296.992 184.759 290.967 191.623 287.812C197.302 285.201 203.353 284.283 209.347 284.52C204.001 287.142 198.885 289.661 194.654 292.927L194.64 292.937L194.628 292.948C189.725 296.982 185.519 301.722 184.14 307.4C182.309 313.001 183.229 319.501 184.947 325.622L184.95 325.632L184.953 325.643C186.467 330.629 188.937 335.62 191.444 340.687Z" stroke="#5C032C" stroke-opacity="0.17" stroke-width="2.13187"/>
<path d="M208.54 323.894L214.135 318.268C221.968 327.675 231.664 335.765 242.522 342.202C230.46 338.201 218.864 332.037 208.54 323.894Z" stroke="#5C032C" stroke-opacity="0.17" stroke-width="2.13187"/>
<path d="M226.597 303.483C223.067 305.202 219.366 306.855 215.032 308.233L213.977 300.391C217.312 300.098 221.01 299.281 224.78 298.313C226.579 297.851 228.375 297.361 230.167 296.872C232.565 296.217 234.953 295.566 237.323 294.989C237.861 294.877 238.402 294.764 238.945 294.649C242.637 293.873 246.432 293.075 250.175 292.842C251.025 292.789 251.869 292.766 252.703 292.779C251.827 292.939 250.957 293.139 250.096 293.369C246.47 294.337 242.916 295.859 239.579 297.288C239.095 297.495 238.616 297.7 238.143 297.901L238.143 297.901L238.136 297.904C235.368 299.101 232.747 300.415 230.132 301.727C228.957 302.317 227.783 302.906 226.597 303.483Z" stroke="#5C032C" stroke-opacity="0.17" stroke-width="2.13187"/>
<path d="M222.738 284.484L217.077 279.071C224.316 273.641 232.196 269.365 240.292 266.395C233.472 271.613 227.528 277.726 222.738 284.484Z" stroke="#5C032C" stroke-opacity="0.17" stroke-width="2.13187"/>
<path d="M202.483 365.335C204.522 369.175 206.85 372.868 209.23 376.541C206.035 373.488 202.861 370.383 199.868 366.961L199.854 366.945L199.84 366.93C197.398 364.353 194.66 360.64 193.829 356.625L193.824 356.599L193.817 356.573L192.483 351.434L192.642 351.036L195.989 342.656C198.059 344.22 198.788 345.617 199.07 346.723C199.236 347.375 199.262 347.985 199.261 348.581C199.261 348.674 199.26 348.772 199.258 348.875C199.253 349.318 199.246 349.838 199.322 350.287L199.415 355.716L199.415 355.716L199.415 355.723C199.5 359.235 200.577 362.047 202.483 365.335Z" stroke="#5C032C" stroke-opacity="0.17" stroke-width="2.13187"/>
<path d="M-68.0643 320.832C-59.615 276.059 -56.1803 230.584 -60.6697 184.769C-50.2675 229.636 -51.8419 277.226 -61.8629 322.131C-73.7637 369.995 -92.4524 415.396 -111.408 460.473C-149.574 547.799 -201.074 627.779 -253.138 707.087C-232.603 665.847 -209.776 626.004 -186.691 586.35C-183.598 581.037 -180.501 575.727 -177.403 570.417C-155.908 533.572 -134.426 496.749 -114.619 459.015C-91.2822 415.929 -75.81 368.928 -68.0643 320.832Z" stroke="#5C032C" stroke-opacity="0.17" stroke-width="2.13187"/>
<path d="M99.438 313.196C123.942 306.708 149.717 304.425 174.93 306.853C149.877 310.519 125.417 314.619 100.855 319.558C74.7676 323.309 48.8795 330.465 25.7184 343.688C-19.2145 368.41 -59.713 398.141 -98.1978 432.415C-68.0311 390.317 -23.9277 358.78 24.3307 340.403C33.9108 337 43.3226 333.443 52.7136 329.893C68.1268 324.068 83.4841 318.264 99.438 313.196Z" stroke="#5C032C" stroke-opacity="0.17" stroke-width="2.13187"/>
<path d="M-58.2167 290.116C-42.0949 276.902 -25.6317 263.169 -15.8097 244.824C-4.56753 223.941 -2.95048 199.213 7.54445 178.334C-10.7202 189.148 -27.5299 202.653 -39.3116 220.206C-51.0933 237.759 -57.847 259.36 -58.1029 289.942L-58.2167 290.116Z" stroke="#5C032C" stroke-opacity="0.17" stroke-width="0.63956" stroke-miterlimit="10"/>
<path d="M-89.6913 433.105C-75.4843 425.825 -60.8766 418.312 -45.4667 419.014C-27.9883 419.587 -10.9003 430.567 6.12286 431.834C-7.14377 442.211 -21.8654 449.897 -37.3742 451.61C-53.0561 453.209 -69.3569 448.202 -89.8051 433.278L-89.6913 433.105Z" stroke="#5C032C" stroke-opacity="0.17" stroke-width="1.06593" stroke-miterlimit="10"/>
<path d="M-89.6913 433.105C-75.4843 425.825 -60.8766 418.312 -45.4667 419.014C-27.9883 419.587 -10.9003 430.567 6.12286 431.834C-7.14377 442.211 -21.8654 449.897 -37.3742 451.61C-53.0561 453.209 -69.3569 448.202 -89.8051 433.278L-89.6913 433.105Z" stroke="#5C032C" stroke-opacity="0.17" stroke-width="0.63956" stroke-miterlimit="10"/>
<path d="M82.8514 326.019C90.2452 340.053 98.0448 354.601 110.976 362.85C125.698 372.524 145.879 373.136 160.71 381.889C155.889 365.827 148.203 351.105 136.351 340.837C124.499 330.57 108.139 325.275 82.8514 326.019Z" stroke="#5C032C" stroke-opacity="0.17" stroke-width="0.63956" stroke-miterlimit="10"/>
<path d="M82.8514 326.019C90.2452 340.053 98.0448 354.601 110.976 362.85C125.698 372.524 145.879 373.136 160.71 381.889C155.889 365.827 148.203 351.105 136.351 340.837C124.499 330.57 108.139 325.275 82.8514 326.019Z" stroke="#5C032C" stroke-opacity="0.17" stroke-width="0.63956" stroke-miterlimit="10"/>
<path d="M85.1983 332.155L86.5246 328.458C97.2782 333.112 107.471 338.898 116.825 345.76C106.801 340.022 96.1844 335.502 85.1983 332.155Z" stroke="#5C032C" stroke-opacity="0.17" stroke-width="2.13187"/>
<path d="M-11.6119 357.689C-0.537513 346.118 10.6505 334.375 14.7473 319.46C19.1754 302.53 13.6421 283.023 17.3824 266.386C3.53675 276.136 -8.11161 287.825 -14.1086 302.235C-20.1056 316.646 -19.9909 333.832 -11.6119 357.689Z" stroke="#5C032C" stroke-opacity="0.17" stroke-width="0.63956" stroke-miterlimit="10"/>
<path d="M-11.6119 357.689C-0.537513 346.118 10.6505 334.375 14.7473 319.46C19.1754 302.53 13.6421 283.023 17.3824 266.386C3.53675 276.136 -8.11161 287.825 -14.1086 302.235C-20.1056 316.646 -19.9909 333.832 -11.6119 357.689Z" stroke="#5C032C" stroke-opacity="0.17" stroke-width="0.63956" stroke-miterlimit="10"/>
<path d="M-8.14636 353.828L-12.0068 353.603C-10.6507 343.272 -8.06089 333.097 -4.41414 323.439C-6.8159 333.412 -8.02653 343.642 -8.14636 353.828Z" stroke="#5C032C" stroke-opacity="0.17" stroke-width="2.13187"/>
<path d="M13.3807 346.831C23.3618 343.718 33.6301 340.545 39.3255 332.632C45.877 323.794 45.9554 309.71 51.9873 300.53C40.4967 301.412 29.9416 304.643 22.8011 311.359C15.6607 318.075 12.2268 328.962 13.3807 346.831Z" stroke="#5C032C" stroke-opacity="0.17" stroke-width="0.63956" stroke-miterlimit="10"/>
<path d="M13.3807 346.831C23.3618 343.718 33.6301 340.545 39.3255 332.632C45.877 323.794 45.9554 309.71 51.9873 300.53C40.4967 301.412 29.9416 304.643 22.8011 311.359C15.6607 318.075 12.2268 328.962 13.3807 346.831Z" stroke="#5C032C" stroke-opacity="0.17" stroke-width="0.63956" stroke-miterlimit="10"/>
<path d="M15.059 340.742C18.375 334.717 22.5001 329.252 27.2595 324.606C23.5261 330.109 20.6819 336.095 18.7666 342.211L15.059 340.742Z" stroke="#5C032C" stroke-opacity="0.17" stroke-width="2.13187"/>
<path d="M110.264 289.97C113.935 280.231 117.661 270.032 114.84 260.739C111.722 250.011 100.686 241.519 97.0532 231.197C90.6799 240.896 86.8403 251.269 87.9393 260.918C89.0383 270.568 95.3087 279.896 110.264 289.97Z" stroke="#5C032C" stroke-opacity="0.17" stroke-width="0.63956" stroke-miterlimit="10"/>
<path d="M110.264 289.97C113.935 280.231 117.661 270.032 114.84 260.739C111.722 250.011 100.686 241.519 97.0532 231.197C90.6799 240.896 86.8403 251.269 87.9393 260.918C89.0383 270.568 95.3087 279.896 110.264 289.97Z" stroke="#5C032C" stroke-opacity="0.17" stroke-width="0.63956" stroke-miterlimit="10"/>
<path d="M109.709 282.857L106.401 284.844C103.68 278.685 101.865 272.192 101.05 265.665C103.118 271.884 106.093 277.692 109.709 282.857Z" stroke="#5C032C" stroke-opacity="0.17" stroke-width="2.13187"/>
<path d="M119.477 275.937C126.959 268.702 134.842 261.234 144.492 260.135C155.577 258.739 167.75 265.498 178.667 264.736C172.293 274.435 164.297 282.076 155.004 284.897C145.71 287.718 134.66 285.665 119.477 275.937Z" stroke="#5C032C" stroke-opacity="0.17" stroke-width="0.63956" stroke-miterlimit="10"/>
<path d="M119.477 275.937C126.959 268.702 134.842 261.234 144.492 260.135C155.577 258.739 167.75 265.498 178.667 264.736C172.293 274.435 164.297 282.076 155.004 284.897C145.71 287.718 134.66 285.665 119.477 275.937Z" stroke="#5C032C" stroke-opacity="0.17" stroke-width="0.63956" stroke-miterlimit="10"/>
<path d="M125.709 277.443L126.218 273.625C132.435 274.945 138.855 275.354 145.287 274.785C139.017 276.599 132.389 277.496 125.709 277.443Z" stroke="#5C032C" stroke-opacity="0.17" stroke-width="2.13187"/>
<path d="M140.814 226.473C147.445 229.59 154.537 232.762 161.024 231.569C168.373 230.198 174.593 223.373 181.709 221.602C175.008 216.703 168.031 213.358 161.305 213.403C154.58 213.448 147.994 217.056 140.814 226.473Z" stroke="#5C032C" stroke-opacity="0.17" stroke-width="0.63956" stroke-miterlimit="10"/>
<path d="M140.814 226.473C147.445 229.59 154.537 232.762 161.024 231.569C168.373 230.198 174.593 223.373 181.709 221.602C175.008 216.703 168.031 213.358 161.305 213.403C154.58 213.448 147.994 217.056 140.814 226.473Z" stroke="#5C032C" stroke-opacity="0.17" stroke-width="0.63956" stroke-miterlimit="10"/>
<path d="M146.303 226.73L144.855 223.488C149.061 222.394 153.31 221.838 157.491 221.842C153.465 222.998 149.697 224.686 146.303 226.73Z" stroke="#5C032C" stroke-opacity="0.17" stroke-width="2.13187"/>
<path d="M142.686 213.07C138.677 206.717 134.668 200.363 134.97 193.865C135.38 186.447 141.254 179.395 141.951 171.918C147.682 177.916 151.978 184.21 152.77 190.93C153.562 197.65 150.964 204.623 142.686 213.07Z" stroke="#5C032C" stroke-opacity="0.17" stroke-width="0.63956" stroke-miterlimit="10"/>
<path d="M142.686 213.07C138.677 206.717 134.668 200.363 134.97 193.865C135.38 186.447 141.254 179.395 141.951 171.918C147.682 177.916 151.978 184.21 152.77 190.93C153.562 197.65 150.964 204.623 142.686 213.07Z" stroke="#5C032C" stroke-opacity="0.17" stroke-width="0.63956" stroke-miterlimit="10"/>
<path d="M141.574 207.684C143.217 204.065 144.373 200.145 144.918 196.04C145.526 200.156 145.564 204.464 144.964 208.778L141.574 207.684Z" stroke="#5C032C" stroke-opacity="0.17" stroke-width="2.13187"/>
<path d="M128.288 257.15C123.61 278.26 118.637 300.702 103.379 318.42L97.6671 312.958C112.723 298.052 119.42 276.534 125.764 255.405C129.087 244.68 132.492 233.899 137.995 224.031C138.779 222.626 139.609 221.249 140.485 219.904C139.701 221.329 138.968 222.782 138.288 224.258C133.59 234.462 130.997 245.273 128.485 256.261L128.484 256.268C128.418 256.562 128.353 256.856 128.288 257.15Z" stroke="#5C032C" stroke-opacity="0.17" stroke-width="2.13187"/>
</svg>
