<svg width="24" height="25" viewBox="0 0 24 25" fill="none" xmlns="http://www.w3.org/2000/svg">
<path d="M3.6247 22.2002L3 21.4194H3L3.6247 22.2002ZM6.45217 19.9383L5.82748 19.1574L6.45217 19.9383ZM3 8.5C3 6.29086 4.79086 4.5 7 4.5V2.5C3.68629 2.5 1 5.18629 1 8.5H3ZM3 14V8.5H1V14H3ZM3 14.5V14H1V14.5H3ZM3 21.4194V14.5H1V21.4194H3ZM3 21.4194H3H1C1 23.0964 2.93986 24.0287 4.24939 22.9811L3 21.4194ZM5.82748 19.1574L3 21.4194L4.24939 22.9811L7.07687 20.7191L5.82748 19.1574ZM17 18.5H7.70156V20.5H17V18.5ZM21 14.5C21 16.7091 19.2091 18.5 17 18.5V20.5C20.3137 20.5 23 17.8137 23 14.5H21ZM21 8.5V14.5H23V8.5H21ZM17 4.5C19.2091 4.5 21 6.29086 21 8.5H23C23 5.18629 20.3137 2.5 17 2.5V4.5ZM7 4.5H17V2.5H7V4.5ZM7.07687 20.7191C7.25418 20.5773 7.47449 20.5 7.70156 20.5V18.5C7.02035 18.5 6.35942 18.7318 5.82748 19.1574L7.07687 20.7191Z" fill="#999999"/>
<circle cx="7.05005" cy="11.5498" r="1.25" fill="#999999"/>
<circle cx="12.05" cy="11.5498" r="1.25" fill="#999999"/>
<circle cx="17.05" cy="11.5498" r="1.25" fill="#999999"/>
</svg>
