<svg width="48" height="48" viewBox="0 0 48 48" fill="none" xmlns="http://www.w3.org/2000/svg">
<path d="M30.7558 43.4686C29.3732 43.3701 27.8996 43.0909 26.6402 42.4977L25.0218 41.7157C24.0739 41.2329 24.1876 41.0886 23.2107 41.5913L22.3904 41.9989C18.5921 43.8286 14.7128 44.1296 10.8979 41.9644C9.21062 41.0068 9.51376 40.6618 9.6842 38.9439L9.77856 37.8203C9.79356 37.5521 9.84287 37.2882 9.85393 37.0196L9.85515 29.8733L9.78338 29.0097C9.69648 27.3509 9.69282 26.2468 8.72434 24.8919C7.99388 23.87 7.16462 23.0489 6.21057 22.2306L4.74531 21.0567C4.00132 20.5179 2.57739 19.865 2.36612 18.881L2.3587 18.845C2.14458 17.8988 2.79803 17.2522 3.29639 16.5346L7.7762 10.6535C7.99674 10.3859 8.2051 10.0922 8.4459 9.84329C9.68945 8.55784 11.2508 8.02843 12.8907 7.42834L14.4961 6.81109C14.9355 6.6451 15.4059 6.49201 15.8233 6.27774C16.0238 6.1749 16.0906 5.94376 16.2528 5.79498C16.3766 5.68145 16.5231 5.58948 16.6598 5.49184L17.2944 5.0349C17.5083 4.88349 17.7236 4.68374 17.9626 4.57535L17.9927 4.5623C18.1018 4.51336 18.1905 4.49793 18.3083 4.48526C18.7902 4.43997 19.0377 4.84145 19.3486 5.13526C22.7659 8.36438 25.1308 8.55484 28.4313 5.28292C29.401 4.3216 29.4202 4.21576 30.4767 4.95268C30.8916 5.24213 31.324 5.51349 31.6998 5.85423C32.137 6.2507 32.2738 6.50443 32.8454 6.73492L36.0306 7.81693C38.053 8.51687 38.7202 8.79713 40.1655 10.6161L44.0271 15.6212C44.5253 16.2941 45.5869 17.3798 45.66 18.2459L45.6638 18.2931C45.767 19.4544 45.0244 19.8962 44.1797 20.4875C42.6547 21.5552 40.8692 22.4995 39.8291 24.1056C38.6868 25.8695 38.4375 27.9414 38.3175 30.0018C38.304 30.2321 38.2505 30.4576 38.2408 30.6895L38.2316 36.3443C38.2426 36.9287 38.2922 37.7007 38.3589 38.2735L38.5931 39.7783C38.8418 41.3611 38.2436 41.5848 37.079 42.1436C34.9656 43.1577 33.1536 43.591 30.7558 43.4686ZM18.2504 6.19215C17.9837 6.34782 17.7296 6.5221 17.4947 6.72287C17.967 9.3699 20.1264 11.9305 22.8047 12.4693C23.2378 12.5564 23.6645 12.5905 24.0942 12.7017L24.1314 12.6808C24.5003 12.4779 24.9719 12.5256 25.3783 12.428C27.088 12.0175 28.4553 10.9321 29.4098 9.4576C29.7823 8.84851 30.4809 7.49124 30.4251 6.75174C30.1799 6.55328 29.8959 6.38209 29.6217 6.22627C25.5349 10.2974 22.59 10.0614 18.2504 6.19215ZM16.2097 7.79354L13.434 8.82399C12.1989 9.28801 10.6681 9.6729 9.75479 10.6967L10.0611 11.2687C10.2335 11.647 10.4506 12.0323 10.5818 12.4256L11.2088 14.0392L11.7557 15.8927C11.9891 16.7092 12.1606 17.8656 12.2469 18.6966L12.298 19.4649C12.4399 21.0398 12.4263 22.1639 11.6345 23.5512L10.6344 25.0454L11.0012 26.4723C11.2304 27.3925 11.3311 29.2554 11.3339 30.2165L11.3275 37.0825L11.1115 39.575C11.0013 40.483 10.8876 40.2251 11.7453 40.7122C12.5716 41.1814 13.4154 41.5079 14.3382 41.7277C16.9867 42.1508 18.8041 42.0108 21.3324 40.8243L22.169 40.4304C22.2815 40.3735 22.4373 40.3322 22.5128 40.2253L22.5099 13.9555C19.6021 13.239 17.5378 11.3075 16.4515 8.49606L16.2097 7.79354ZM31.7338 7.91026C30.8011 10.8453 28.6448 13.3639 25.495 13.9492L25.4801 39.0166C25.4799 40.4436 25.2001 40.1218 26.4239 40.7247C28.4951 41.745 31.3518 42.3368 33.6264 41.7775L34.3258 41.6106L35.5429 41.1854C35.7894 41.0952 36.9722 40.5812 37.1547 40.3896L36.7792 36.961C36.7545 36.5936 36.7673 36.2204 36.7667 35.852L36.7711 30.7217L36.8832 28.985C37.0166 27.56 37.2222 26.1278 37.7696 24.7971C37.9365 24.3914 37.8626 24.5435 37.5024 24.1861L36.5635 23.2456C36.2558 22.9441 35.892 22.6441 35.6469 22.2892L35.621 22.2534C35.3628 21.8878 35.6378 19.5423 35.7676 18.8225L36.0497 16.9806C36.3292 15.4715 37.2988 12.0201 38.2825 10.7474C37.3355 9.8236 36.8776 9.68837 35.6441 9.2716L33.1974 8.45452C32.7073 8.29098 32.2191 8.15429 31.7668 7.89929L31.7338 7.91026ZM8.70915 11.9111C8.25962 12.3813 7.87679 12.9144 7.47263 13.4226L4.15706 17.907C4.03274 18.0808 3.86444 18.3005 3.80314 18.5058C4.04053 18.7557 4.36442 18.9684 4.64701 19.1649L6.05134 20.1496C6.73735 20.6484 7.36782 21.232 7.99041 21.8056C8.61793 22.3989 9.2657 23.0266 9.76435 23.7328C10.8237 21.9629 11.0075 21.6277 10.8253 19.4998C10.6327 17.2494 10.1055 15.1739 9.23663 13.0909L8.70915 11.9111ZM39.311 11.9397C38.2589 13.6943 37.4837 17.1205 37.2258 19.0782L37.0056 21.554L38.6319 23.1403C39.0934 22.5249 39.6638 21.9242 40.2524 21.4288L41.4733 20.5087C41.8482 20.2449 44.0887 18.826 44.201 18.5626C44.206 18.3898 44.0394 18.1641 43.9438 18.022L39.311 11.9397ZM23.9768 14.004L23.9661 38.7127C23.9665 39.0847 23.9412 39.4899 24.0137 39.8553L24.0232 15.0334C24.0229 14.6996 24.0402 14.3468 23.9932 14.0157L23.9768 14.004Z" fill="white"/>
</svg>
