<svg width="141" height="140" viewBox="0 0 141 140" fill="none" xmlns="http://www.w3.org/2000/svg">
<path d="M96.6935 132.708H44.2518C34.2185 132.708 26.6935 130.025 22.0268 124.717C17.3602 119.408 15.5518 111.708 16.7768 101.733L22.0268 57.9834C23.5435 45.0917 26.8102 33.5417 49.5602 33.5417H91.5602C114.252 33.5417 117.519 45.0917 119.093 57.9834L124.343 101.733C125.51 111.708 123.76 119.467 119.093 124.717C114.252 130.025 106.785 132.708 96.6935 132.708ZM49.5018 42.2917C32.7018 42.2917 31.8851 48.9416 30.6601 58.9749L25.4102 102.725C24.5352 110.133 25.5851 115.558 28.5601 118.883C31.5351 122.208 36.7852 123.9 44.2518 123.9H96.6935C104.16 123.9 109.41 122.208 112.385 118.883C115.36 115.558 116.41 110.133 115.535 102.725L110.285 58.9749C109.06 48.8833 108.302 42.2917 91.4435 42.2917H49.5018Z" fill="#5C032C"/>
<path d="M93.8327 51.0417C91.441 51.0417 89.4577 49.0583 89.4577 46.6667V26.25C89.4577 19.95 85.5494 16.0417 79.2494 16.0417H61.7493C55.4493 16.0417 51.541 19.95 51.541 26.25V46.6667C51.541 49.0583 49.5577 51.0417 47.166 51.0417C44.7743 51.0417 42.791 49.0583 42.791 46.6667V26.25C42.791 15.1083 50.6077 7.29166 61.7493 7.29166H79.2494C90.391 7.29166 98.2077 15.1083 98.2077 26.25V46.6667C98.2077 49.0583 96.2243 51.0417 93.8327 51.0417Z" fill="#5C032C"/>
<path d="M119.558 103.717H47.166C44.7743 103.717 42.791 101.733 42.791 99.3418C42.791 96.9502 44.7743 94.9668 47.166 94.9668H119.558C121.949 94.9668 123.933 96.9502 123.933 99.3418C123.933 101.733 121.949 103.717 119.558 103.717Z" fill="#5C032C"/>
</svg>
