<svg width="29" height="28" viewBox="0 0 29 28" fill="none" xmlns="http://www.w3.org/2000/svg">
<path d="M8.66537 24.9417H20.332C22.4897 24.9417 24.2091 24.3205 25.3891 23.1405C26.5692 21.9605 27.1904 20.241 27.1904 18.0834V9.91671C27.1904 7.75907 26.5692 6.03962 25.3891 4.8596C24.2091 3.67958 22.4897 3.05837 20.332 3.05837H8.66537C6.50773 3.05837 4.78828 3.67958 3.60826 4.8596C2.42824 6.03962 1.80703 7.75907 1.80703 9.91671V18.0834C1.80703 20.241 2.42824 21.9605 3.60826 23.1405C4.78828 24.3205 6.50773 24.9417 8.66537 24.9417ZM3.85703 9.91671C3.85703 8.27042 4.2571 7.07627 5.04101 6.29236C5.82493 5.50844 7.01908 5.10837 8.66537 5.10837H20.332C21.9783 5.10837 23.1725 5.50844 23.9564 6.29236C24.7403 7.07627 25.1404 8.27042 25.1404 9.91671V18.0834C25.1404 19.7297 24.7403 20.9238 23.9564 21.7077C23.1725 22.4916 21.9783 22.8917 20.332 22.8917H8.66537C7.01908 22.8917 5.82493 22.4916 5.04101 21.7077C4.2571 20.9238 3.85703 19.7297 3.85703 18.0834V9.91671Z" fill="#1A1A1A" stroke="#1A1A1A" stroke-width="0.3"/>
<path d="M8.0243 11.2931L8.02429 11.2931L8.02527 11.2938L11.6764 14.21C12.4652 14.853 13.4915 15.165 14.5006 15.165C15.5091 15.165 16.5359 14.8532 17.3136 14.2097L20.9627 11.295C21.4154 10.9507 21.4815 10.2956 21.1286 9.85903C20.7838 9.40624 20.1279 9.34068 19.6914 9.69483C19.6913 9.69496 19.6911 9.69509 19.691 9.69522L16.0403 12.6111L16.04 12.6113C15.6281 12.942 15.0652 13.1121 14.4947 13.1121C13.9243 13.1121 13.3614 12.942 12.9494 12.6113L12.9492 12.6111L9.29848 9.69522C9.29831 9.69508 9.29814 9.69494 9.29797 9.6948C8.85714 9.33709 8.21526 9.42285 7.86248 9.85704C7.50428 10.2979 7.58994 10.9401 8.0243 11.2931Z" fill="#1A1A1A" stroke="#1A1A1A" stroke-width="0.3"/>
</svg>
