<svg width="18" height="18" viewBox="0 0 18 18" fill="none" xmlns="http://www.w3.org/2000/svg">
<path d="M15.7507 5.04492C15.7357 5.04492 15.7132 5.04492 15.6907 5.04492C11.7232 4.64742 7.76323 4.49742 3.84073 4.89492L2.31073 5.04492C1.99573 5.07492 1.71823 4.84992 1.68823 4.53492C1.65823 4.21992 1.88323 3.94992 2.19073 3.91992L3.72073 3.76992C7.71073 3.36492 11.7532 3.52242 15.8032 3.91992C16.1107 3.94992 16.3357 4.22742 16.3057 4.53492C16.2832 4.82742 16.0357 5.04492 15.7507 5.04492Z" fill="#F50A24"/>
<path d="M6.37556 4.28707C6.34556 4.28707 6.31556 4.28707 6.27806 4.27957C5.97806 4.22707 5.76806 3.93457 5.82056 3.63457L5.98556 2.65207C6.10556 1.93207 6.27056 0.93457 8.01806 0.93457H9.98306C11.7381 0.93457 11.9031 1.96957 12.0156 2.65957L12.1806 3.63457C12.2331 3.94207 12.0231 4.23457 11.7231 4.27957C11.4156 4.33207 11.1231 4.12207 11.0781 3.82207L10.9131 2.84707C10.8081 2.19457 10.7856 2.06707 9.99056 2.06707H8.02556C7.23056 2.06707 7.21556 2.17207 7.10306 2.83957L6.93056 3.81457C6.88556 4.09207 6.64556 4.28707 6.37556 4.28707Z" fill="#F50A24"/>
<path d="M11.4078 17.0597H6.59279C3.97529 17.0597 3.87029 15.6122 3.78779 14.4422L3.30029 6.88975C3.27779 6.58225 3.51779 6.31225 3.82529 6.28975C4.14029 6.27475 4.40279 6.50725 4.42529 6.81475L4.91279 14.3672C4.99529 15.5072 5.02529 15.9347 6.59279 15.9347H11.4078C12.9828 15.9347 13.0128 15.5072 13.0878 14.3672L13.5753 6.81475C13.5978 6.50725 13.8678 6.27475 14.1753 6.28975C14.4828 6.31225 14.7228 6.57475 14.7003 6.88975L14.2128 14.4422C14.1303 15.6122 14.0253 17.0597 11.4078 17.0597Z" fill="#F50A24"/>
<path d="M10.2455 12.9346H7.74805C7.44055 12.9346 7.18555 12.6796 7.18555 12.3721C7.18555 12.0646 7.44055 11.8096 7.74805 11.8096H10.2455C10.553 11.8096 10.808 12.0646 10.808 12.3721C10.808 12.6796 10.553 12.9346 10.2455 12.9346Z" fill="#F50A24"/>
<path d="M10.875 9.93457H7.125C6.8175 9.93457 6.5625 9.67957 6.5625 9.37207C6.5625 9.06457 6.8175 8.80957 7.125 8.80957H10.875C11.1825 8.80957 11.4375 9.06457 11.4375 9.37207C11.4375 9.67957 11.1825 9.93457 10.875 9.93457Z" fill="#F50A24"/>
</svg>
