<svg width="46" height="24" viewBox="0 0 46 24" fill="none" xmlns="http://www.w3.org/2000/svg">
<path d="M5.64048 23.4356L5.50389 23.4172C3.5052 23.1596 2.24682 20.1635 1.70668 18.5274C0.813153 15.8208 0.409259 13.2021 0.59203 10.3477L0.706981 9.30976C0.79737 8.50908 0.993669 7.51402 1.19913 6.7448L1.88129 4.24224C2.24027 2.75883 2.67647 2.14576 4.10936 1.40733C5.62337 0.627099 6.33184 0.526505 7.83311 1.18168L11.6679 2.71875C13.0695 3.3024 14.4707 3.99961 15.7112 4.88147L18.3731 7.0104C18.7614 7.3088 18.7073 7.17811 19.1549 7.32465L19.6719 7.49982C20.2129 7.70218 20.7288 7.68015 21.3023 7.68132L23.7394 7.68244C24.1468 7.68244 24.5897 7.64719 24.9909 7.70124C25.0573 7.71019 25.1716 7.59516 25.2321 7.55865C25.5744 7.35225 26.0989 7.15782 26.4858 7.1266C27.1341 7.07429 26.8424 7.28044 27.3707 6.81746C28.0334 6.23663 28.6967 5.63016 29.4123 5.11472C31.8017 3.39376 33.9167 2.57846 36.66 1.56915L38.4785 0.925833C38.9832 0.759427 39.4619 0.58838 39.997 0.549145C42.032 0.17977 43.4838 2.80219 44.0938 4.33599C44.409 5.12874 44.2222 5.8943 44.62 6.85894L44.8941 7.59071C46.295 11.799 45.2041 18.7279 42.1067 22.1217C40.7357 23.6241 40.0924 23.5463 38.2812 22.9736L34.2072 21.7509C31.8728 20.9279 28.7774 19.044 27.0586 17.158C26.5796 17.2654 25.9217 17.2413 25.4863 17.0061C25.4323 16.9769 25.3943 16.9528 25.3304 16.9516L21.0676 16.9644C20.5083 16.9569 20.5593 16.9463 20.0254 17.1366C19.5827 17.2944 19.0003 17.3042 18.5476 17.1805C18.5185 17.1725 17.8564 17.7691 17.7696 17.8443C16.0461 19.3368 14.1064 20.6113 11.9726 21.4387L7.66689 22.958C6.80289 23.2867 6.58145 23.4443 5.64048 23.4356ZM40.0702 1.97396C39.5602 2.08496 39.0706 2.25727 38.5782 2.42785L36.9893 2.98927C34.3816 3.93924 31.9048 4.96472 29.7192 6.72033C29.2285 7.1145 28.7852 7.545 28.3258 7.97316C28.7311 8.47613 29.0934 9.06891 29.1977 9.7178L30.9398 9.38199L33.4531 8.93063C34.79 8.69096 36.1144 8.49268 37.3912 8.00344C38.314 7.64982 39.1278 7.11193 40.0039 6.66755C40.9304 6.19763 41.9079 5.92608 42.9246 5.73544C42.8447 4.94944 42.5956 4.37593 42.2029 3.69657C41.7013 2.82863 41.2011 1.93121 40.0702 1.97396ZM6.16047 2.21011C5.51851 2.31746 4.92128 2.60147 4.36811 2.93775C3.7817 3.29429 3.54065 3.58608 3.36883 4.24979L3.18541 4.96102C3.1473 5.13507 3.083 5.31174 3.0646 5.4886C4.52739 5.89472 4.9802 6.26771 6.19693 7.02371C7.43739 7.79447 8.86154 8.2314 10.2751 8.55619L14.744 9.50349L16.672 9.94922C16.7989 9.261 16.9218 8.64624 17.3305 8.05533C14.6296 5.41965 11.6621 4.25991 8.22226 2.91493L7.0697 2.44974C6.79361 2.33921 6.46768 2.15588 6.16047 2.21011ZM2.62465 6.87263C2.07637 8.72152 1.98481 10.1268 1.96956 11.9937C1.9654 12.5042 1.94327 13.0597 2.02623 13.5631L2.36718 15.6482L2.75889 17.1826C2.78634 17.2927 2.83866 17.5601 2.92576 17.6259C4.82073 17.3638 6.36747 15.9657 8.06073 15.1539C8.92797 14.7382 9.84667 14.4924 10.7694 14.2407L12.1665 13.8703L16.5504 12.9259L16.5518 11.3594L12.1057 10.4314C9.80462 9.96132 7.51614 9.52069 5.48739 8.27574C4.27107 7.52935 4.00445 7.30397 2.62465 6.87263ZM43.0787 7.17835C42.2714 7.308 41.4422 7.58743 40.707 7.94443L38.3515 9.17565C37.0048 9.80025 35.5119 10.078 34.0581 10.3197L30.8801 10.8695C30.4324 10.9576 29.9463 10.99 29.5133 11.1259L29.4803 11.136C28.9135 11.3173 29.1284 12.1386 29.158 12.5647L29.1707 13.1653C29.2001 13.2125 29.2914 13.226 29.3453 13.2388L33.3417 14.1915C34.0769 14.3861 34.8291 14.4965 35.5704 14.6625C37.2373 15.0356 38.1254 15.5254 39.5716 16.3464C40.6491 16.9582 41.7914 17.3809 43.0086 17.6128C43.9378 14.8321 44.2022 11.4628 43.611 8.56646C43.5146 8.09415 43.3713 7.64143 43.2383 7.17943C43.1855 7.15927 43.1331 7.1716 43.0787 7.17835ZM26.6842 8.53796L26.353 8.62276C26.995 9.70383 27.1104 9.96136 27.1121 11.2457L27.0968 14.7816C27.0834 15.0172 27.0197 15.25 27.0026 15.4899C27.2117 15.4243 27.338 15.3563 27.482 15.1904C27.8649 14.6312 27.9079 14.21 27.8161 13.5689L27.7259 12.8123C27.6817 12.4063 27.6793 11.9891 27.6857 11.5812C27.6917 11.2034 27.9538 10.9071 27.9583 10.5515C27.9659 9.96211 27.3945 8.56407 26.6842 8.53796ZM18.6693 8.70708C18.0983 9.01557 18.0021 10.5105 17.9874 11.0815L17.9535 12.6507C17.9756 13.6004 18.0213 14.5292 18.5872 15.3388C18.6723 15.4286 18.8523 15.625 18.9702 15.6457L18.948 8.72044C18.885 8.67807 18.7633 8.69105 18.6901 8.70272L18.6693 8.70708ZM20.3537 9.12118L20.3509 14.6295C20.3521 14.9094 20.3414 15.2279 20.395 15.5019L24.9857 15.4908C25.1556 15.4906 25.3347 15.5042 25.5018 15.4731L25.5379 15.2861L25.697 14.3343C25.737 14.1668 25.7272 13.9686 25.7293 13.7963L25.7315 11.5639C25.7293 10.8713 25.7162 9.70229 25.0451 9.28768L24.9446 9.23058C24.5279 9.0084 23.583 9.1208 23.1157 9.12061L20.3537 9.12118ZM16.5948 14.379L11.4253 15.5715C10.0773 15.9393 8.80961 16.303 7.60136 17.0265C6.25764 17.8311 4.97711 18.8236 3.36304 19.0079C3.78147 19.8853 4.18159 20.6809 4.8167 21.4285C5.03978 21.659 5.28231 21.8816 5.60936 21.9421L5.64226 21.9484C6.38401 22.0855 7.18267 21.5646 7.86306 21.3354L10.1562 20.5316C12.9058 19.5548 14.5607 18.6958 16.834 16.7238C17.048 16.5381 17.283 16.3548 17.4782 16.1501C17.0055 15.5082 16.9403 15.1096 16.6882 14.3745L16.5948 14.379ZM29.2487 14.7071C29.1102 15.3628 28.8145 15.9466 28.3242 16.4079C31.8101 19.5219 33.7096 20.1369 37.9485 21.3574L38.7879 21.6359C39.7395 21.989 40.1473 22.103 40.9208 21.288C41.5774 20.5944 42.1031 19.8439 42.5111 18.9798C41.2732 18.6749 40.3082 18.3788 39.1636 17.7706C37.8699 17.0832 37.1446 16.5649 35.6941 16.1963L29.8039 14.8432C29.6529 14.8021 29.3957 14.6898 29.2487 14.7071Z" fill="white"/>
</svg>
