<svg width="30" height="40" viewBox="0 0 30 40" fill="none" xmlns="http://www.w3.org/2000/svg">
<path d="M5.61771 34.6307L6.56064 27.5236C6.97005 24.6492 7.35649 21.4918 8.5128 18.7973C8.71169 18.3339 8.97616 17.8709 9.13633 17.3952L9.16905 17.2999C9.32411 16.7638 8.94522 15.6904 8.71178 15.2295C8.35802 14.531 7.79683 13.9323 7.34894 13.292C6.43464 11.9853 5.56216 10.6623 4.78216 9.27119C4.6787 9.50331 4.60366 9.74496 4.50892 9.9806L2.33313 15.2437C2.15406 15.6921 1.94861 16.4774 1.30666 16.3563L1.27774 16.3502C1.14841 16.3249 1.01706 16.2398 0.940283 16.1326L0.920924 16.1042C0.647221 15.7074 0.802659 15.3813 0.981862 14.9949L3.87419 7.9518C4.08527 7.40167 3.73905 7.4988 3.56603 6.86477L3.55633 6.8283C3.331 6.00953 4.27056 5.33144 4.75731 4.80555C5.99083 3.47299 7.29002 2.2136 8.64592 1.00605C9.17589 0.534056 9.58558 -0.0504382 10.3891 0.153637C10.7745 0.251535 10.9285 0.756534 11.0633 1.07974L14.779 9.346C14.8628 9.53346 14.9275 9.71903 15.0277 9.89993C15.1455 9.49882 15.353 9.11252 15.5208 8.72964L18.7454 1.54174C18.8951 1.20888 19.104 0.400631 19.4381 0.223068L19.4666 0.208434C19.6542 0.109016 19.8059 0.080718 20.0138 0.0639648C20.4845 0.0950945 20.6454 0.263896 20.9652 0.587826L25.068 4.61064C26.0872 5.69111 27.0546 6.21363 26.0329 7.68846L29.1896 15.3968C29.5228 16.1857 28.4342 16.8244 27.9518 15.9099C27.7879 15.5992 27.6863 15.2525 27.5515 14.9283L25.8327 10.7938C25.6231 10.2981 25.3908 9.80917 25.212 9.30124C24.7578 10.1807 24.2017 11.0137 23.6465 11.8315L21.9136 14.2789C21.3558 15.0239 20.5278 16.4265 20.835 17.3466C20.9344 17.6445 21.0804 17.9029 21.2106 18.1865L22.2573 21.0685C22.317 21.2688 22.3481 21.5029 22.4231 21.6933C22.5801 22.0919 22.9169 23.6087 22.9584 23.9604L23.4663 26.633L24.2111 31.9893C24.2439 32.1595 24.2476 32.3298 24.2682 32.5014L24.4825 34.8695C24.6179 36.4835 24.46 37.3908 22.9916 38.4441C21.2205 39.7145 19.2552 39.6686 17.2052 39.6692L12.012 39.6691C9.73821 39.6675 6.65847 39.2119 5.68736 36.854C5.39191 36.1365 5.50169 35.3774 5.61771 34.6307ZM20.1255 1.70721L14.4183 14.3735L19.3539 14.3835C19.5137 14.378 19.719 14.3991 19.8669 14.34L19.8999 14.3273C20.2301 14.1956 20.4955 13.8655 20.71 13.5946L21.2298 12.9214C22.2231 11.6054 23.1301 10.209 23.9706 8.7911L25.1366 6.6895C24.8906 6.34413 24.5469 6.04328 24.2561 5.73274L20.9858 2.48838C20.8508 2.35896 20.2423 1.73786 20.1454 1.70988L20.1255 1.70721ZM9.85347 1.75408L4.89724 6.62125C5.00988 6.90499 5.15491 7.16683 5.29408 7.43767L6.32528 9.24339L8.28555 12.2445C8.73124 12.8728 9.17664 13.5005 9.71524 14.0543L9.92603 14.2461C10.19 14.4876 10.6359 14.3844 10.9646 14.3845L12.9281 14.3909L14.2845 11.5118C14.1366 11.1056 13.9049 10.7074 13.7184 10.3153L9.89542 1.80611C9.87513 1.76013 9.89078 1.77611 9.85347 1.75408ZM10.3755 15.7624C10.4468 16.2702 10.554 16.7771 10.5513 17.2931L19.4887 17.2939L19.4873 17.2228C19.4615 16.7788 19.4776 16.1943 19.6308 15.7659L10.3755 15.7624ZM10.0403 18.6716C9.48325 19.7419 9.07089 21.2058 8.80942 22.3676L8.16902 25.784L6.91117 35.2833C6.88619 35.5377 6.77416 35.8551 6.8441 36.1056C7.30061 37.7406 9.75152 38.1979 11.1737 38.2742L14.5927 38.2802L14.574 34.215L14.57 20.9396C14.5693 20.2178 14.5983 19.4912 14.502 18.7745C13.9776 19.7234 13.3081 21.9125 13.2196 22.9616C13.1939 23.2669 13.2431 24.2612 13.1819 24.4668C13.0426 24.9347 12.03 25.3967 11.8788 24.0197C11.738 22.7366 12.0846 21.4293 12.4743 20.2197C12.5135 20.0981 13.0644 18.6894 13.0623 18.6837L10.0403 18.6716ZM17.504 18.6704L17.4223 18.6945C17.7373 19.4851 18.2723 20.2381 18.5917 21.1001L18.6674 21.3011C19.0084 22.28 19.2112 23.0203 19.2176 24.088C19.22 24.4782 19.1749 24.7548 18.7466 24.8915C18.0066 25.1278 17.9423 24.4064 17.9111 23.9371C17.8083 22.3876 17.1164 21.0618 16.4086 19.7189C16.229 19.3783 16.0724 19.0242 15.8458 18.7113C15.8397 19.153 15.9163 19.578 15.9176 20.0197L15.9183 35.9515L15.9201 37.5405C15.9205 37.7578 15.8842 38.0779 15.9421 38.2827L17.7822 38.2809C19.3993 38.2774 21.3867 38.2057 22.6071 36.979C22.8746 36.7101 23.2137 36.2911 23.2056 35.8908C23.1761 34.4225 22.9703 32.9537 22.8054 31.4963L21.9655 25.8595C21.6159 23.8183 21.1531 21.7297 20.4244 19.7881C20.2911 19.4328 20.1617 18.9965 19.9584 18.679L17.504 18.6704Z" fill="white"/>
</svg>
