<svg width="25" height="25" viewBox="0 0 25 25" fill="none" xmlns="http://www.w3.org/2000/svg">
<g clip-path="url(#clip0_111_14295)">
<path d="M21.0344 3.99048C18.8109 1.72813 15.7373 0.5 12.5983 0.5C5.92787 0.5 0.565396 5.865 0.630792 12.3935C0.630792 14.4619 1.21936 16.4657 2.2003 18.2756L0.5 24.4163L6.84342 22.8003C8.60911 23.7699 10.571 24.2224 12.5329 24.2224C19.1379 24.2224 24.5003 18.8574 24.5003 12.3289C24.5003 9.16157 23.2578 6.18819 21.0344 3.99048ZM12.5983 22.2186C10.8326 22.2186 9.06688 21.7661 7.56277 20.8611L7.1704 20.6672L3.37743 21.6368L4.35837 17.9524L4.09678 17.5646C1.21936 12.9752 2.59267 6.89922 7.30119 4.05512C12.0097 1.21102 18.0915 2.56843 20.969 7.22241C23.8464 11.8764 22.4731 17.8878 17.7646 20.7319C16.2604 21.7014 14.4294 22.2186 12.5983 22.2186ZM18.3531 15.0437L17.6338 14.7205C17.6338 14.7205 16.5874 14.268 15.9335 13.9448C15.8681 13.9448 15.8027 13.8802 15.7373 13.8802C15.5411 13.8802 15.4103 13.9448 15.2795 14.0095C15.2795 14.0095 15.2141 14.0741 14.2986 15.1083C14.2332 15.2376 14.1024 15.3022 13.9716 15.3022H13.9062C13.8408 15.3022 13.71 15.2376 13.6446 15.173L13.3176 15.0437C12.5983 14.7205 11.9443 14.3327 11.4211 13.8155C11.2903 13.6863 11.0942 13.557 10.9634 13.4277C10.5056 12.9752 10.0478 12.4581 9.72084 11.8764L9.65545 11.7471C9.59005 11.6825 9.59005 11.6178 9.52465 11.4886C9.52465 11.3593 9.52465 11.23 9.59005 11.1654C9.59005 11.1654 9.85163 10.8422 10.0478 10.6483C10.1786 10.519 10.244 10.3251 10.3748 10.1958C10.5056 10.0019 10.571 9.74331 10.5056 9.5494C10.4402 9.22621 9.65545 7.48096 9.45926 7.09313C9.32846 6.89922 9.19767 6.83458 9.00148 6.76994H8.8053C8.6745 6.76994 8.47832 6.76994 8.28213 6.76994C8.15134 6.76994 8.02054 6.83458 7.88975 6.83458L7.82436 6.89922C7.69356 6.96386 7.56277 7.09313 7.43198 7.15777C7.30119 7.28705 7.23579 7.41633 7.105 7.5456C6.64723 8.12735 6.38564 8.83838 6.38564 9.5494C6.38564 10.0665 6.51644 10.5836 6.71262 11.0361L6.77802 11.23C7.36658 12.4581 8.15134 13.557 9.19767 14.5266L9.45926 14.7851C9.65545 14.979 9.85163 15.1083 9.98243 15.3022C11.3557 16.4657 12.9252 17.306 14.6909 17.7585C14.8871 17.8231 15.1487 17.8231 15.3449 17.8878C15.5411 17.8878 15.8027 17.8878 15.9989 17.8878C16.3258 17.8878 16.7182 17.7585 16.9798 17.6292C17.176 17.4999 17.3068 17.4999 17.4376 17.3707L17.5684 17.2414C17.6992 17.1121 17.83 17.0475 17.9607 16.9182C18.0915 16.7889 18.2223 16.6596 18.2877 16.5304C18.4185 16.2718 18.4839 15.9486 18.5493 15.6254C18.5493 15.4961 18.5493 15.3022 18.5493 15.173C18.5493 15.173 18.4839 15.1083 18.3531 15.0437Z" fill="#999999"/>
</g>
<defs>
<clipPath id="clip0_111_14295">
<rect width="24" height="24" fill="white" transform="translate(0.5 0.5)"/>
</clipPath>
</defs>
</svg>
